{"glyphs":{"0":{"ha":524,"x_min":37,"x_max":486,"o":"m 486 353 q 481 278 486 318 q 466 197 477 237 q 438 119 455 157 q 395 52 420 81 q 336 5 370 23 q 258 -12 302 -12 q 185 5 218 -12 q 128 51 153 22 q 86 116 104 79 q 58 193 69 153 q 42 272 47 233 q 37 343 37 311 q 42 416 37 376 q 58 497 47 456 q 87 575 69 537 q 130 643 104 614 q 188 690 155 673 q 264 708 222 708 q 339 691 306 708 q 396 645 372 673 q 438 580 421 617 q 466 504 455 543 q 481 425 477 464 q 486 353 486 386 m 386 375 q 385 425 386 395 q 380 488 384 454 q 368 555 376 522 q 346 615 359 588 q 312 658 332 642 q 262 675 292 675 q 212 655 233 675 q 177 603 191 635 q 155 532 163 571 q 143 454 147 492 q 139 383 140 416 q 138 330 138 350 q 139 280 138 311 q 144 215 140 250 q 156 146 148 181 q 177 83 163 111 q 212 38 191 56 q 261 21 232 21 q 314 42 292 21 q 349 95 335 62 q 370 169 363 128 q 381 248 378 209 q 385 321 385 288 q 386 375 386 355 z "},"1":{"ha":524,"x_min":122,"x_max":396,"o":"m 135 0 l 135 20 q 186 24 168 20 q 213 40 205 28 q 223 72 222 52 q 225 122 225 92 l 225 522 q 224 559 225 541 q 220 592 224 578 q 207 616 216 607 q 183 625 199 625 q 156 620 170 625 q 131 610 142 615 l 122 625 l 292 708 l 310 708 l 310 122 q 311 73 310 92 q 321 41 313 53 q 346 24 329 29 q 396 20 363 20 l 396 0 l 135 0 z "},"2":{"ha":524,"x_min":24,"x_max":481,"o":"m 431 0 l 24 0 l 24 20 q 87 79 52 46 q 159 149 123 111 q 230 227 195 186 q 291 309 264 267 q 334 394 317 351 q 350 478 350 437 q 340 535 350 508 q 313 584 331 563 q 271 617 296 605 q 214 629 245 629 q 117 598 154 629 q 61 513 80 567 l 43 513 q 63 590 48 555 q 102 652 77 626 q 161 693 126 678 q 240 708 195 708 q 315 695 279 708 q 378 657 351 682 q 421 600 405 633 q 437 525 437 566 q 424 448 437 486 q 388 374 410 410 q 341 305 367 338 q 290 244 315 272 q 213 159 252 201 q 132 78 174 117 l 313 78 q 367 79 345 78 q 404 85 389 80 q 433 101 420 90 q 461 134 446 113 l 481 134 l 431 0 z "},"3":{"ha":524,"x_min":43,"x_max":437,"o":"m 437 229 q 416 124 437 170 q 356 48 394 79 q 269 3 319 18 q 163 -12 219 -12 q 129 -11 149 -12 q 89 -4 108 -9 q 56 12 70 1 q 43 43 43 23 q 56 69 43 58 q 83 79 68 79 q 116 72 100 79 q 151 56 133 64 q 189 39 169 47 q 232 32 209 32 q 283 43 259 32 q 324 73 307 54 q 351 116 341 92 q 361 167 361 140 q 345 246 361 213 q 302 300 330 279 q 239 332 275 321 q 160 343 202 342 l 160 359 q 219 377 191 363 q 269 411 248 390 q 304 460 291 432 q 317 521 317 488 q 309 567 317 546 q 286 604 300 589 q 250 629 271 620 q 203 637 229 637 q 126 613 159 637 q 71 553 94 589 l 53 561 q 85 619 68 592 q 124 666 102 646 q 174 697 146 686 q 240 708 202 708 q 300 699 271 708 q 352 672 330 690 q 388 628 374 654 q 401 567 401 602 q 393 522 401 543 q 371 480 385 500 q 341 443 358 460 q 309 411 325 426 q 405 342 372 388 q 437 229 437 297 z "},"4":{"ha":524,"x_min":17,"x_max":486,"o":"m 395 183 l 395 0 l 310 0 l 310 183 l 17 183 l 17 248 l 339 708 l 395 708 l 395 256 l 486 256 l 486 183 l 395 183 m 310 600 l 66 256 l 310 256 l 310 600 z "},"5":{"ha":524,"x_min":50,"x_max":454,"o":"m 415 606 l 207 606 l 160 514 q 263 488 212 509 q 354 433 314 467 q 418 353 394 399 q 443 250 443 307 q 420 146 443 195 q 360 63 398 98 q 273 8 323 28 q 170 -12 224 -12 q 133 -9 154 -12 q 94 0 113 -7 q 63 21 76 7 q 50 56 50 35 q 61 84 50 75 q 90 93 71 93 q 121 85 106 93 q 152 66 136 77 q 186 48 168 56 q 227 40 204 40 q 286 53 258 40 q 333 86 313 65 q 365 136 353 108 q 376 196 376 164 q 348 299 376 256 q 276 368 320 341 q 178 409 232 395 q 74 424 125 422 l 207 693 l 454 693 l 415 606 z "},"6":{"ha":524,"x_min":46,"x_max":484,"o":"m 484 233 q 468 142 484 186 q 423 64 452 98 q 353 8 394 29 q 262 -12 313 -12 q 195 0 226 -12 q 141 33 165 12 q 99 82 117 54 q 70 141 81 110 q 52 207 58 173 q 46 272 46 240 q 60 378 46 325 q 98 479 73 431 q 159 569 123 528 q 238 642 195 611 q 333 690 282 673 q 440 708 385 708 l 469 708 l 469 689 q 355 659 406 685 q 265 591 304 633 q 200 496 227 549 q 160 386 174 444 q 231 423 193 409 q 309 437 268 437 q 383 420 351 437 q 438 374 416 403 q 472 309 460 345 q 484 233 484 272 m 392 178 q 386 247 392 209 q 366 317 380 284 q 325 371 351 349 q 258 393 298 393 q 232 389 246 393 q 203 378 217 385 q 175 364 189 372 q 151 350 161 356 q 145 294 148 321 q 142 239 142 267 q 145 195 142 219 q 155 146 149 171 q 173 98 162 121 q 199 57 184 75 q 234 28 214 39 q 278 17 254 17 q 331 33 309 17 q 366 72 353 48 q 386 124 380 96 q 392 178 392 153 z "},"7":{"ha":524,"x_min":39,"x_max":475,"o":"m 244 -16 l 189 -16 l 396 610 l 205 610 q 153 606 175 610 q 114 593 131 603 q 82 568 96 584 q 53 525 68 551 l 39 529 l 106 693 l 475 693 l 475 675 l 244 -16 z "},"8":{"ha":524,"x_min":62,"x_max":464,"o":"m 464 164 q 448 87 464 121 q 404 32 431 54 q 339 -1 376 10 q 262 -12 302 -12 q 190 -1 226 -12 q 125 33 154 11 q 80 86 97 55 q 62 158 62 118 q 76 216 62 189 q 109 268 89 244 q 154 312 130 292 q 201 349 178 332 q 155 389 178 368 q 113 432 132 409 q 82 482 94 455 q 71 543 71 509 q 87 613 71 583 q 130 665 103 644 q 191 697 157 686 q 262 708 226 708 q 328 699 295 708 q 388 671 361 690 q 432 624 415 652 q 449 558 449 596 q 435 502 449 528 q 400 455 421 476 q 354 416 379 433 q 306 385 329 399 q 360 340 332 363 q 411 291 389 317 q 449 233 434 264 q 464 164 464 201 m 375 564 q 262 677 375 677 q 218 671 239 677 q 181 652 197 665 q 155 621 165 640 q 146 576 146 602 q 159 523 146 548 q 194 477 173 498 q 238 438 214 456 q 282 404 262 420 q 318 439 302 422 q 348 474 335 456 q 368 513 361 492 q 375 564 375 535 m 390 122 q 373 185 390 155 q 330 240 355 214 q 277 288 305 266 q 225 330 248 311 q 164 255 186 297 q 142 160 142 212 q 150 105 142 131 q 174 59 158 79 q 214 28 190 40 q 269 17 237 17 q 315 24 294 17 q 354 44 337 31 q 380 77 370 57 q 390 122 390 96 z "},"9":{"ha":524,"x_min":41,"x_max":478,"o":"m 478 422 q 465 317 478 370 q 426 215 451 264 q 365 124 401 166 q 286 51 330 82 q 192 2 243 20 q 85 -16 141 -16 l 56 -16 l 56 4 q 169 32 118 5 q 258 100 220 58 q 323 196 297 142 q 364 306 350 250 q 295 269 332 284 q 218 253 258 253 q 143 270 176 253 q 87 317 110 288 q 53 383 64 346 q 41 460 41 420 q 56 550 41 506 q 99 630 71 595 q 168 686 127 665 q 258 708 208 708 q 326 696 295 708 q 380 663 356 684 q 423 613 405 642 q 454 553 441 585 q 472 488 466 522 q 478 422 478 454 m 382 449 q 375 517 382 479 q 352 591 368 556 q 310 651 336 627 q 245 675 284 675 q 193 659 214 675 q 158 619 171 643 q 139 567 145 595 q 134 513 134 538 q 139 446 134 484 q 159 376 144 409 q 197 321 173 343 q 260 298 222 298 q 287 302 271 298 q 320 311 303 305 q 351 326 337 317 q 372 343 366 334 q 379 395 376 369 q 382 449 382 421 z "}," ":{"ha":315,"x_min":0,"x_max":0,"o":""},"\t":{"ha":315,"x_min":0,"x_max":0,"o":""},"!":{"ha":335,"x_min":104,"x_max":232,"o":"m 168 125 q 190 119 178 125 q 210 103 201 113 q 226 82 220 94 q 232 61 232 71 q 226 40 232 51 q 210 19 220 28 q 190 2 201 9 q 168 -4 178 -4 q 148 2 159 -4 q 127 19 136 9 q 111 40 117 28 q 104 61 104 51 q 111 82 104 71 q 127 103 117 94 q 148 119 136 113 q 168 125 159 125 m 214 632 q 211 612 212 621 q 209 594 210 603 q 206 573 208 585 q 201 545 204 562 q 196 506 199 530 q 192 457 194 481 q 189 414 190 433 q 187 387 187 394 l 187 195 l 154 176 q 143 216 148 198 q 134 257 139 233 q 126 318 128 290 q 125 358 125 347 l 125 549 l 214 632 z "},"\"":{"ha":427,"x_min":68,"x_max":358,"o":"m 358 654 q 354 594 358 625 q 344 532 350 563 q 332 470 338 500 q 319 411 325 439 l 294 411 q 283 464 290 434 q 270 527 277 494 q 259 590 264 559 q 254 647 254 622 q 266 691 254 675 q 307 708 277 708 q 345 693 331 708 q 358 654 358 677 m 171 654 q 165 597 171 631 q 153 527 160 563 q 139 460 146 492 q 129 411 132 429 l 109 411 q 96 467 103 437 q 83 527 89 496 q 72 589 77 558 q 68 647 68 619 q 79 691 68 673 q 119 708 90 708 q 157 693 143 708 q 171 654 171 677 z "},"#":{"ha":524,"x_min":18,"x_max":505,"o":"m 366 218 l 318 -16 l 277 -16 l 323 218 l 150 218 l 102 -16 l 58 -16 l 106 218 l 18 218 l 18 261 l 114 261 l 150 436 l 18 436 l 18 476 l 160 476 l 207 708 l 248 708 l 203 476 l 375 476 l 424 708 l 467 708 l 418 476 l 505 476 l 505 436 l 411 436 l 375 261 l 505 261 l 505 218 l 366 218 m 193 436 l 157 261 l 332 261 l 368 436 l 193 436 z "},"$":{"ha":524,"x_min":56,"x_max":471,"o":"m 471 172 q 454 97 471 130 q 409 39 437 63 q 345 1 381 15 q 269 -16 309 -13 l 269 -79 l 236 -79 l 236 -16 q 144 -3 190 -13 q 56 26 98 7 l 56 171 l 78 171 q 125 62 83 99 q 236 20 166 26 l 236 317 q 173 358 205 337 q 115 406 140 380 q 72 465 89 432 q 56 539 56 497 q 71 607 56 577 q 111 658 86 637 q 169 691 136 679 q 236 705 201 703 l 236 753 l 269 753 l 269 705 q 313 700 292 705 q 355 689 334 696 q 396 675 375 683 q 437 660 416 668 l 437 507 l 418 507 q 377 620 412 577 q 269 671 342 663 l 269 411 q 335 365 300 389 q 400 313 370 341 q 451 250 431 284 q 471 172 471 215 m 236 671 q 196 661 215 668 q 164 642 178 654 q 143 612 151 630 q 135 571 135 595 q 144 528 135 548 q 168 490 153 507 q 200 458 182 473 q 236 433 218 444 l 236 671 m 390 147 q 378 194 390 173 q 348 234 366 216 q 309 267 330 252 q 269 294 288 281 l 269 20 q 317 32 295 21 q 355 59 339 42 q 381 99 372 77 q 390 147 390 122 z "},"%":{"ha":905,"x_min":79,"x_max":827,"o":"m 827 260 q 821 200 827 232 q 802 138 814 169 q 772 80 790 108 q 732 31 755 52 q 681 -3 709 9 q 621 -16 653 -16 q 519 23 550 -16 q 488 129 488 61 q 507 216 488 172 q 557 295 526 260 q 630 353 589 330 q 715 375 671 375 q 760 366 739 375 q 795 341 780 357 q 818 304 810 326 q 827 260 827 283 m 277 -16 l 227 -16 l 593 643 q 530 622 562 629 q 464 615 498 615 q 437 617 450 615 q 411 624 424 618 q 415 595 411 609 q 419 567 419 581 q 403 479 419 526 q 357 393 387 433 q 289 328 328 354 q 204 302 250 302 q 146 313 170 302 q 107 343 122 324 q 86 389 93 362 q 79 447 79 416 q 98 534 79 490 q 148 614 117 578 q 220 673 180 650 q 306 696 261 696 q 351 687 334 696 q 386 667 369 678 q 422 648 403 656 q 473 639 442 639 q 562 656 521 639 q 632 711 602 673 l 682 711 l 277 -16 m 800 254 q 795 286 800 271 q 782 314 791 302 q 759 334 772 326 q 726 342 745 342 q 682 329 703 342 q 643 295 661 316 q 611 246 625 273 q 587 191 597 219 q 572 137 577 163 q 567 90 567 111 q 582 37 567 57 q 632 17 597 17 q 680 28 657 17 q 721 59 702 40 q 754 103 739 79 q 779 155 769 128 q 795 207 789 181 q 800 254 800 233 m 392 582 q 388 606 392 593 q 383 631 385 620 q 365 638 376 633 q 344 650 355 644 q 325 661 334 656 q 310 665 315 665 q 284 658 297 665 q 259 639 271 650 q 237 616 248 628 q 220 595 227 604 q 176 511 191 556 q 160 416 160 466 q 174 361 160 383 q 225 339 189 339 q 273 351 251 339 q 314 382 296 363 q 348 427 333 402 q 372 479 362 452 q 387 533 382 507 q 392 582 392 559 z "},"&":{"ha":815,"x_min":39,"x_max":782,"o":"m 782 125 q 762 69 776 95 q 729 24 749 43 q 683 -6 709 5 q 625 -17 657 -17 q 573 -8 598 -17 q 525 14 548 0 q 482 46 503 28 q 444 83 462 64 q 394 43 419 62 q 343 11 370 24 q 287 -9 317 -2 q 222 -17 257 -17 q 155 -7 188 -17 q 96 22 122 3 q 55 71 71 41 q 39 138 39 100 q 59 219 39 182 q 110 288 79 257 q 178 344 140 319 q 252 387 216 369 q 221 462 235 422 q 208 541 208 502 q 222 610 208 579 q 259 663 235 642 q 315 696 283 685 q 386 708 348 708 q 439 700 414 708 q 484 676 465 692 q 514 637 503 661 q 525 585 525 614 q 509 520 525 549 q 468 470 493 492 q 414 431 444 448 q 357 400 384 414 q 421 292 387 345 q 493 189 454 239 q 523 228 507 207 q 552 273 539 250 q 573 321 565 296 q 582 370 582 346 q 579 390 582 380 q 570 408 576 400 q 554 421 564 416 q 533 427 545 427 l 533 446 l 749 446 l 749 427 q 734 425 743 427 q 718 422 726 424 q 700 416 709 420 q 685 407 692 412 q 667 388 677 400 q 649 362 658 376 q 632 334 640 348 q 619 311 625 321 q 571 233 596 271 q 517 158 546 195 q 548 125 531 142 q 585 95 565 109 q 626 72 604 81 q 669 62 647 62 q 731 82 708 62 q 764 138 754 101 l 782 125 m 465 586 q 460 619 465 604 q 444 646 454 635 q 419 665 433 658 q 386 672 404 672 q 350 665 367 672 q 321 646 334 658 q 302 617 309 633 q 296 581 296 600 q 300 544 296 563 q 310 505 304 524 q 324 468 316 486 q 339 433 332 450 q 386 459 363 444 q 426 492 408 473 q 454 534 444 511 q 465 586 465 557 m 418 113 q 337 230 374 172 q 267 353 301 288 q 220 322 242 339 q 181 284 198 305 q 154 238 164 263 q 144 183 144 213 q 154 130 144 155 q 180 86 163 105 q 220 57 197 68 q 273 46 244 46 q 313 52 294 46 q 351 67 332 58 q 386 89 369 77 q 418 113 403 100 z "},"'":{"ha":189,"x_min":43,"x_max":146,"o":"m 146 654 q 143 623 146 647 q 132 561 140 600 l 104 411 l 82 411 l 54 562 q 50 586 52 574 q 46 610 48 599 q 44 632 45 622 q 43 647 43 642 q 55 693 43 679 q 92 708 68 708 q 132 692 117 708 q 146 654 146 676 z "},"(":{"ha":481,"x_min":143,"x_max":340,"o":"m 290 -81 q 239 -9 265 -48 q 191 79 212 29 q 157 195 170 130 q 143 345 143 260 q 159 492 143 426 q 197 608 175 557 q 242 692 219 658 q 281 746 266 727 l 304 722 q 280 680 296 708 q 249 610 264 652 q 222 512 233 568 q 211 387 211 456 q 218 277 211 329 q 240 176 224 224 q 280 80 256 127 q 340 -14 305 33 l 290 -81 z "},")":{"ha":479,"x_min":140,"x_max":340,"o":"m 191 746 q 243 675 216 713 q 292 587 270 637 q 327 471 313 536 q 340 321 340 406 q 325 174 340 239 q 286 58 309 108 q 240 -27 264 8 q 201 -81 216 -62 l 176 -57 q 202 -14 186 -42 q 234 56 218 14 q 260 154 249 98 q 271 281 271 210 q 264 391 271 339 q 241 491 257 442 q 201 586 226 539 q 140 679 176 632 l 191 746 z "},"*":{"ha":579,"x_min":16,"x_max":551,"o":"m 275 478 q 315 458 304 477 q 325 411 325 439 q 322 376 325 395 q 317 340 320 358 q 312 306 314 322 q 309 278 309 290 q 312 259 309 267 q 323 252 315 252 q 342 260 331 252 q 367 280 353 268 q 396 306 380 292 q 428 331 412 319 q 460 351 444 343 q 492 359 477 359 q 513 354 503 359 q 531 340 523 349 q 545 322 540 332 q 551 300 551 311 q 537 268 551 283 q 502 242 523 254 q 457 220 481 230 q 412 202 433 211 q 377 187 391 194 q 363 174 363 180 q 376 161 363 167 q 409 149 389 155 q 453 134 429 142 q 496 115 476 126 q 529 90 516 104 q 543 55 543 75 q 537 27 543 39 q 525 9 532 16 q 509 -2 517 1 q 494 -5 500 -5 q 446 11 472 -5 q 396 46 420 27 q 353 82 372 66 q 323 98 333 98 q 317 86 317 98 q 319 61 317 77 q 325 28 322 46 q 331 -11 328 9 q 334 -50 334 -31 q 331 -80 334 -66 q 322 -105 328 -94 q 305 -122 316 -116 q 278 -129 294 -129 q 250 -123 261 -129 q 232 -107 238 -117 q 222 -83 225 -97 q 220 -52 220 -68 q 222 -14 220 -33 q 228 24 224 5 q 233 58 231 42 q 235 85 235 74 q 227 103 235 103 q 211 95 220 103 q 190 75 201 87 q 164 49 178 63 q 135 23 150 35 q 103 3 119 12 q 71 -5 87 -5 q 54 -1 63 -5 q 36 8 44 2 q 22 22 28 14 q 16 40 16 31 q 29 69 16 55 q 61 97 42 83 q 103 123 81 111 q 145 145 126 135 q 178 165 165 156 q 191 180 191 174 q 178 198 191 191 q 146 212 165 205 q 104 224 127 218 q 63 241 82 231 q 31 264 44 250 q 18 298 18 278 q 22 322 18 311 q 32 342 26 334 q 46 356 38 351 q 63 361 54 361 q 94 353 77 361 q 127 333 110 345 q 160 307 144 321 q 192 280 177 292 q 218 260 206 268 q 236 252 229 252 q 244 266 244 252 q 240 294 244 277 q 232 331 237 311 q 224 373 228 351 q 220 414 220 395 q 232 460 220 441 q 275 478 243 478 m 227 179 q 231 158 227 168 q 243 141 235 149 q 260 128 250 133 q 280 123 269 123 q 300 128 290 123 q 316 139 309 132 q 328 156 323 146 q 332 175 332 165 q 327 196 332 186 q 316 214 323 206 q 299 227 309 222 q 278 232 289 232 q 259 228 268 232 q 242 216 250 223 q 231 199 235 208 q 227 179 227 189 z "},"+":{"ha":667,"x_min":81,"x_max":583,"o":"m 359 572 l 359 349 l 583 349 l 583 292 l 359 292 l 359 68 l 302 68 l 302 292 l 81 292 l 81 349 l 302 349 l 302 572 l 359 572 z "},",":{"ha":262,"x_min":57,"x_max":208,"o":"m 208 -5 q 57 -175 208 -123 l 57 -151 q 131 -106 99 -139 q 158 -65 149 -87 q 167 -21 167 -44 q 155 0 167 0 q 134 -7 147 0 q 121 -13 126 -11 q 111 -16 115 -16 q 57 41 57 -16 q 61 66 57 55 q 77 85 66 77 q 122 102 96 102 q 180 75 156 102 q 208 -5 208 43 z "},"-":{"ha":349,"x_min":41,"x_max":306,"o":"m 41 161 l 41 239 l 306 239 l 306 161 l 41 161 z "},".":{"ha":435,"x_min":129,"x_max":248,"o":"m 248 45 q 230 2 248 19 q 187 -16 213 -16 q 164 -11 175 -16 q 146 2 154 -6 q 134 21 138 10 q 129 45 129 32 q 134 67 129 57 q 146 86 138 78 q 164 98 154 94 q 187 103 175 103 q 211 98 200 103 q 230 86 222 94 q 243 67 238 78 q 248 45 248 57 z "},"/":{"ha":368,"x_min":45,"x_max":325,"o":"m 86 -176 l 45 -176 l 282 843 l 325 844 l 86 -176 z "},":":{"ha":406,"x_min":139,"x_max":267,"o":"m 203 126 q 224 120 213 126 q 245 104 235 114 q 260 84 254 95 q 267 62 267 73 q 260 41 267 52 q 245 20 254 30 q 224 5 235 11 q 203 -1 213 -1 q 181 5 193 -1 q 161 20 170 11 q 145 41 151 30 q 139 62 139 52 q 145 84 139 73 q 161 104 151 95 q 181 120 170 114 q 203 126 193 126 m 203 393 q 224 387 213 393 q 245 371 235 380 q 260 350 254 361 q 267 329 267 338 q 260 308 267 319 q 245 287 254 296 q 224 271 235 277 q 203 265 213 265 q 181 271 193 265 q 161 287 170 277 q 145 308 151 296 q 139 329 139 319 q 145 350 139 338 q 161 371 151 361 q 181 387 170 380 q 203 393 193 393 z "},";":{"ha":292,"x_min":87,"x_max":240,"o":"m 216 427 q 200 386 216 404 q 181 375 191 378 q 160 371 172 371 q 119 387 137 371 q 103 427 103 405 q 119 467 103 452 q 160 484 136 484 q 200 467 184 484 q 216 427 216 452 m 240 -5 q 87 -175 240 -123 l 87 -151 q 163 -106 130 -139 q 197 -21 197 -68 q 186 0 197 0 q 177 -2 182 0 q 164 -7 172 -3 q 151 -13 157 -11 q 142 -16 146 -16 q 87 41 87 -16 q 107 85 87 68 q 154 102 128 102 q 211 75 186 102 q 240 -5 240 44 z "},"<":{"ha":522,"x_min":96,"x_max":427,"o":"m 380 35 l 96 319 l 380 606 l 427 606 l 142 319 l 427 35 l 380 35 z "},"=":{"ha":667,"x_min":45,"x_max":639,"o":"m 639 379 l 45 379 l 45 447 l 639 447 l 639 379 m 639 193 l 45 193 l 45 261 l 639 261 l 639 193 z "},">":{"ha":522,"x_min":96,"x_max":427,"o":"m 142 35 l 96 35 l 380 319 l 96 606 l 142 606 l 427 319 l 142 35 z "},"?":{"ha":465,"x_min":47,"x_max":424,"o":"m 424 547 q 410 478 424 509 q 376 419 397 447 q 331 365 355 391 q 285 309 307 338 q 249 243 264 279 q 232 163 234 208 l 211 163 q 231 280 213 224 q 281 388 250 335 q 314 460 301 422 q 328 541 328 498 q 320 593 328 568 q 299 637 313 618 q 262 669 284 657 q 210 681 240 681 q 178 677 195 681 q 147 665 161 673 q 122 644 132 657 q 113 614 113 631 q 118 591 113 604 q 129 567 123 579 q 139 544 134 555 q 144 525 144 533 q 133 495 144 508 q 104 482 122 482 q 79 490 90 482 q 61 510 68 498 q 51 536 54 522 q 47 562 47 550 q 64 628 47 600 q 106 673 80 656 q 165 700 132 691 q 232 708 198 708 q 304 699 269 708 q 365 669 338 689 q 408 620 392 650 q 424 547 424 589 m 282 43 q 266 3 282 19 q 225 -14 249 -14 q 184 2 201 -14 q 167 43 167 18 q 172 66 167 55 q 184 84 176 77 q 203 97 193 92 q 225 102 214 102 q 266 84 249 102 q 282 43 282 67 z "},"@":{"ha":965,"x_min":50,"x_max":939,"o":"m 939 87 q 874 -43 919 15 q 769 -142 829 -101 q 638 -204 709 -182 q 496 -227 568 -227 q 316 -192 398 -227 q 176 -96 235 -157 q 83 48 117 -35 q 50 228 50 132 q 86 422 50 332 q 186 581 122 513 q 339 687 250 648 q 533 726 427 726 q 680 702 613 726 q 796 633 747 678 q 871 523 844 588 q 899 376 899 458 q 891 293 899 336 q 867 210 883 250 q 828 135 852 170 q 773 74 804 100 q 703 32 742 47 q 616 17 663 17 q 559 35 579 17 q 539 90 539 52 q 542 126 539 108 q 547 161 544 144 q 508 117 531 142 q 458 70 485 92 q 402 32 431 47 q 346 17 374 17 q 305 27 322 17 q 276 55 288 38 q 260 93 265 72 q 254 134 254 113 q 265 207 254 167 q 294 286 275 246 q 339 363 313 326 q 396 430 366 401 q 463 476 427 458 q 534 493 498 493 q 624 422 608 493 l 639 478 l 720 490 q 708 453 717 482 q 687 383 699 423 q 662 296 675 342 q 638 209 649 250 q 620 135 627 167 q 612 90 612 102 q 624 64 612 75 q 652 53 636 53 q 693 60 673 53 q 730 80 713 68 q 762 109 747 93 q 790 141 777 125 q 849 257 831 194 q 867 386 867 320 q 841 517 867 458 q 771 616 816 575 q 667 679 727 657 q 536 701 606 701 q 410 683 469 701 q 302 631 351 664 q 215 552 254 598 q 151 452 177 507 q 111 337 125 398 q 97 214 97 277 q 126 48 97 123 q 207 -80 155 -26 q 334 -164 260 -134 q 498 -195 408 -195 q 633 -175 570 -195 q 748 -118 696 -155 q 840 -29 800 -81 q 909 87 881 23 l 939 87 m 604 386 q 602 417 604 402 q 592 444 599 432 q 572 463 585 456 q 541 469 559 469 q 490 452 515 469 q 442 407 465 435 q 399 343 419 378 q 366 273 380 309 q 343 205 351 237 q 335 150 335 172 q 339 125 335 138 q 350 101 342 112 q 368 84 357 91 q 393 78 379 78 q 449 94 422 78 q 499 136 475 110 q 542 195 522 162 q 575 263 561 229 q 596 329 589 297 q 604 386 604 361 z "},"A":{"ha":753,"x_min":8,"x_max":745,"o":"m 471 0 l 471 20 q 494 21 482 20 q 517 28 507 23 q 534 41 527 33 q 541 64 541 50 q 532 102 541 77 q 514 152 524 126 q 494 200 504 178 q 479 232 484 222 l 211 232 q 202 214 208 227 q 189 185 197 201 q 174 152 182 170 q 160 117 167 134 q 150 86 154 100 q 146 64 146 72 q 155 42 146 50 q 176 28 163 33 q 203 22 189 24 q 227 20 216 20 l 227 0 l 8 0 l 8 20 q 50 31 33 20 q 81 59 68 42 q 104 97 94 76 q 122 138 113 117 l 367 708 l 385 708 l 625 134 q 645 90 635 110 q 667 55 654 70 q 698 30 680 39 q 745 20 716 21 l 745 0 l 471 0 m 347 551 l 227 269 l 465 269 l 347 551 z "},"B":{"ha":681,"x_min":18,"x_max":640,"o":"m 640 189 q 627 118 640 149 q 592 67 614 88 q 540 33 570 46 q 478 13 511 20 q 411 3 445 5 q 345 0 376 0 l 18 0 l 18 20 q 70 24 51 20 q 100 40 90 28 q 113 71 110 51 q 117 122 117 91 l 117 571 q 114 624 117 604 q 101 655 111 644 q 71 671 91 667 q 18 675 52 675 l 18 693 l 317 693 q 382 690 349 693 q 449 681 416 688 q 511 661 481 673 q 562 627 540 648 q 597 577 584 606 q 610 507 610 547 q 600 454 610 478 q 573 410 590 429 q 533 376 556 391 q 484 354 510 362 q 547 335 518 348 q 596 303 575 323 q 629 255 617 283 q 640 189 640 227 m 501 513 q 484 581 501 553 q 439 626 467 609 q 377 651 412 644 q 309 659 343 659 q 261 656 285 659 q 215 648 238 654 l 215 382 q 264 376 239 376 q 313 375 289 375 q 382 381 349 375 q 443 402 416 387 q 485 445 469 418 q 501 513 501 471 m 522 182 q 503 257 522 227 q 452 305 483 287 q 382 331 421 323 q 306 339 344 339 q 262 339 284 339 q 215 335 239 338 l 215 50 q 274 40 245 43 q 334 36 303 36 q 402 44 368 36 q 462 69 435 52 q 506 114 489 86 q 522 182 522 142 z "},"C":{"ha":699,"x_min":37,"x_max":661,"o":"m 661 163 q 544 31 614 79 q 375 -17 473 -17 q 235 10 298 -17 q 129 85 173 37 q 61 197 85 132 q 37 336 37 261 q 63 481 37 414 q 135 599 88 549 q 246 679 181 650 q 390 708 311 708 q 439 704 416 708 q 483 694 462 701 q 526 680 505 688 q 570 661 547 671 q 587 666 580 661 q 600 677 595 671 q 607 693 604 684 q 612 708 610 701 l 631 708 l 646 473 l 631 473 q 598 553 618 517 q 550 616 578 589 q 484 657 522 642 q 399 672 447 672 q 315 658 351 672 q 251 620 279 644 q 205 563 224 595 q 175 493 186 530 q 159 415 164 455 q 154 335 154 374 q 169 218 154 273 q 215 120 184 162 q 296 54 247 78 q 414 29 345 29 q 490 39 457 29 q 550 68 523 50 q 600 114 576 87 q 646 174 623 140 l 661 163 z "},"D":{"ha":755,"x_min":18,"x_max":715,"o":"m 715 350 q 686 196 715 262 q 605 87 657 131 q 482 22 553 43 q 328 0 411 0 l 18 0 l 18 20 q 70 24 51 20 q 100 39 90 28 q 113 70 110 50 q 117 122 117 90 l 117 571 q 114 624 117 604 q 101 655 111 644 q 71 671 91 667 q 18 675 52 675 l 18 693 l 300 693 q 463 677 387 693 q 595 621 539 661 q 683 515 651 581 q 715 350 715 450 m 600 346 q 582 466 600 410 q 529 564 564 522 q 441 630 493 606 q 321 654 389 654 q 268 650 294 654 q 215 639 241 646 l 215 50 q 268 39 239 43 q 323 35 296 35 q 443 59 391 35 q 529 126 494 84 q 582 225 564 169 q 600 346 600 282 z "},"E":{"ha":639,"x_min":22,"x_max":616,"o":"m 555 0 l 22 0 l 22 20 q 74 24 55 20 q 104 39 94 28 q 117 70 114 50 q 121 122 121 90 l 121 574 q 118 626 121 606 q 105 656 115 646 q 75 671 95 667 q 22 675 56 675 l 22 693 l 555 693 l 564 542 l 545 542 q 528 597 536 575 q 507 632 520 619 q 471 650 494 645 q 410 656 448 656 l 218 656 l 218 382 l 371 382 q 422 386 403 382 q 453 402 441 391 q 471 432 465 413 q 481 482 477 452 l 500 482 l 500 240 l 481 240 q 471 290 477 271 q 454 322 465 310 q 423 338 442 334 q 371 343 404 343 l 218 343 l 218 115 q 219 82 218 96 q 226 57 220 67 q 243 42 231 47 q 277 37 255 37 l 393 37 q 468 45 439 37 q 518 68 497 52 q 557 111 540 85 q 595 174 574 137 l 616 174 l 555 0 z "},"F":{"ha":582,"x_min":17,"x_max":541,"o":"m 522 542 q 500 598 512 576 q 470 633 488 620 q 428 651 452 646 q 368 656 403 656 l 214 656 l 214 383 l 340 383 q 382 389 366 383 q 408 408 398 395 q 423 437 418 420 q 431 478 428 455 l 450 478 l 450 243 l 431 243 q 426 286 431 267 q 411 316 422 304 q 384 334 401 328 q 340 340 366 340 l 214 340 l 214 122 q 217 70 214 90 q 230 39 220 50 q 261 24 241 28 q 314 20 281 20 l 314 0 l 17 0 l 17 20 q 70 24 50 20 q 100 40 90 28 q 113 71 110 51 q 115 122 115 91 l 115 571 q 112 622 115 602 q 99 654 109 642 q 69 670 89 666 q 17 675 50 675 l 17 693 l 533 693 l 541 542 l 522 542 z "},"G":{"ha":755,"x_min":36,"x_max":742,"o":"m 742 359 q 698 353 713 359 q 675 333 682 346 q 666 301 667 320 q 664 258 664 282 l 664 46 q 546 -2 608 14 q 419 -17 484 -17 q 270 7 340 -17 q 148 76 200 31 q 66 187 96 121 q 36 336 36 252 q 64 481 36 414 q 142 600 92 549 q 259 679 191 650 q 404 708 326 708 q 471 703 438 708 q 536 686 504 698 q 547 683 538 686 q 568 676 557 680 q 589 669 579 672 q 599 665 598 665 q 611 670 606 665 q 619 682 616 675 q 623 696 622 689 q 625 708 625 703 l 643 708 l 661 490 l 643 490 q 609 566 629 532 q 561 624 589 600 q 496 661 533 648 q 414 673 460 673 q 297 647 346 673 q 216 576 248 621 q 169 475 184 532 q 154 358 154 418 q 170 237 154 298 q 219 129 186 177 q 302 50 252 80 q 421 20 352 20 q 495 29 458 20 q 564 57 531 38 l 564 258 q 561 306 564 287 q 549 336 558 325 q 522 353 539 348 q 473 359 504 359 l 473 378 l 742 378 l 742 359 z "},"H":{"ha":755,"x_min":18,"x_max":734,"o":"m 437 0 l 437 20 q 490 24 470 20 q 520 40 510 28 q 534 71 531 51 q 538 122 538 91 l 538 335 l 214 335 l 214 122 q 217 70 214 90 q 231 39 220 50 q 262 24 242 28 q 315 20 282 20 l 315 0 l 18 0 l 18 20 q 71 24 52 20 q 101 39 91 28 q 114 70 111 50 q 117 122 117 90 l 117 571 q 114 623 117 603 q 100 654 111 643 q 71 670 90 666 q 18 675 51 675 l 18 693 l 315 693 l 315 675 q 263 670 283 675 q 232 654 243 666 q 217 623 221 643 q 214 571 214 603 l 214 372 l 538 372 l 538 571 q 534 623 538 603 q 520 654 531 643 q 490 670 510 666 q 437 675 470 675 l 437 693 l 734 693 l 734 675 q 685 671 704 675 q 655 657 665 667 q 640 628 644 646 q 636 579 636 609 l 636 115 q 640 65 636 84 q 655 36 644 46 q 685 23 665 26 q 734 20 704 20 l 734 0 l 437 0 z "},"I":{"ha":349,"x_min":26,"x_max":323,"o":"m 26 0 l 26 20 q 79 24 60 20 q 109 40 99 28 q 122 71 119 51 q 125 122 125 91 l 125 571 q 122 623 125 603 q 109 654 119 643 q 79 670 99 666 q 26 675 60 675 l 26 693 l 323 693 l 323 675 q 271 670 291 675 q 241 654 252 666 q 227 623 231 643 q 224 571 224 603 l 224 122 q 227 71 224 91 q 240 40 230 51 q 270 24 250 28 q 323 20 290 20 l 323 0 l 26 0 z "},"J":{"ha":408,"x_min":22,"x_max":401,"o":"m 401 675 q 349 670 368 675 q 319 654 329 666 q 306 623 309 643 q 302 571 302 603 l 302 232 q 294 144 302 189 q 266 64 286 100 q 211 6 245 28 q 125 -17 177 -17 q 89 -13 107 -17 q 56 2 71 -8 q 32 26 41 12 q 22 62 22 41 q 74 115 22 115 q 98 108 88 115 q 115 91 108 101 q 128 68 123 81 q 139 45 134 56 q 152 28 145 35 q 167 21 158 21 q 188 30 180 21 q 199 50 195 38 q 203 75 203 62 q 204 97 204 87 l 204 571 q 201 622 204 602 q 188 654 198 642 q 158 670 178 666 q 104 675 138 675 l 104 693 l 401 693 l 401 675 z "},"K":{"ha":755,"x_min":18,"x_max":765,"o":"m 435 0 l 435 20 q 454 21 444 20 q 472 26 464 22 q 486 37 481 30 q 492 54 492 43 q 487 67 492 60 q 476 83 483 75 q 464 98 470 91 q 453 109 457 104 l 244 317 l 214 286 l 214 122 q 217 70 214 90 q 230 39 220 50 q 260 24 241 28 q 313 20 280 20 l 313 0 l 18 0 l 18 20 q 71 24 52 20 q 100 39 90 28 q 113 70 110 50 q 115 122 115 90 l 115 571 q 113 622 115 602 q 100 654 110 642 q 71 670 90 666 q 18 675 52 675 l 18 693 l 313 693 l 313 675 q 261 670 281 675 q 231 654 242 666 q 217 623 220 643 q 214 571 214 603 l 214 353 q 251 386 227 363 q 306 435 276 408 q 367 494 336 463 q 424 554 398 525 q 466 607 450 583 q 482 646 482 631 q 478 663 482 656 q 467 671 475 669 q 447 674 459 674 q 419 675 435 675 l 419 693 l 675 693 l 675 675 q 601 654 637 675 q 531 604 564 633 q 469 543 497 574 q 419 490 440 511 l 313 385 l 570 131 q 614 89 593 108 q 658 56 635 70 q 707 32 681 41 q 765 20 732 23 l 765 0 l 435 0 z "},"L":{"ha":639,"x_min":20,"x_max":618,"o":"m 558 0 l 20 0 l 20 20 q 63 23 44 20 q 95 35 82 26 q 114 61 107 44 q 121 106 121 78 l 121 587 q 114 631 121 614 q 95 657 107 648 q 63 670 82 667 q 20 673 44 673 l 20 693 l 321 693 l 321 673 q 277 670 296 673 q 245 657 258 667 q 225 631 232 648 q 218 587 218 614 l 218 131 q 222 89 218 105 q 236 62 227 72 q 263 48 246 52 q 306 45 280 45 l 375 45 q 459 51 425 45 q 518 72 493 56 q 562 117 543 88 q 600 192 581 146 l 618 189 l 558 0 z "},"M":{"ha":932,"x_min":18,"x_max":909,"o":"m 614 0 l 614 20 q 666 24 646 20 q 695 39 685 28 q 709 70 706 50 q 713 121 713 90 l 713 583 l 444 0 l 428 0 l 160 583 l 160 121 q 163 69 160 89 q 177 38 167 50 q 207 23 187 27 q 258 20 226 20 l 258 0 l 18 0 l 18 20 q 70 24 51 20 q 99 39 89 28 q 112 70 109 50 q 115 121 115 90 l 115 574 q 111 621 115 602 q 96 652 106 640 q 66 669 85 664 q 18 675 47 675 l 18 693 l 214 693 l 465 151 l 713 693 l 909 693 l 909 675 q 857 671 877 675 q 827 655 838 667 q 814 625 817 644 q 811 574 811 605 l 811 121 q 814 69 811 89 q 828 38 818 50 q 858 23 838 27 q 909 20 877 20 l 909 0 l 614 0 z "},"N":{"ha":755,"x_min":5,"x_max":742,"o":"m 742 675 q 690 671 709 675 q 660 655 670 667 q 646 625 649 644 q 643 574 643 605 l 643 -11 l 625 -11 l 167 547 l 167 121 q 170 68 167 88 q 183 38 173 49 q 213 23 193 27 q 265 20 233 20 l 265 0 l 24 0 l 24 20 q 76 24 56 20 q 105 39 95 28 q 119 70 115 50 q 122 121 122 90 l 122 603 q 98 634 109 621 q 74 656 87 647 q 45 670 62 665 q 5 675 29 675 l 5 693 l 175 693 l 599 174 l 599 574 q 595 625 599 605 q 582 655 592 644 q 552 671 571 667 q 500 675 532 675 l 500 693 l 742 693 l 742 675 z "},"O":{"ha":755,"x_min":36,"x_max":715,"o":"m 715 350 q 691 210 715 276 q 622 93 667 143 q 515 13 578 42 q 375 -17 452 -17 q 235 12 298 -17 q 128 91 172 41 q 60 208 83 141 q 36 349 36 274 q 61 489 36 424 q 133 603 87 555 q 243 680 179 652 q 383 708 307 708 q 519 679 458 708 q 624 601 581 650 q 692 487 668 552 q 715 350 715 422 m 599 343 q 595 420 599 381 q 582 496 591 460 q 556 565 572 533 q 515 621 540 597 q 455 658 490 644 q 372 672 420 672 q 296 658 329 672 q 239 621 263 644 q 198 565 214 597 q 172 497 182 533 q 158 424 162 462 q 154 351 154 387 q 158 279 154 317 q 172 204 162 241 q 199 134 182 168 q 239 76 215 101 q 297 36 264 51 q 374 21 330 21 q 453 35 419 21 q 513 72 488 48 q 554 126 538 95 q 581 194 571 158 q 595 268 591 229 q 599 343 599 306 z "},"P":{"ha":582,"x_min":18,"x_max":546,"o":"m 546 501 q 527 408 546 445 q 474 349 507 371 q 396 319 441 328 q 302 310 352 310 q 259 311 281 310 q 214 315 238 311 l 214 122 q 217 70 214 90 q 232 39 221 50 q 262 24 242 28 q 314 20 281 20 l 314 0 l 18 0 l 18 20 q 70 24 51 20 q 100 39 90 28 q 113 70 110 50 q 115 122 115 90 l 115 571 q 113 624 115 604 q 100 655 110 644 q 71 671 90 667 q 18 675 52 675 l 18 693 l 271 693 q 367 685 317 693 q 455 655 416 677 q 520 597 495 634 q 546 501 546 559 m 429 492 q 419 554 429 525 q 391 606 410 584 q 345 640 372 627 q 282 653 317 653 q 248 650 265 653 q 214 643 231 646 l 214 350 q 256 345 235 347 q 298 343 277 343 q 353 356 329 343 q 394 389 377 368 q 420 436 411 410 q 429 492 429 463 z "},"Q":{"ha":755,"x_min":36,"x_max":715,"o":"m 715 346 q 698 228 715 284 q 647 126 680 172 q 567 46 614 80 q 461 -7 520 12 q 508 -74 482 -43 q 565 -130 534 -106 q 632 -170 595 -155 q 713 -189 669 -185 l 713 -205 q 597 -187 657 -203 q 480 -145 537 -171 q 373 -83 423 -119 q 285 -7 322 -48 q 97 126 159 37 q 36 347 36 214 q 61 488 36 422 q 132 603 86 554 q 241 680 178 652 q 382 708 304 708 q 519 679 458 708 q 625 600 581 650 q 692 485 668 550 q 715 346 715 419 m 599 334 q 595 409 599 370 q 581 486 591 448 q 554 557 571 524 q 513 616 538 591 q 454 656 488 641 q 375 671 420 671 q 297 657 331 671 q 239 619 263 643 q 198 563 214 595 q 172 495 182 531 q 158 421 162 459 q 154 347 154 383 q 158 274 154 312 q 172 200 162 236 q 199 131 182 163 q 240 74 216 98 q 298 34 264 49 q 375 20 332 20 q 485 48 441 20 q 553 122 528 77 q 589 223 578 167 q 599 334 599 279 z "},"R":{"ha":699,"x_min":18,"x_max":708,"o":"m 522 0 l 288 323 q 263 322 276 322 q 238 322 251 322 q 226 322 232 322 q 214 323 220 323 l 214 122 q 217 70 214 90 q 232 39 221 50 q 263 24 243 28 q 315 20 283 20 l 315 0 l 18 0 l 18 20 q 71 24 52 20 q 101 39 91 28 q 114 70 111 50 q 117 122 117 90 l 117 571 q 114 624 117 604 q 101 655 111 644 q 71 671 91 667 q 18 675 52 675 l 18 693 l 279 693 q 342 691 310 693 q 405 682 374 689 q 464 664 436 675 q 513 632 492 652 q 546 583 534 612 q 558 515 558 555 q 545 446 558 476 q 510 394 532 416 q 456 359 487 373 q 389 338 425 345 l 530 138 q 567 91 549 111 q 605 56 585 71 q 650 32 625 41 q 708 20 675 23 l 708 0 l 522 0 m 444 507 q 433 568 444 541 q 402 614 422 595 q 355 644 382 633 q 294 654 328 654 q 255 652 275 654 q 214 646 235 649 l 214 357 l 243 357 q 316 364 280 357 q 380 389 352 372 q 427 435 409 406 q 444 507 444 464 z "},"S":{"ha":582,"x_min":66,"x_max":526,"o":"m 526 178 q 508 96 526 132 q 459 35 490 60 q 390 -3 429 10 q 309 -17 351 -17 q 253 -11 281 -17 q 200 3 225 -4 q 155 17 176 11 q 122 24 135 24 q 108 20 114 24 q 99 10 102 16 q 93 -3 95 4 q 90 -17 92 -10 l 72 -17 l 72 222 l 90 222 q 111 142 96 178 q 153 79 127 105 q 215 38 178 53 q 297 24 251 24 q 347 31 322 24 q 391 52 372 38 q 422 88 410 66 q 435 138 435 109 q 419 192 435 168 q 377 236 403 216 q 318 276 351 257 q 251 313 285 294 q 183 353 216 332 q 124 400 150 374 q 82 456 98 425 q 66 526 66 487 q 83 603 66 569 q 127 660 100 637 q 192 696 155 684 q 268 708 228 708 q 315 702 292 708 q 360 689 338 696 q 399 675 381 682 q 428 669 416 669 q 441 673 436 669 q 451 683 447 677 q 457 696 455 689 q 461 708 460 703 l 481 708 l 481 469 l 461 469 q 444 546 458 510 q 405 609 429 583 q 347 652 381 636 q 269 668 313 668 q 224 661 246 668 q 185 639 203 653 q 158 606 168 625 q 147 562 147 587 q 163 511 147 534 q 207 468 180 488 q 267 430 233 448 q 337 394 301 412 q 406 354 372 375 q 467 307 440 333 q 510 250 494 281 q 526 178 526 218 z "},"T":{"ha":637,"x_min":25,"x_max":614,"o":"m 591 530 q 555 620 585 589 q 464 650 526 650 l 367 650 l 367 121 q 370 69 367 89 q 382 38 372 50 q 412 23 393 27 q 464 20 431 20 l 464 0 l 171 0 l 171 20 q 222 24 203 20 q 252 39 241 28 q 265 70 262 50 q 268 121 268 90 l 268 650 l 184 650 q 127 644 152 650 q 86 625 103 638 q 61 588 70 611 q 49 530 52 565 l 25 530 l 32 693 l 607 693 l 614 530 l 591 530 z "},"U":{"ha":755,"x_min":16,"x_max":746,"o":"m 746 675 q 695 669 715 675 q 665 651 675 664 q 650 617 654 638 q 646 567 646 597 l 646 285 q 632 158 646 214 q 588 63 619 102 q 506 4 557 24 q 378 -17 454 -17 q 240 4 293 -17 q 157 65 186 25 q 116 164 127 106 q 106 298 106 223 l 106 571 q 103 619 106 600 q 91 651 100 639 q 64 669 82 664 q 16 675 46 675 l 16 693 l 294 693 l 294 675 q 247 669 264 675 q 220 651 229 664 q 207 619 210 639 q 204 571 204 600 l 204 268 q 211 176 204 220 q 236 99 217 132 q 291 47 256 66 q 385 28 327 28 q 474 43 431 28 q 551 90 517 58 q 578 131 568 106 q 592 185 587 157 q 598 241 597 213 q 599 290 599 269 l 599 571 q 596 624 599 604 q 582 655 593 644 q 552 671 572 667 q 500 675 532 675 l 500 693 l 746 693 l 746 675 z "},"V":{"ha":755,"x_min":9,"x_max":743,"o":"m 743 675 q 705 663 722 671 q 677 641 689 654 q 656 611 665 628 q 639 575 647 595 l 397 -17 l 379 -17 l 119 582 q 101 620 110 604 q 80 648 92 636 q 52 666 68 659 q 9 675 35 672 l 9 693 l 292 693 l 292 675 q 268 672 281 674 q 242 665 254 670 q 223 651 231 660 q 215 627 215 642 q 222 589 215 608 q 239 547 229 571 l 415 142 l 579 545 q 587 562 583 552 q 594 584 591 572 q 600 605 597 595 q 603 624 603 616 q 595 646 603 637 q 576 661 587 655 q 552 670 565 667 q 529 675 539 673 l 529 693 l 743 693 l 743 675 z "},"W":{"ha":989,"x_min":14,"x_max":979,"o":"m 979 675 q 935 662 952 675 q 905 630 917 650 q 886 588 894 611 q 871 545 878 565 l 679 -17 l 657 -17 l 500 427 l 343 -17 l 323 -17 l 119 559 q 104 603 111 582 q 86 640 97 623 q 59 665 76 656 q 14 675 42 675 l 14 693 l 269 693 l 269 675 q 247 673 259 675 q 225 668 235 672 q 209 656 216 664 q 203 633 203 648 q 205 614 203 625 q 212 592 208 604 q 219 570 215 581 q 225 551 222 559 l 361 161 l 476 493 q 459 550 469 518 q 435 609 450 581 q 398 656 420 637 q 343 675 376 675 l 343 693 l 614 693 l 614 675 q 588 674 601 675 q 564 669 574 673 q 547 655 553 665 q 541 629 541 646 q 548 583 541 608 q 562 539 555 557 l 696 161 l 828 545 q 834 564 831 553 q 841 586 838 574 q 846 609 844 597 q 848 628 848 620 q 841 652 848 643 q 823 666 834 661 q 799 673 812 671 q 774 675 786 675 l 774 693 l 979 693 l 979 675 z "},"X":{"ha":755,"x_min":7,"x_max":743,"o":"m 446 0 l 446 20 q 467 21 455 20 q 490 26 479 22 q 508 38 500 30 q 515 58 515 45 q 505 87 515 66 q 477 135 494 108 q 442 191 461 161 q 406 245 422 220 q 377 287 389 270 q 364 306 366 304 l 218 119 q 209 106 214 114 q 199 91 203 99 q 191 74 194 83 q 187 58 187 66 q 194 38 187 46 q 211 26 201 31 q 233 21 221 22 q 254 20 244 20 l 254 0 l 7 0 l 7 20 q 58 32 33 21 q 104 58 82 42 q 144 95 125 75 q 178 134 163 115 l 343 342 l 205 542 q 169 592 187 568 q 130 633 151 615 q 83 662 109 650 q 22 675 57 673 l 22 693 l 343 693 l 343 675 q 321 672 334 674 q 297 667 309 671 q 278 655 286 663 q 271 635 271 647 q 279 607 271 625 q 301 567 288 589 q 331 522 315 545 q 361 477 347 498 q 387 441 376 456 q 401 421 398 427 q 417 440 404 425 q 447 475 430 454 q 484 521 465 496 q 519 568 503 545 q 546 609 536 591 q 557 637 557 628 q 548 657 557 650 q 528 668 540 665 q 503 673 515 672 q 482 675 490 674 l 482 693 l 728 693 l 728 675 q 674 663 697 673 q 633 637 652 653 q 599 602 615 622 q 566 559 583 582 l 427 385 l 576 163 q 608 115 592 139 q 644 70 625 90 q 688 36 664 50 q 743 20 712 22 l 743 0 l 446 0 z "},"Y":{"ha":755,"x_min":9,"x_max":742,"o":"m 742 675 q 690 665 711 675 q 651 638 668 654 q 620 601 633 622 q 591 557 606 579 l 424 294 l 424 121 q 427 69 424 89 q 441 38 431 50 q 470 23 451 27 q 522 20 490 20 l 522 0 l 228 0 l 228 20 q 279 24 260 20 q 308 39 298 28 q 321 70 318 50 q 323 121 323 90 l 323 285 l 135 575 q 112 610 124 592 q 84 642 99 627 q 51 666 69 656 q 9 675 33 675 l 9 693 l 306 693 l 306 675 q 281 673 295 675 q 255 668 267 672 q 235 654 243 663 q 227 629 227 645 q 239 595 227 620 q 271 538 252 570 q 313 472 290 507 q 354 409 335 438 q 387 361 374 380 q 401 339 401 341 l 539 553 q 549 569 543 559 q 558 588 554 578 q 566 607 563 597 q 570 625 570 617 q 563 649 570 640 q 546 664 556 659 q 524 672 536 670 q 500 675 511 675 l 500 693 l 742 693 l 742 675 z "},"Z":{"ha":639,"x_min":14,"x_max":610,"o":"m 578 0 l 14 0 l 14 20 l 457 653 l 236 653 q 173 646 197 653 q 133 623 148 639 q 109 582 117 608 q 94 519 100 556 l 75 519 l 90 693 l 603 693 l 147 41 l 431 41 q 497 51 471 41 q 542 80 524 61 q 572 125 559 98 q 595 186 584 152 l 610 183 l 578 0 z "},"[":{"ha":468,"x_min":131,"x_max":328,"o":"m 318 -164 l 131 -136 l 131 710 l 318 737 l 328 684 l 200 664 l 200 -89 l 328 -110 l 318 -164 z "},"\\":{"ha":292,"x_min":1,"x_max":294,"o":"m 253 -16 l 1 726 l 46 726 l 294 -16 l 253 -16 z "},"]":{"ha":468,"x_min":127,"x_max":328,"o":"m 140 -167 l 127 -114 l 258 -93 l 258 661 l 127 682 l 140 736 l 328 708 l 328 -139 l 140 -167 z "},"^":{"ha":1007,"x_min":240,"x_max":766,"o":"m 704 9 l 504 550 l 302 9 l 240 9 l 472 614 l 534 614 l 766 9 l 704 9 z "},"_":{"ha":504,"x_min":0,"x_max":504,"o":"m 0 -118 l 0 -81 l 504 -81 l 504 -118 l 0 -118 z "},"`":{"ha":393,"x_min":61,"x_max":300,"o":"m 257 533 l 107 628 q 61 673 61 656 q 93 713 61 713 q 154 679 120 713 l 300 533 l 257 533 z "},"a":{"ha":465,"x_min":37,"x_max":464,"o":"m 464 68 q 443 41 454 55 q 417 16 431 27 q 387 -2 403 5 q 353 -9 370 -9 q 326 -3 336 -9 q 309 15 315 4 q 301 40 303 26 q 298 68 298 54 q 264 41 281 54 q 229 16 248 27 q 191 -2 211 5 q 149 -9 172 -9 q 101 0 122 -9 q 66 25 81 9 q 45 63 52 41 q 37 111 37 85 q 51 163 37 140 q 85 207 64 187 q 135 242 107 227 q 192 271 163 258 q 249 293 221 283 q 298 310 277 302 l 298 329 q 295 375 298 353 q 283 414 292 397 q 256 441 273 431 q 211 452 239 452 q 174 445 188 452 q 153 427 160 439 q 144 399 146 415 q 142 364 142 383 q 133 328 142 341 q 98 315 124 315 q 65 329 75 315 q 56 364 56 342 q 73 418 56 396 q 115 455 90 441 q 170 476 140 469 q 227 482 200 482 q 301 474 271 482 q 349 446 331 465 q 375 396 368 427 q 383 322 383 366 l 383 163 q 383 121 383 143 q 386 81 382 100 q 392 63 388 71 q 408 56 397 56 q 422 61 414 56 q 438 73 430 66 q 453 86 446 79 q 464 97 460 94 l 464 68 m 298 281 q 245 259 275 271 q 188 229 214 246 q 142 189 161 212 q 123 135 123 165 q 128 105 123 120 q 142 77 133 90 q 165 58 152 65 q 196 50 179 50 q 223 55 210 50 q 251 67 237 60 q 276 84 264 75 q 298 102 288 94 l 298 281 z "},"b":{"ha":524,"x_min":-4,"x_max":488,"o":"m 488 253 q 470 153 488 201 q 421 67 453 104 q 345 7 390 30 q 245 -16 300 -16 q 156 2 199 -16 q 75 46 113 20 l 75 529 q 76 563 75 541 q 75 606 77 585 q 65 644 73 628 q 39 660 57 660 q 21 657 29 660 q 3 653 12 655 l -4 671 l 138 726 l 161 726 l 161 387 q 190 423 174 406 q 224 453 206 440 q 264 474 243 467 q 309 482 285 482 q 389 461 355 482 q 445 408 422 441 q 477 334 467 375 q 488 253 488 294 m 399 224 q 392 286 399 254 q 369 346 385 319 q 328 392 353 374 q 267 410 303 410 q 237 405 252 410 q 209 392 222 400 q 184 375 196 385 q 161 355 172 366 l 161 75 q 211 38 183 52 q 272 24 239 24 q 332 44 308 24 q 372 95 357 64 q 393 160 387 125 q 399 224 399 195 z "},"c":{"ha":465,"x_min":35,"x_max":431,"o":"m 431 178 q 408 106 425 141 q 367 45 392 72 q 308 1 341 18 q 235 -16 275 -16 q 146 6 184 -16 q 84 64 109 28 q 47 144 59 100 q 35 233 35 189 q 50 327 35 282 q 95 407 66 372 q 165 462 124 441 q 258 482 207 482 q 310 475 282 482 q 361 454 338 468 q 401 418 385 439 q 418 370 418 397 q 405 336 418 347 q 370 326 391 326 q 336 335 347 326 q 320 358 325 345 q 313 388 315 372 q 305 417 311 404 q 284 440 298 431 q 241 449 270 449 q 184 433 208 449 q 146 392 161 417 q 126 337 132 367 q 119 278 119 307 q 127 206 119 243 q 154 138 136 169 q 201 86 172 106 q 271 66 230 66 q 321 76 299 66 q 361 102 344 86 q 392 140 378 119 q 415 184 405 161 l 431 178 z "},"d":{"ha":524,"x_min":35,"x_max":528,"o":"m 386 -16 l 364 -16 l 364 53 q 301 4 336 23 q 227 -16 267 -16 q 145 5 181 -16 q 85 58 109 25 q 47 132 60 91 q 35 214 35 173 q 50 310 35 262 q 95 396 66 358 q 167 458 125 435 q 262 482 210 482 q 317 473 291 482 q 364 443 343 464 l 364 541 q 365 571 364 551 q 363 611 366 591 q 353 645 361 631 q 328 660 345 660 q 310 658 318 660 q 292 653 301 656 l 285 671 l 427 726 l 449 726 l 449 184 q 448 164 449 177 q 448 137 448 151 q 449 107 448 122 q 454 80 450 92 q 466 60 458 68 q 486 53 474 53 q 504 55 494 53 q 522 61 513 58 l 528 43 l 386 -16 m 364 330 q 356 374 364 352 q 333 413 348 395 q 299 441 319 430 q 256 452 279 452 q 195 432 219 452 q 156 383 170 412 q 135 319 141 353 q 129 256 129 285 q 136 186 129 223 q 160 116 144 149 q 204 63 177 84 q 272 41 232 41 q 323 55 300 41 q 364 89 347 69 l 364 330 z "},"e":{"ha":465,"x_min":39,"x_max":435,"o":"m 435 171 q 414 101 430 134 q 372 41 397 67 q 314 0 347 16 q 243 -16 281 -16 q 154 5 193 -16 q 90 61 116 26 q 52 140 64 96 q 39 229 39 184 q 52 326 39 280 q 92 406 65 372 q 160 461 119 441 q 256 482 201 482 q 331 468 298 482 q 387 428 364 454 q 422 368 410 403 q 435 292 435 333 l 111 292 q 121 214 111 254 q 153 143 132 175 q 206 90 174 111 q 282 69 238 69 q 331 78 309 69 q 369 101 352 86 q 398 137 385 117 q 419 182 410 158 l 435 171 m 328 321 q 322 367 328 345 q 303 407 316 389 q 272 435 291 424 q 227 446 253 446 q 180 435 200 446 q 145 407 159 425 q 122 367 130 390 q 111 321 113 345 l 328 321 z "},"f":{"ha":349,"x_min":39,"x_max":456,"o":"m 456 639 q 452 624 456 631 q 443 611 448 616 q 429 601 437 605 q 414 597 422 597 q 384 612 397 597 q 357 643 371 626 q 327 675 344 661 q 286 689 311 689 q 252 679 265 689 q 231 652 239 669 q 219 616 222 636 q 215 574 216 595 q 214 534 214 553 q 215 501 215 515 l 215 468 l 336 468 l 336 431 l 215 431 l 215 123 q 219 67 215 88 q 234 36 222 47 q 267 23 245 26 q 323 20 288 20 l 323 0 l 41 0 l 41 20 q 90 25 72 20 q 116 44 107 31 q 128 76 125 56 q 131 123 131 96 l 131 431 l 39 431 l 39 468 l 131 468 l 131 500 q 143 586 131 545 q 180 658 155 627 q 241 708 204 689 q 326 726 277 726 q 366 721 344 726 q 408 704 389 715 q 442 676 428 692 q 456 639 456 660 z "},"g":{"ha":524,"x_min":31,"x_max":504,"o":"m 504 427 q 493 406 504 412 q 468 400 483 401 q 438 401 454 399 q 411 403 422 403 q 432 358 426 383 q 439 310 439 334 q 424 241 439 271 q 382 192 408 212 q 323 161 357 172 q 254 151 290 151 q 219 154 237 151 q 183 161 201 156 q 157 136 170 151 q 144 104 144 122 q 160 82 144 89 q 200 73 175 75 q 256 70 224 70 q 321 68 288 70 q 387 62 355 67 q 443 46 418 58 q 483 13 468 34 q 498 -43 498 -8 q 486 -100 498 -74 q 454 -146 474 -125 q 407 -182 433 -167 q 351 -207 380 -197 q 292 -222 321 -217 q 236 -227 262 -227 q 202 -224 223 -227 q 159 -217 182 -222 q 113 -204 136 -212 q 72 -185 90 -196 q 42 -160 54 -174 q 31 -129 31 -146 q 42 -95 31 -115 q 68 -57 53 -76 q 99 -22 83 -39 q 125 4 115 -5 q 110 14 118 8 q 94 28 102 20 q 82 44 87 35 q 77 61 77 52 q 85 91 77 75 q 107 122 94 107 q 134 150 120 137 q 158 171 148 163 q 121 195 138 180 q 93 229 104 210 q 75 269 81 248 q 69 313 69 290 q 84 384 69 352 q 125 437 100 415 q 185 470 151 458 q 256 482 218 482 q 299 476 278 482 q 342 464 321 471 q 384 451 363 457 q 427 446 405 446 q 454 447 440 446 q 481 449 467 449 q 499 446 494 449 q 504 427 504 444 m 349 296 q 344 348 349 319 q 328 400 340 376 q 297 441 317 425 q 248 457 277 457 q 204 446 222 457 q 177 417 187 435 q 162 378 167 400 q 158 335 158 357 q 162 283 158 311 q 179 231 167 255 q 211 192 191 208 q 261 176 231 176 q 304 186 288 176 q 331 214 321 197 q 345 252 341 231 q 349 296 349 273 m 461 -62 q 457 -45 461 -52 q 445 -32 452 -37 q 429 -24 438 -27 q 411 -18 420 -20 q 357 -11 391 -14 q 286 -6 323 -8 q 212 -3 248 -5 q 153 0 176 -2 q 137 -19 146 -8 q 121 -41 129 -29 q 109 -65 114 -53 q 104 -90 104 -78 q 115 -117 104 -106 q 141 -137 125 -129 q 177 -151 157 -145 q 216 -159 197 -156 q 254 -163 236 -162 q 282 -164 271 -164 q 336 -160 305 -164 q 395 -144 367 -155 q 442 -113 422 -132 q 461 -62 461 -93 z "},"h":{"ha":524,"x_min":5,"x_max":518,"o":"m 288 0 l 288 20 q 325 23 311 20 q 348 35 340 26 q 360 58 357 43 q 363 96 363 73 l 363 279 q 362 326 363 301 q 355 371 361 350 q 332 405 348 391 q 288 419 317 419 q 254 413 270 419 q 222 398 237 408 q 195 377 208 389 q 171 353 182 365 l 171 96 q 173 58 171 73 q 184 34 176 43 q 207 23 192 26 q 245 20 221 20 l 245 0 l 14 0 l 14 20 q 50 23 36 20 q 73 36 64 27 q 83 60 81 45 q 86 96 86 75 l 86 590 q 85 610 86 598 q 81 634 84 623 q 71 653 77 645 q 52 661 64 661 q 33 659 42 661 q 14 653 23 656 l 5 671 l 147 726 l 171 726 l 171 385 q 201 423 184 405 q 236 454 217 441 q 278 475 256 467 q 326 482 301 482 q 396 461 371 482 q 432 410 420 441 q 447 341 444 378 q 449 271 449 304 l 449 96 q 451 60 449 75 q 461 36 454 45 q 482 23 469 27 q 518 20 496 20 l 518 0 l 288 0 z "},"i":{"ha":292,"x_min":32,"x_max":268,"o":"m 205 628 q 191 591 205 606 q 154 575 176 575 q 117 590 132 575 q 102 628 102 605 q 117 664 102 650 q 154 679 132 679 q 190 664 175 679 q 205 628 205 649 m 39 0 l 39 20 q 76 23 62 20 q 98 35 90 26 q 109 59 106 44 q 111 96 111 73 l 111 346 q 110 367 111 355 q 106 389 109 378 q 95 408 102 400 q 75 415 87 415 q 57 413 66 415 q 39 407 48 410 l 32 425 l 174 482 l 196 482 l 196 96 q 199 59 196 73 q 209 35 201 44 q 231 23 217 26 q 268 20 245 20 l 268 0 l 39 0 z "},"j":{"ha":292,"x_min":-81,"x_max":204,"o":"m 204 628 q 189 591 204 606 q 151 575 173 575 q 115 590 130 575 q 100 628 100 605 q 115 664 100 649 q 151 679 130 679 q 188 664 172 679 q 204 628 204 649 m 196 9 q 186 -78 196 -36 q 155 -154 177 -121 q 98 -207 134 -186 q 11 -227 63 -227 q -16 -224 0 -227 q -46 -215 -31 -221 q -71 -199 -60 -209 q -81 -175 -81 -189 q -68 -144 -81 -157 q -39 -131 -56 -131 q -8 -139 -21 -131 q 17 -158 5 -148 q 39 -176 28 -168 q 64 -184 50 -184 q 93 -169 83 -184 q 107 -133 103 -154 q 111 -90 111 -112 q 111 -56 111 -68 l 111 293 q 112 325 111 304 q 110 365 113 345 q 99 399 107 385 q 74 414 91 414 q 39 407 58 414 l 32 425 l 174 482 l 196 482 l 196 9 z "},"k":{"ha":524,"x_min":7,"x_max":529,"o":"m 302 0 l 302 20 q 313 20 307 20 q 323 22 319 20 q 332 28 328 24 q 335 37 335 31 q 328 59 335 49 q 315 78 321 69 l 172 258 l 172 106 q 174 65 172 81 q 183 38 176 48 q 205 24 190 28 q 248 20 220 20 l 248 0 l 7 0 l 7 20 q 48 23 33 20 q 72 36 64 26 q 82 61 80 45 q 85 103 85 77 l 85 541 q 85 559 85 548 q 85 585 85 571 q 84 612 85 598 q 79 636 83 625 q 68 654 75 648 q 50 661 61 661 q 33 659 41 661 q 17 653 25 656 l 7 671 l 149 726 l 172 726 l 172 269 l 290 370 q 302 380 294 373 q 319 395 311 387 q 333 412 327 404 q 339 427 339 420 q 327 447 339 441 q 302 453 314 452 l 302 468 l 505 468 l 505 453 q 466 449 484 452 q 434 439 449 446 q 405 422 419 432 q 375 397 391 412 l 252 288 l 375 134 q 399 102 387 118 q 425 73 412 87 q 452 46 437 58 q 485 24 467 34 q 507 20 492 20 q 529 20 522 20 l 529 0 l 302 0 z "},"l":{"ha":292,"x_min":31,"x_max":269,"o":"m 39 0 l 39 20 q 77 25 63 20 q 98 42 91 31 q 107 69 105 53 q 109 106 109 85 l 109 542 q 110 574 109 554 q 108 613 111 593 q 97 646 105 632 q 71 660 89 660 q 55 658 62 660 q 39 653 47 656 l 31 671 l 171 726 l 193 726 l 193 106 q 196 66 193 82 q 206 39 198 50 q 229 24 214 29 q 269 20 244 20 l 269 0 l 39 0 z "},"m":{"ha":815,"x_min":7,"x_max":811,"o":"m 579 0 l 579 20 q 622 24 606 20 q 644 38 637 28 q 653 65 651 48 q 654 106 654 81 l 654 309 q 651 348 654 328 q 640 385 648 368 q 616 411 631 401 q 576 421 601 421 q 542 416 559 421 q 510 401 526 410 q 481 380 495 392 q 456 357 468 369 l 456 106 q 458 65 456 81 q 467 38 460 48 q 490 24 475 28 q 532 20 505 20 l 532 0 l 294 0 l 294 20 q 337 24 322 20 q 360 38 353 28 q 369 64 368 47 q 371 106 371 81 l 371 309 q 368 349 371 329 q 356 386 364 370 q 332 412 347 402 q 292 422 316 422 q 257 417 273 422 q 225 402 240 411 q 196 381 210 393 q 171 357 183 369 l 171 106 q 173 65 171 81 q 182 38 175 48 q 205 24 190 28 q 248 20 221 20 l 248 0 l 16 0 l 16 20 q 55 25 41 20 q 76 40 68 30 q 84 67 83 51 q 86 106 86 83 l 86 296 q 87 326 86 306 q 85 366 87 346 q 75 400 83 386 q 50 415 67 415 q 33 413 41 415 q 16 407 24 410 l 7 425 l 149 482 l 171 482 l 171 383 q 205 418 187 401 q 243 450 223 436 q 285 473 262 465 q 334 482 307 482 q 413 456 384 482 q 453 383 441 430 q 487 420 469 402 q 524 451 504 437 q 566 474 543 465 q 616 482 589 482 q 679 467 654 482 q 717 427 703 452 q 735 372 730 403 q 741 309 741 340 l 741 106 q 743 68 741 84 q 752 41 745 52 q 773 25 759 31 q 811 20 787 20 l 811 0 l 579 0 z "},"n":{"ha":524,"x_min":5,"x_max":522,"o":"m 288 0 l 288 20 q 329 24 314 20 q 352 38 345 28 q 362 64 360 47 q 364 106 364 81 l 364 297 q 362 338 364 317 q 353 378 361 360 q 331 408 346 396 q 290 419 316 419 q 255 413 272 419 q 223 398 238 408 q 194 377 208 389 q 170 353 181 365 l 170 106 q 172 65 170 81 q 181 38 174 48 q 204 24 189 28 q 245 20 219 20 l 245 0 l 12 0 l 12 20 q 52 25 38 20 q 74 40 66 30 q 82 67 81 51 q 83 106 83 83 l 83 281 q 84 314 83 292 q 82 359 85 336 q 72 398 80 381 q 47 415 64 415 q 30 413 39 415 q 12 407 21 410 l 5 425 l 149 482 l 170 482 l 170 383 q 201 418 184 401 q 238 450 218 436 q 280 473 258 465 q 326 482 302 482 q 388 467 364 482 q 426 426 412 451 q 444 369 439 400 q 449 306 449 338 l 449 106 q 451 67 449 83 q 460 40 453 51 q 482 25 467 30 q 522 20 497 20 l 522 0 l 288 0 z "},"o":{"ha":524,"x_min":35,"x_max":488,"o":"m 488 243 q 472 145 488 192 q 426 63 456 98 q 353 6 396 27 q 257 -16 311 -16 q 165 5 206 -16 q 95 60 124 26 q 51 138 66 94 q 35 229 35 182 q 51 325 35 279 q 96 405 66 370 q 168 461 126 440 q 262 482 210 482 q 355 464 313 482 q 426 412 397 445 q 472 336 456 380 q 488 243 488 292 m 392 203 q 389 252 392 225 q 380 307 387 279 q 362 360 373 334 q 335 405 351 385 q 297 437 319 425 q 245 449 275 449 q 189 432 211 449 q 153 388 166 414 q 136 331 140 362 q 131 272 131 300 q 134 222 131 250 q 144 168 137 195 q 162 114 151 140 q 189 67 173 87 q 228 35 205 47 q 278 22 250 22 q 337 40 315 22 q 372 84 359 57 q 388 142 384 111 q 392 203 392 174 z "},"p":{"ha":524,"x_min":-5,"x_max":489,"o":"m 489 252 q 475 156 489 204 q 435 71 462 109 q 367 8 408 33 q 273 -16 327 -16 q 214 -5 242 -16 q 163 28 186 6 l 163 -115 q 165 -158 163 -141 q 175 -185 167 -175 q 198 -200 182 -195 q 241 -205 214 -205 l 241 -225 l -5 -225 l -5 -205 q 39 -200 23 -205 q 63 -186 56 -196 q 73 -158 71 -176 q 75 -113 75 -140 l 75 330 q 76 356 75 342 q 73 383 76 370 q 62 404 70 395 q 37 412 54 412 q 3 404 19 412 l -3 422 l 143 481 l 163 481 l 163 371 q 190 412 175 392 q 223 448 205 432 q 264 473 242 463 q 313 482 286 482 q 392 461 359 482 q 447 406 425 439 q 478 332 468 373 q 489 252 489 291 m 407 203 q 401 273 407 235 q 380 343 395 311 q 339 397 366 376 q 272 419 313 419 q 240 411 256 419 q 211 391 224 403 q 185 366 197 379 q 163 340 173 352 l 163 165 q 166 110 163 136 q 181 62 170 83 q 214 29 193 41 q 272 17 235 17 q 336 34 310 17 q 377 79 361 52 q 400 139 393 106 q 407 203 407 172 z "},"q":{"ha":524,"x_min":35,"x_max":525,"o":"m 288 -225 l 288 -205 q 328 -201 313 -205 q 351 -188 343 -197 q 362 -161 359 -178 q 364 -121 364 -145 l 364 82 q 333 47 350 65 q 296 16 315 30 q 255 -7 277 2 q 210 -16 233 -16 q 133 6 165 -16 q 78 61 100 27 q 45 135 56 94 q 35 214 35 175 q 51 315 35 267 q 99 401 68 364 q 175 460 130 438 q 277 482 220 482 q 328 475 302 482 q 372 449 353 469 q 431 482 404 463 l 449 482 l 449 -121 q 451 -161 449 -144 q 461 -187 454 -177 q 485 -201 469 -197 q 525 -205 500 -205 l 525 -225 l 288 -225 m 364 334 q 340 416 364 386 q 260 446 315 446 q 194 427 220 446 q 151 381 167 409 q 127 318 134 353 q 121 252 121 284 q 128 184 121 218 q 153 121 136 149 q 196 75 170 93 q 262 57 223 57 q 319 74 293 57 q 364 113 345 91 l 364 334 z "},"r":{"ha":358,"x_min":4,"x_max":357,"o":"m 357 425 q 343 392 357 406 q 310 378 329 378 q 289 384 298 378 q 270 396 279 389 q 253 408 260 402 q 237 414 245 414 q 217 404 227 414 q 197 381 206 394 q 180 355 188 368 q 170 335 173 342 l 170 109 q 186 42 170 64 q 252 20 203 20 l 252 0 l 9 0 l 9 20 q 51 24 36 20 q 73 38 65 28 q 82 65 80 48 q 83 106 83 81 l 83 294 q 83 319 83 302 q 81 353 83 335 q 77 386 80 370 q 68 408 74 401 q 41 414 57 414 q 9 407 26 414 l 4 425 l 149 482 l 170 482 l 170 376 q 191 411 178 393 q 218 445 203 429 q 251 472 233 461 q 290 482 269 482 q 315 478 302 482 q 336 467 327 475 q 351 449 345 460 q 357 425 357 439 z "},"s":{"ha":408,"x_min":52,"x_max":371,"o":"m 371 118 q 357 63 371 87 q 320 21 342 39 q 270 -6 298 3 q 214 -16 241 -16 q 180 -11 197 -16 q 146 1 163 -5 q 116 12 130 7 q 89 17 101 17 q 83 14 86 17 q 78 7 80 11 q 74 -1 75 3 q 71 -7 72 -5 l 53 -7 l 53 160 l 71 160 q 87 106 76 132 q 117 61 99 81 q 159 29 135 41 q 214 17 183 17 q 244 21 229 17 q 270 35 258 26 q 288 56 281 43 q 294 86 294 69 q 276 141 294 119 q 231 180 258 163 q 173 212 204 197 q 115 247 142 227 q 70 292 87 266 q 52 357 52 318 q 64 413 52 389 q 98 452 77 436 q 147 475 119 467 q 203 482 174 482 q 229 479 216 482 q 255 473 242 477 q 280 467 268 469 q 306 464 293 464 q 319 469 314 464 q 328 482 324 475 l 346 482 l 346 322 l 328 322 q 312 371 322 347 q 288 412 302 394 q 251 442 273 431 q 201 453 230 453 q 171 450 186 453 q 141 441 155 448 q 120 422 128 434 q 111 390 111 410 q 131 335 111 356 q 179 297 150 313 q 241 267 208 281 q 303 234 275 253 q 352 188 332 216 q 371 118 371 161 z "},"t":{"ha":292,"x_min":8,"x_max":292,"o":"m 292 86 q 275 49 286 67 q 249 16 264 31 q 215 -7 234 2 q 175 -16 197 -16 q 130 -5 148 -16 q 101 23 112 5 q 86 62 90 40 q 82 109 82 85 l 82 433 l 8 433 l 8 449 q 57 478 35 459 q 97 521 79 497 q 129 572 115 545 q 153 623 142 598 l 168 623 l 168 468 l 278 468 l 278 433 l 168 433 l 168 121 q 170 96 168 109 q 176 70 172 82 q 190 51 181 58 q 214 43 199 43 q 250 55 237 43 q 272 86 264 66 l 292 86 z "},"u":{"ha":524,"x_min":0,"x_max":525,"o":"m 383 -16 l 359 -16 l 359 85 q 326 50 344 68 q 289 18 309 33 q 247 -6 269 3 q 200 -16 224 -16 q 138 1 162 -16 q 101 45 115 18 q 84 104 88 71 q 79 167 79 136 l 79 376 q 75 414 79 399 q 62 436 71 428 q 37 446 52 444 q 0 449 22 449 l 0 468 l 165 468 l 165 155 q 169 116 165 135 q 180 82 172 97 q 204 58 189 67 q 243 49 219 49 q 276 55 260 49 q 307 71 292 61 q 335 92 322 80 q 359 115 349 104 l 359 380 q 355 415 359 402 q 341 436 351 429 q 318 446 332 444 q 283 449 303 449 l 283 468 l 444 468 l 444 123 q 445 104 444 116 q 449 80 446 92 q 458 61 452 69 q 476 53 465 53 q 518 61 497 53 l 525 43 l 383 -16 z "},"v":{"ha":524,"x_min":8,"x_max":514,"o":"m 514 449 q 487 444 498 448 q 469 432 476 439 q 456 413 461 424 q 444 387 450 401 l 279 -16 l 258 -16 l 90 382 q 76 410 83 399 q 59 429 68 422 q 38 441 50 437 q 8 449 26 446 l 8 468 l 229 468 l 229 449 q 208 448 218 449 q 191 444 198 448 q 178 433 183 441 q 174 412 174 426 q 177 391 174 401 q 184 371 180 380 l 293 113 l 403 382 q 410 402 407 391 q 414 425 414 414 q 408 439 414 435 q 395 446 403 444 q 377 449 387 448 q 361 449 368 449 l 361 468 l 514 468 l 514 449 z "},"w":{"ha":755,"x_min":5,"x_max":747,"o":"m 747 449 q 706 430 722 446 q 681 390 690 414 l 525 -16 l 504 -16 l 386 285 l 252 -16 l 232 -16 l 81 379 q 69 407 75 395 q 55 427 63 419 q 35 440 47 435 q 5 449 24 446 l 5 468 l 203 468 l 203 449 q 173 443 186 449 q 160 416 160 437 q 162 397 160 407 q 167 379 163 387 l 268 110 l 368 329 q 353 375 359 353 q 337 412 347 396 q 312 438 328 429 q 268 449 296 448 l 268 468 l 492 468 l 492 449 q 469 447 480 448 q 449 442 458 446 q 434 430 439 438 q 428 408 428 422 q 435 382 428 403 q 453 332 442 361 q 478 270 465 302 q 504 207 492 237 q 527 153 517 176 q 541 121 536 130 l 637 379 q 645 401 642 390 q 648 424 648 412 q 643 438 648 433 q 630 445 638 443 q 614 448 623 448 q 599 449 606 449 l 599 468 l 747 468 l 747 449 z "},"x":{"ha":524,"x_min":14,"x_max":511,"o":"m 290 0 l 290 20 q 306 21 298 20 q 321 25 314 22 q 332 34 328 28 q 336 49 336 39 q 330 65 336 54 q 313 93 323 77 q 291 127 303 109 q 268 160 279 144 q 248 189 256 176 q 235 207 239 201 q 220 189 230 201 q 197 161 210 176 q 172 129 185 146 q 149 97 159 113 q 132 69 138 81 q 125 50 125 57 q 129 35 125 41 q 140 26 134 29 q 155 21 147 22 q 171 20 163 20 l 171 0 l 18 0 l 18 20 q 46 30 33 20 q 73 54 60 40 q 96 82 85 67 q 115 107 107 97 l 214 237 l 125 367 q 102 398 113 384 q 80 424 92 413 q 52 441 68 435 q 14 449 36 448 l 14 468 l 235 468 l 235 449 l 229 449 q 206 445 216 450 q 196 424 196 439 q 205 401 196 418 q 226 366 214 385 q 249 331 238 347 q 265 307 260 314 q 282 331 270 314 q 308 366 295 347 q 331 401 321 385 q 340 425 340 418 q 337 437 340 433 q 328 445 334 442 q 315 448 322 448 q 302 449 309 449 l 302 468 l 461 468 l 461 449 q 408 427 434 448 q 359 378 382 406 q 317 320 336 350 q 285 273 298 291 l 401 107 q 424 76 413 91 q 447 48 435 60 q 475 28 460 36 q 511 20 490 21 l 511 0 l 290 0 z "},"y":{"ha":524,"x_min":5,"x_max":518,"o":"m 518 449 q 491 441 502 448 q 472 426 480 435 q 459 404 465 416 q 449 379 454 392 l 258 -89 q 233 -137 248 -113 q 197 -182 218 -162 q 153 -214 177 -201 q 100 -227 128 -227 q 74 -223 87 -227 q 52 -212 62 -219 q 37 -193 43 -204 q 31 -168 31 -182 q 45 -133 31 -143 q 82 -122 59 -122 q 101 -125 92 -122 q 119 -131 110 -127 q 137 -138 128 -135 q 154 -140 146 -140 q 180 -131 168 -140 q 202 -105 192 -121 q 222 -72 213 -90 q 238 -35 231 -53 q 250 -3 245 -18 q 258 20 255 12 l 90 372 q 76 399 83 386 q 58 422 68 412 q 36 440 48 433 q 5 449 23 447 l 5 468 l 225 468 l 225 449 q 205 448 215 449 q 186 445 195 448 q 172 435 178 441 q 167 415 167 428 q 173 387 167 401 q 184 359 178 372 l 298 123 l 403 383 q 410 401 407 393 q 414 421 414 410 q 409 437 414 431 q 398 446 405 443 q 382 449 391 448 q 366 449 374 449 l 366 468 l 518 468 l 518 449 z "},"z":{"ha":465,"x_min":21,"x_max":449,"o":"m 134 35 l 306 35 q 363 39 342 35 q 396 55 384 43 q 413 88 408 67 q 422 143 418 109 l 440 143 l 433 0 l 21 0 l 21 20 l 332 433 l 178 433 q 130 430 149 433 q 99 416 111 427 q 81 388 87 406 q 72 339 75 369 l 53 339 l 56 468 l 449 468 l 449 449 l 134 35 z "},"{":{"ha":366,"x_min":47,"x_max":283,"o":"m 281 701 q 217 694 240 701 q 181 673 193 688 q 166 635 169 658 q 163 581 163 612 l 163 330 q 154 281 163 303 q 133 243 144 258 q 113 218 122 227 q 103 208 103 210 q 133 172 120 192 q 154 133 144 155 q 163 85 163 111 l 163 -170 q 167 -224 163 -202 q 185 -259 172 -245 q 222 -278 198 -273 q 283 -285 245 -284 l 283 -326 q 190 -313 224 -326 q 138 -279 155 -300 q 117 -229 121 -257 q 113 -170 113 -201 l 113 85 q 102 132 113 111 q 80 170 92 154 q 58 196 68 186 q 47 208 47 206 q 58 217 47 209 q 80 240 68 225 q 102 278 92 256 q 113 330 113 301 l 113 581 q 117 639 113 609 q 138 693 121 669 q 189 733 155 718 q 279 749 222 749 l 281 701 z "},"|":{"ha":210,"x_min":82,"x_max":126,"o":"m 82 -227 l 82 726 l 126 726 l 126 -227 l 82 -227 z "},"}":{"ha":366,"x_min":83,"x_max":318,"o":"m 253 330 q 263 278 253 301 q 286 240 273 256 q 308 217 298 225 q 318 208 318 209 q 308 196 318 206 q 286 170 298 186 q 263 132 273 154 q 253 85 253 111 l 253 -170 q 249 -230 253 -201 q 228 -280 245 -258 q 177 -314 211 -301 q 83 -326 143 -326 l 83 -285 q 144 -278 121 -284 q 180 -259 168 -273 q 198 -224 193 -245 q 203 -170 203 -202 l 203 85 q 212 133 203 111 q 233 172 222 155 q 264 208 247 192 q 254 218 264 210 q 233 243 245 227 q 212 281 222 258 q 203 330 203 303 l 203 581 q 200 635 203 612 q 185 673 197 658 q 150 694 173 688 q 85 701 126 701 l 87 749 q 177 733 144 749 q 227 693 210 718 q 248 639 243 669 q 253 581 253 609 l 253 330 z "},"~":{"ha":570,"x_min":21,"x_max":550,"o":"m 550 322 q 525 281 539 301 q 493 245 511 261 q 453 220 475 230 q 406 211 431 211 q 343 223 374 211 q 282 249 313 235 q 221 274 252 262 q 160 286 191 286 q 123 277 139 286 q 93 254 106 268 q 69 222 80 239 q 49 189 58 205 l 21 227 q 46 270 33 248 q 76 309 59 292 q 115 337 94 326 q 165 347 137 347 q 227 335 195 347 q 292 308 260 323 q 355 281 325 294 q 411 269 386 269 q 447 277 431 269 q 477 298 464 286 q 502 328 491 311 q 521 361 513 345 l 550 322 z "},"":{"ha":644,"x_min":0,"x_max":607,"o":"m 607 135 q 564 69 586 98 q 516 21 543 41 q 455 -7 490 2 q 375 -17 421 -17 q 269 3 318 -17 q 180 60 219 24 q 115 147 142 96 q 78 257 89 197 l 1 257 l 22 307 l 72 307 q 71 322 71 315 q 71 336 71 329 q 71 355 71 346 q 72 374 72 364 l 0 374 l 21 424 l 79 424 q 118 537 91 485 q 185 627 144 589 q 277 687 225 665 q 390 708 329 708 q 463 694 433 708 q 515 661 494 680 q 533 665 526 661 q 547 677 541 670 q 556 693 552 684 q 561 708 559 701 l 579 708 l 591 507 l 576 507 q 549 570 566 541 q 509 623 532 600 q 458 659 486 646 q 399 672 431 672 q 309 652 346 672 q 248 597 272 631 q 211 517 224 562 q 193 424 199 473 l 519 424 l 498 374 l 189 374 q 188 354 189 363 q 187 335 187 345 q 188 321 187 328 q 189 307 188 315 l 481 307 l 460 257 l 193 257 q 216 166 200 208 q 259 94 232 125 q 324 46 286 64 q 414 29 362 29 q 514 61 472 29 q 591 146 555 93 l 607 135 z "},"":{"ha":349,"x_min":98,"x_max":254,"o":"m 254 0 q 244 -59 254 -33 q 217 -105 235 -85 q 176 -139 200 -125 q 122 -163 151 -153 l 122 -142 q 151 -122 136 -134 q 179 -98 166 -111 q 199 -69 191 -85 q 207 -35 207 -53 q 204 -15 207 -25 q 189 -4 201 -4 q 169 -8 178 -4 q 150 -12 159 -12 q 130 -8 139 -12 q 113 4 120 -3 q 102 21 106 12 q 98 41 98 31 q 104 67 98 56 q 120 86 110 78 q 142 98 130 94 q 167 102 154 102 q 203 93 186 102 q 231 69 219 83 q 248 37 242 55 q 254 0 254 18 z "},"":{"ha":524,"x_min":1,"x_max":511,"o":"m 511 653 q 503 624 511 635 q 476 612 495 612 q 453 619 462 612 q 444 640 444 625 q 450 659 444 649 q 456 672 456 668 q 450 684 456 681 q 437 686 445 686 q 409 672 421 686 q 387 634 396 657 q 372 583 378 611 q 362 529 366 555 q 356 480 358 503 q 351 447 353 458 l 441 447 l 433 414 l 345 414 q 305 232 329 321 q 257 52 281 142 q 242 1 251 29 q 221 -58 233 -28 q 194 -117 210 -88 q 160 -169 179 -146 q 116 -206 140 -192 q 62 -220 92 -220 q 20 -206 39 -220 q 1 -167 1 -193 q 10 -135 1 -147 q 40 -122 19 -122 q 63 -130 52 -122 q 74 -150 74 -138 q 67 -166 74 -159 q 61 -179 61 -174 q 65 -187 61 -185 q 75 -189 70 -189 q 106 -174 93 -189 q 129 -139 119 -159 q 145 -97 139 -118 q 154 -62 151 -75 q 178 43 168 -10 q 199 150 188 97 q 228 282 212 217 q 261 414 244 348 l 172 414 l 179 447 q 198 449 186 448 q 220 452 209 450 q 242 456 232 454 q 258 464 252 459 q 279 495 270 473 q 297 544 288 517 q 317 600 306 571 q 345 653 329 629 q 385 692 361 677 q 441 708 408 708 q 466 705 454 708 q 489 694 479 701 q 505 677 499 688 q 511 653 511 667 z "},"":{"ha":464,"x_min":35,"x_max":435,"o":"m 435 -1 q 425 -60 435 -34 q 398 -105 415 -85 q 356 -139 380 -125 q 302 -164 332 -154 l 302 -142 q 331 -123 316 -134 q 358 -99 346 -112 q 379 -70 371 -85 q 387 -36 387 -54 q 384 -16 387 -26 q 368 -5 380 -5 q 349 -9 359 -5 q 330 -12 340 -12 q 294 4 309 -12 q 279 41 279 20 q 285 66 279 55 q 299 85 290 77 q 321 97 309 93 q 346 102 333 102 q 382 93 366 102 q 411 69 399 83 q 429 36 422 54 q 435 -1 435 18 m 191 0 q 181 -59 191 -33 q 153 -105 171 -85 q 111 -139 136 -125 q 57 -163 87 -153 l 57 -142 q 86 -122 71 -134 q 114 -98 101 -111 q 135 -69 127 -85 q 143 -35 143 -53 q 142 -25 143 -30 q 140 -15 142 -20 q 134 -7 138 -10 q 123 -4 130 -4 q 105 -8 114 -4 q 86 -12 96 -12 q 49 4 63 -12 q 35 41 35 20 q 55 86 35 70 q 102 102 75 102 q 138 93 122 102 q 166 69 155 83 q 184 37 178 55 q 191 0 191 18 z "},"":{"ha":1389,"x_min":139,"x_max":1215,"o":"m 203 126 q 224 120 213 126 q 245 104 235 114 q 260 84 254 95 q 267 62 267 73 q 260 41 267 52 q 245 20 254 30 q 224 5 235 11 q 203 -1 213 -1 q 181 5 193 -1 q 161 20 170 11 q 145 41 151 30 q 139 62 139 52 q 145 84 139 73 q 161 104 151 95 q 181 120 170 114 q 203 126 193 126 m 677 126 q 698 120 687 126 q 719 104 709 114 q 735 84 729 95 q 742 62 742 73 q 735 41 742 52 q 719 20 729 30 q 698 5 709 11 q 677 -1 687 -1 q 657 5 668 -1 q 636 20 646 11 q 620 41 627 30 q 614 62 614 52 q 620 84 614 73 q 636 104 627 95 q 657 120 646 114 q 677 126 668 126 m 1153 126 q 1173 120 1162 126 q 1194 104 1184 114 q 1209 84 1203 95 q 1215 62 1215 73 q 1209 41 1215 52 q 1194 20 1203 30 q 1173 5 1184 11 q 1153 -1 1162 -1 q 1132 5 1143 -1 q 1111 20 1120 11 q 1094 41 1101 30 q 1088 62 1088 52 q 1094 84 1088 73 q 1111 104 1101 95 q 1132 120 1120 114 q 1153 126 1143 126 z "},"":{"ha":524,"x_min":52,"x_max":472,"o":"m 472 467 q 457 430 472 443 q 419 418 441 418 q 381 423 399 418 q 345 436 363 429 q 308 449 327 443 q 268 457 290 456 q 281 391 269 422 q 319 338 292 359 q 293 201 302 270 q 278 63 283 132 q 272 -75 273 -6 q 268 -214 270 -144 l 250 -214 q 248 -76 250 -145 q 240 63 245 -6 q 225 202 235 133 q 197 338 215 271 q 222 364 213 351 q 237 391 231 377 q 245 422 243 406 q 250 457 248 438 q 212 450 231 456 q 176 437 194 444 q 140 424 158 430 q 104 418 123 418 q 65 429 79 418 q 52 467 52 441 q 56 487 52 477 q 67 503 60 496 q 84 514 75 510 q 104 518 94 518 q 137 512 120 518 q 172 498 154 505 q 210 484 191 490 q 250 476 229 477 q 243 521 250 500 q 227 564 235 543 q 210 606 218 585 q 203 652 203 627 q 217 697 203 677 q 260 717 232 717 q 283 711 273 717 q 301 696 294 705 q 312 675 308 687 q 315 652 315 664 q 308 608 315 629 q 292 565 301 586 q 276 521 283 543 q 268 476 269 499 q 307 483 288 477 q 345 497 326 490 q 381 511 363 505 q 418 517 399 517 q 456 503 439 517 q 472 467 472 488 z "},"":{"ha":524,"x_min":71,"x_max":453,"o":"m 453 -7 q 404 -54 453 -54 q 372 -49 388 -54 q 339 -38 356 -44 q 306 -26 323 -31 q 271 -20 289 -20 q 277 -59 271 -40 q 292 -97 284 -78 q 307 -134 300 -115 q 314 -172 314 -153 q 300 -211 314 -195 q 262 -227 286 -227 q 242 -222 252 -227 q 226 -209 233 -217 q 215 -191 219 -201 q 211 -171 211 -181 q 216 -136 211 -155 q 229 -98 222 -117 q 242 -58 235 -78 q 252 -20 249 -38 q 214 -25 232 -20 q 180 -37 197 -31 q 149 -49 164 -43 q 119 -54 134 -54 q 72 -9 72 -54 q 85 26 72 16 q 122 37 98 37 q 154 32 138 37 q 185 21 170 27 q 218 9 201 14 q 252 4 234 4 q 244 32 248 20 q 236 52 241 43 q 223 68 231 60 q 201 86 215 76 q 239 166 227 123 q 252 254 252 210 q 241 338 252 296 q 201 412 231 380 q 223 431 215 422 q 236 450 231 440 q 244 472 241 460 q 252 500 248 484 q 217 493 233 498 q 183 481 200 487 q 150 470 167 475 q 115 465 134 465 q 71 510 71 465 q 115 554 71 554 q 149 549 132 554 q 182 537 165 544 q 217 525 199 531 q 252 518 234 519 q 244 558 251 538 q 230 596 238 577 q 216 633 222 615 q 210 671 210 652 q 224 710 210 694 q 262 726 239 726 q 300 710 290 726 q 311 668 311 694 q 306 635 311 653 q 293 598 300 618 q 279 559 286 579 q 271 518 273 538 q 306 525 289 519 q 339 537 323 531 q 373 549 356 544 q 407 554 389 554 q 441 543 429 554 q 453 509 453 532 q 439 475 453 486 q 404 464 426 464 q 371 469 387 464 q 337 479 354 473 q 304 491 321 486 q 271 500 288 497 q 276 472 273 484 q 284 450 279 460 q 299 431 290 440 q 319 412 307 422 q 282 334 294 376 q 271 248 271 292 q 282 163 271 205 q 319 86 294 122 q 286 50 296 68 q 271 3 275 32 q 305 9 288 3 q 338 21 321 14 q 371 32 354 27 q 404 37 387 37 q 438 25 424 37 q 453 -7 453 13 z "},"":{"ha":328,"x_min":0,"x_max":328,"o":"m 292 533 l 164 642 l 36 533 l 0 533 l 132 708 l 197 708 l 328 533 l 292 533 z "},"":{"ha":1105,"x_min":18,"x_max":1088,"o":"m 1088 260 q 1082 200 1088 232 q 1063 138 1076 169 q 1034 80 1051 108 q 993 31 1016 52 q 942 -3 970 9 q 880 -16 913 -16 q 780 23 810 -16 q 749 129 749 61 q 767 216 749 172 q 818 295 786 260 q 890 353 849 330 q 977 375 931 375 q 1021 366 1000 375 q 1056 341 1041 357 q 1079 304 1071 326 q 1088 260 1088 283 m 711 260 q 697 169 711 218 q 657 80 684 121 q 591 12 630 39 q 504 -16 553 -16 q 403 23 434 -16 q 372 129 372 61 q 391 216 372 172 q 441 295 410 260 q 513 353 472 330 q 599 375 554 375 q 644 366 623 375 q 680 341 665 357 q 703 304 694 326 q 711 260 711 283 m 161 -17 l 111 -17 l 517 664 q 459 628 491 640 q 393 615 428 615 q 317 628 353 615 q 321 587 321 607 q 315 533 321 562 q 300 476 310 505 q 274 420 290 447 q 238 373 258 393 q 193 340 218 352 q 138 328 168 328 q 82 340 105 328 q 45 374 60 353 q 25 422 31 395 q 18 478 18 449 q 34 560 18 519 q 76 635 49 602 q 141 690 103 669 q 222 711 178 711 q 255 700 237 711 q 296 676 274 689 q 345 651 319 663 q 399 640 370 640 q 442 645 425 640 q 473 660 459 650 q 501 683 488 669 q 532 713 515 696 l 595 713 l 161 -17 m 1060 254 q 1056 286 1060 271 q 1042 314 1051 302 q 1019 334 1033 326 q 987 342 1006 342 q 942 329 963 342 q 903 294 920 315 q 871 245 885 273 q 848 190 857 218 q 833 135 838 161 q 828 87 828 108 q 845 38 828 58 q 893 17 863 17 q 940 28 918 17 q 981 59 962 40 q 1014 103 999 79 q 1039 155 1029 128 q 1055 207 1049 181 q 1060 254 1060 233 m 684 254 q 679 286 684 271 q 665 314 674 302 q 642 334 656 326 q 611 342 629 342 q 566 329 587 342 q 527 294 545 315 q 495 245 509 272 q 472 189 481 218 q 457 134 462 161 q 452 87 452 108 q 468 38 452 58 q 517 17 485 17 q 564 28 542 17 q 604 59 586 40 q 637 103 623 79 q 663 155 652 128 q 678 207 673 181 q 684 254 684 233 m 294 587 q 294 612 294 599 q 288 636 293 626 q 254 657 270 646 q 224 682 237 669 q 170 648 193 675 q 130 586 146 621 q 105 514 114 551 q 97 450 97 477 q 99 421 97 437 q 106 392 100 406 q 122 369 111 378 q 150 359 132 359 q 193 371 173 359 q 229 401 212 382 q 257 445 245 420 q 277 494 269 469 q 290 544 286 519 q 294 587 294 568 z "},"":{"ha":582,"x_min":66,"x_max":526,"o":"m 526 178 q 508 96 526 132 q 459 35 490 60 q 390 -3 429 10 q 309 -17 351 -17 q 253 -11 281 -17 q 200 3 225 -4 q 155 17 176 11 q 122 24 135 24 q 108 20 114 24 q 99 10 102 16 q 93 -3 95 4 q 90 -17 92 -10 l 72 -17 l 72 222 l 90 222 q 111 142 96 178 q 153 79 127 105 q 215 38 178 53 q 297 24 251 24 q 347 31 322 24 q 391 52 372 38 q 422 88 410 66 q 435 138 435 109 q 419 192 435 168 q 377 236 403 216 q 318 276 351 257 q 251 313 285 294 q 183 353 216 332 q 124 400 150 374 q 82 456 98 425 q 66 526 66 487 q 83 603 66 569 q 127 660 100 637 q 192 696 155 684 q 268 708 228 708 q 315 702 292 708 q 360 689 338 696 q 399 675 381 682 q 428 669 416 669 q 441 673 436 669 q 451 683 447 677 q 457 696 455 689 q 461 708 460 703 l 481 708 l 481 469 l 461 469 q 444 546 458 510 q 405 609 429 583 q 347 652 381 636 q 269 668 313 668 q 224 661 246 668 q 185 639 203 653 q 158 606 168 625 q 147 562 147 587 q 163 511 147 534 q 207 468 180 488 q 267 430 233 448 q 337 394 301 412 q 406 354 372 375 q 467 307 440 333 q 510 250 494 281 q 526 178 526 218 m 330 757 l 264 757 l 132 932 l 169 932 l 296 825 l 425 932 l 461 932 l 330 757 z "},"":{"ha":349,"x_min":61,"x_max":286,"o":"m 258 -4 l 61 237 l 258 478 l 286 478 l 161 237 l 286 -4 l 258 -4 z "},"":{"ha":349,"x_min":62,"x_max":288,"o":"m 90 -4 l 62 -4 l 187 236 l 62 478 l 90 478 l 288 236 l 90 -4 z "},"":{"ha":932,"x_min":39,"x_max":901,"o":"m 846 0 l 511 0 q 431 -4 471 0 q 351 -8 391 -8 q 219 21 277 -8 q 121 100 161 51 q 60 213 81 149 q 39 346 39 277 q 60 484 39 419 q 123 596 82 549 q 225 672 165 644 q 363 700 286 700 l 364 700 l 370 700 l 389 699 l 463 696 q 651 692 557 692 q 840 693 745 693 l 846 542 l 829 542 q 815 601 822 578 q 794 635 808 623 q 758 652 781 648 q 696 656 735 656 l 566 656 l 566 383 l 657 383 q 738 405 711 383 q 765 482 765 426 l 786 482 l 786 240 l 765 240 q 758 290 763 271 q 740 322 752 310 q 708 338 728 334 q 657 343 688 343 l 566 343 l 566 115 q 572 64 566 81 q 591 42 578 47 q 626 38 605 37 q 679 39 648 39 q 751 45 721 39 q 805 67 781 52 q 846 109 828 83 q 880 174 864 135 l 901 174 l 846 0 m 467 533 q 464 587 467 563 q 451 629 461 612 q 420 657 441 647 q 364 667 400 667 q 289 652 321 667 q 234 612 257 637 q 196 554 211 587 q 172 486 180 522 q 159 413 163 450 q 155 342 155 376 q 159 273 155 309 q 173 202 163 237 q 197 135 182 167 q 236 80 213 104 q 291 42 259 56 q 363 28 322 28 q 423 39 401 28 q 454 70 444 50 q 465 116 463 89 q 467 174 467 142 l 467 533 z "},"":{"ha":639,"x_min":14,"x_max":610,"o":"m 578 0 l 14 0 l 14 20 l 457 653 l 236 653 q 173 646 197 653 q 133 623 148 639 q 109 582 117 608 q 94 519 100 556 l 75 519 l 90 693 l 603 693 l 147 41 l 431 41 q 497 51 471 41 q 542 80 524 61 q 572 125 559 98 q 595 186 584 152 l 610 183 l 578 0 m 380 757 l 314 757 l 182 932 l 219 932 l 347 825 l 475 932 l 511 932 l 380 757 z "},"":{"ha":410,"x_min":103,"x_max":233,"o":"m 204 893 l 176 879 q 174 863 175 871 q 174 847 174 856 q 178 820 174 833 q 189 794 182 807 q 204 768 196 781 q 220 743 212 755 l 205 736 q 129 811 155 764 q 103 914 103 859 q 109 941 103 925 q 124 972 115 958 q 146 998 134 987 q 171 1008 159 1008 q 189 999 179 1008 q 207 977 198 989 q 223 953 216 965 q 233 937 231 941 l 204 893 z "},"":{"ha":410,"x_min":125,"x_max":256,"o":"m 154 850 l 182 864 q 184 879 183 871 q 184 895 184 887 q 180 922 184 909 q 170 949 176 936 q 155 975 163 962 q 139 999 147 987 l 153 1007 q 230 931 204 979 q 256 829 256 884 q 250 802 256 818 q 235 770 244 785 q 213 745 225 755 q 189 734 201 734 q 171 744 181 734 q 152 766 161 753 q 136 790 143 778 q 125 806 128 802 l 154 850 z "},"":{"ha":616,"x_min":103,"x_max":440,"o":"m 204 893 l 176 879 q 174 863 175 871 q 174 847 174 856 q 178 820 174 833 q 189 794 182 807 q 204 768 196 781 q 220 743 212 755 l 205 736 q 129 811 155 764 q 103 914 103 859 q 109 941 103 925 q 124 972 115 958 q 146 998 134 987 q 171 1008 159 1008 q 189 999 179 1008 q 207 977 198 989 q 223 953 216 965 q 233 937 231 941 l 204 893 m 411 893 l 383 879 q 381 863 382 871 q 380 847 380 856 q 385 820 380 833 q 396 794 389 807 q 411 768 403 781 q 427 743 419 755 l 412 736 q 336 811 361 764 q 310 914 310 859 q 316 941 310 925 q 331 972 321 958 q 353 998 341 987 q 378 1008 366 1008 q 395 999 386 1008 q 414 977 405 989 q 430 953 422 965 q 440 937 437 941 l 411 893 z "},"":{"ha":616,"x_min":125,"x_max":463,"o":"m 154 850 l 182 864 q 184 879 183 871 q 184 895 184 887 q 180 922 184 909 q 170 949 176 936 q 155 975 163 962 q 139 999 147 987 l 153 1007 q 230 931 204 979 q 256 829 256 884 q 250 802 256 818 q 235 770 244 785 q 213 745 225 755 q 189 734 201 734 q 171 744 181 734 q 152 766 161 753 q 136 790 143 778 q 125 806 128 802 l 154 850 m 361 850 l 389 864 q 391 879 390 871 q 392 895 392 887 q 388 922 392 909 q 377 949 383 936 q 362 975 370 962 q 346 999 354 987 l 359 1007 q 437 931 411 979 q 463 829 463 884 q 457 802 463 818 q 441 770 451 785 q 420 745 432 755 q 396 734 408 734 q 378 744 388 734 q 359 766 368 753 q 342 790 350 778 q 332 806 335 802 l 361 850 z "},"":{"ha":717,"x_min":126,"x_max":589,"o":"m 358 37 q 268 56 310 37 q 194 105 225 74 q 144 179 162 137 q 126 271 126 222 q 144 361 126 319 q 194 434 162 403 q 268 482 225 465 q 358 500 310 500 q 448 482 406 500 q 522 433 490 465 q 571 360 553 402 q 589 271 589 319 q 571 180 589 222 q 522 105 553 137 q 449 56 491 74 q 358 37 407 37 z "},"":{"ha":504,"x_min":-22,"x_max":518,"o":"m -22 231 l -22 269 l 518 269 l 518 231 l -22 231 z "},"":{"ha":1007,"x_min":0,"x_max":1007,"o":"m 0 231 l 0 269 l 1007 269 l 1007 231 l 0 231 z "},"":{"ha":349,"x_min":0,"x_max":349,"o":"m 349 687 q 337 646 347 666 q 313 610 328 626 q 279 585 298 594 q 237 575 260 575 q 191 583 209 575 q 159 600 174 591 q 128 616 144 609 q 87 624 112 624 q 66 620 76 624 q 47 608 56 615 q 34 593 39 602 q 27 575 28 584 l 0 575 q 15 617 5 597 q 39 651 24 637 q 72 673 53 665 q 116 682 92 682 q 152 674 136 682 q 182 659 168 667 q 213 643 197 650 q 249 635 229 635 q 295 649 274 635 q 321 687 315 662 l 349 687 z "},"":{"ha":1026,"x_min":17,"x_max":1008,"o":"m 806 281 l 806 298 q 838 302 825 298 q 856 313 850 305 q 865 334 863 321 q 867 366 867 347 l 867 618 l 708 281 l 693 281 l 534 612 l 534 367 q 537 332 534 345 q 546 311 539 318 q 567 301 553 303 q 602 298 580 298 l 602 281 l 444 281 l 444 298 q 476 302 465 298 q 494 314 488 306 q 501 335 500 322 q 503 367 503 348 l 503 610 q 501 641 503 628 q 494 661 500 653 q 477 671 488 668 q 444 675 465 675 l 444 693 l 591 693 l 730 401 l 867 693 l 1008 693 l 1008 675 l 1003 675 q 974 670 984 675 q 959 656 964 665 q 952 633 954 646 q 951 606 951 621 l 951 367 q 953 336 951 349 q 961 315 955 323 q 978 302 966 307 q 1008 298 989 298 l 1008 281 l 806 281 m 392 591 q 376 634 389 620 q 342 655 362 649 q 299 662 323 661 q 254 663 276 663 l 254 367 q 256 336 254 349 q 262 315 257 323 q 279 303 268 307 q 310 298 290 299 l 310 281 l 117 281 l 117 298 q 146 306 136 302 q 162 317 157 310 q 168 337 167 325 q 168 367 168 349 l 168 663 l 131 663 q 93 660 109 663 q 65 649 77 656 q 45 627 53 641 q 32 591 37 613 l 17 591 l 24 693 l 401 693 l 410 591 l 392 591 z "},"":{"ha":408,"x_min":47,"x_max":376,"o":"m 371 118 q 357 63 371 87 q 320 21 342 39 q 270 -6 298 3 q 214 -16 241 -16 q 180 -11 197 -16 q 146 1 163 -5 q 116 12 130 7 q 89 17 101 17 q 83 14 86 17 q 78 7 80 11 q 74 -1 75 3 q 71 -7 72 -5 l 53 -7 l 53 160 l 71 160 q 87 106 76 132 q 117 61 99 81 q 159 29 135 41 q 214 17 183 17 q 244 21 229 17 q 270 35 258 26 q 288 56 281 43 q 294 86 294 69 q 276 141 294 119 q 231 180 258 163 q 173 212 204 197 q 115 247 142 227 q 70 292 87 266 q 52 357 52 318 q 64 413 52 389 q 98 452 77 436 q 147 475 119 467 q 203 482 174 482 q 229 479 216 482 q 255 473 242 477 q 280 467 268 469 q 306 464 293 464 q 319 469 314 464 q 328 482 324 475 l 346 482 l 346 322 l 328 322 q 312 371 322 347 q 288 412 302 394 q 251 442 273 431 q 201 453 230 453 q 171 450 186 453 q 141 441 155 448 q 120 422 128 434 q 111 390 111 410 q 131 335 111 356 q 179 297 150 313 q 241 267 208 281 q 303 234 275 253 q 352 188 332 216 q 371 118 371 161 m 244 533 l 178 533 l 47 709 l 83 709 l 211 601 l 339 709 l 376 709 l 244 533 z "},"":{"ha":755,"x_min":35,"x_max":722,"o":"m 722 174 q 703 104 715 138 q 669 44 690 71 q 618 1 648 17 q 547 -16 589 -16 q 467 6 503 -16 q 411 68 430 28 q 339 6 380 28 q 248 -16 298 -16 q 156 4 195 -16 q 89 57 116 24 q 48 135 62 91 q 35 227 35 178 q 48 322 35 276 q 89 404 62 368 q 157 461 116 439 q 252 482 197 482 q 341 462 300 482 q 411 401 382 442 q 472 461 436 440 q 554 482 507 482 q 627 469 596 482 q 680 433 659 456 q 712 378 701 410 q 722 307 722 345 l 722 293 l 441 293 l 441 271 q 448 202 441 238 q 471 138 454 167 q 515 90 488 109 q 582 71 543 71 q 626 80 607 71 q 661 104 646 89 q 687 140 676 119 q 705 182 698 160 l 722 174 m 621 326 q 616 370 621 348 q 601 410 612 392 q 573 438 591 427 q 530 449 556 449 q 491 437 507 449 q 463 407 474 425 q 447 367 452 389 q 441 326 442 346 l 621 326 m 366 193 q 364 243 366 215 q 357 299 362 271 q 343 356 353 328 q 319 405 334 384 q 283 440 304 427 q 232 453 262 453 q 177 435 197 453 q 147 390 157 417 q 134 333 137 363 q 131 277 131 302 q 133 230 131 257 q 140 175 135 203 q 155 120 146 147 q 179 71 165 92 q 214 36 193 49 q 261 22 234 22 q 316 39 296 22 q 348 81 336 56 q 362 137 359 106 q 366 193 366 167 z "},"":{"ha":465,"x_min":21,"x_max":449,"o":"m 134 35 l 306 35 q 363 39 342 35 q 396 55 384 43 q 413 88 408 67 q 422 143 418 109 l 440 143 l 433 0 l 21 0 l 21 20 l 332 433 l 178 433 q 130 430 149 433 q 99 416 111 427 q 81 388 87 406 q 72 339 75 369 l 53 339 l 56 468 l 449 468 l 449 449 l 134 35 m 289 533 l 223 533 l 92 709 l 128 709 l 256 601 l 384 709 l 420 709 l 289 533 z "},"":{"ha":755,"x_min":9,"x_max":742,"o":"m 742 675 q 690 665 711 675 q 651 638 668 654 q 620 601 633 622 q 591 557 606 579 l 424 294 l 424 121 q 427 69 424 89 q 441 38 431 50 q 470 23 451 27 q 522 20 490 20 l 522 0 l 228 0 l 228 20 q 279 24 260 20 q 308 39 298 28 q 321 70 318 50 q 323 121 323 90 l 323 285 l 135 575 q 112 610 124 592 q 84 642 99 627 q 51 666 69 656 q 9 675 33 675 l 9 693 l 306 693 l 306 675 q 281 673 295 675 q 255 668 267 672 q 235 654 243 663 q 227 629 227 645 q 239 595 227 620 q 271 538 252 570 q 313 472 290 507 q 354 409 335 438 q 387 361 374 380 q 401 339 401 341 l 539 553 q 549 569 543 559 q 558 588 554 578 q 566 607 563 597 q 570 625 570 617 q 563 649 570 640 q 546 664 556 659 q 524 672 536 670 q 500 675 511 675 l 500 693 l 742 693 l 742 675 m 524 845 q 520 824 524 834 q 509 807 516 814 q 492 796 502 800 q 473 792 483 792 q 436 808 452 792 q 420 845 420 824 q 424 864 420 855 q 436 881 429 873 q 453 892 444 888 q 473 896 463 896 q 509 881 494 896 q 524 845 524 866 m 316 845 q 312 824 316 834 q 300 807 307 814 q 283 796 293 800 q 263 792 273 792 q 227 808 242 792 q 212 845 212 824 q 216 864 212 855 q 228 881 220 873 q 244 892 235 888 q 263 896 253 896 q 300 881 284 896 q 316 845 316 866 z "},"":{"ha":435,"x_min":0,"x_max":0,"o":""},"":{"ha":349,"x_min":116,"x_max":233,"o":"m 232 440 q 227 416 232 427 q 213 399 221 406 q 195 388 205 392 q 174 385 184 385 q 154 388 164 385 q 136 399 144 392 q 123 417 128 406 q 118 440 118 427 q 123 463 118 452 q 135 482 127 474 q 153 494 142 490 q 174 499 163 499 q 193 496 183 499 q 212 485 203 492 q 226 467 220 478 q 232 440 232 456 m 233 -154 q 216 -207 233 -189 q 173 -226 199 -226 q 153 -222 163 -226 q 135 -209 143 -218 q 121 -185 127 -199 q 116 -149 116 -170 q 116 -134 116 -143 q 118 -115 117 -125 l 164 300 l 184 300 l 229 -115 q 232 -140 231 -133 q 233 -154 233 -148 z "},"":{"ha":524,"x_min":64,"x_max":460,"o":"m 460 178 q 437 106 454 141 q 396 45 421 72 q 337 1 370 18 q 264 -16 304 -16 q 227 -12 245 -16 q 192 0 210 -7 l 122 -193 l 86 -193 l 163 17 q 117 59 136 35 q 86 111 98 83 q 69 170 75 139 q 64 233 64 201 q 79 327 64 282 q 124 407 95 372 q 195 462 153 441 q 288 482 236 482 q 330 478 310 482 l 403 677 l 439 677 l 364 468 q 392 452 378 463 q 419 429 407 442 q 439 401 431 416 q 447 370 447 386 q 434 336 447 347 q 399 326 420 326 q 367 333 378 326 q 352 351 357 340 q 346 375 347 361 q 339 403 344 389 l 225 90 q 261 73 242 79 q 300 66 280 66 q 351 76 328 66 q 390 102 373 86 q 421 140 408 119 q 444 184 434 161 l 460 178 m 315 437 q 271 449 295 449 q 213 433 237 449 q 176 392 190 417 q 155 337 161 367 q 149 278 149 307 q 159 193 149 235 q 199 115 170 150 l 315 437 z "},"":{"ha":524,"x_min":31,"x_max":500,"o":"m 500 155 q 485 96 496 126 q 456 42 474 66 q 412 3 437 18 q 353 -12 386 -12 q 306 -4 328 -12 q 264 15 284 3 q 224 42 243 27 q 186 71 205 56 q 170 41 179 56 q 149 15 161 26 q 123 -5 138 3 q 90 -12 108 -12 q 45 5 59 -12 q 31 53 31 23 q 55 112 31 91 q 115 134 79 134 q 137 133 125 134 q 158 129 148 132 q 160 146 159 138 q 160 163 160 154 q 156 250 160 207 q 149 338 153 294 l 50 338 l 50 386 l 149 386 q 144 436 147 411 q 142 488 142 462 q 154 569 142 530 q 191 640 167 609 q 251 689 215 671 q 332 708 286 708 q 378 701 355 708 q 419 681 401 694 q 450 648 438 667 q 461 603 461 629 q 450 574 461 588 q 422 561 438 561 q 396 570 404 561 q 386 591 389 578 q 382 620 383 604 q 376 648 382 635 q 358 670 371 661 q 319 679 346 679 q 271 665 290 679 q 243 631 253 652 q 230 585 233 610 q 227 536 227 560 q 230 460 227 498 q 237 386 234 422 l 370 386 l 370 338 l 237 338 q 236 281 237 309 q 232 227 235 254 q 223 174 229 200 q 207 119 217 147 q 243 108 221 115 q 289 94 265 101 q 336 83 313 87 q 372 78 358 78 q 481 160 457 78 l 500 155 m 153 87 q 109 102 134 102 q 74 91 87 102 q 61 57 61 81 q 68 29 61 40 q 94 18 75 18 q 118 25 108 18 q 135 42 127 32 q 146 65 142 53 q 153 87 150 77 z "},"":{"ha":604,"x_min":31,"x_max":574,"o":"m 538 161 l 433 265 q 374 230 406 241 q 304 218 341 218 q 233 229 267 218 q 171 265 199 240 l 66 161 l 31 197 l 134 301 q 101 362 112 329 q 90 431 90 395 q 101 501 90 467 q 136 562 111 535 l 31 668 l 66 705 l 172 599 q 235 632 201 622 q 304 643 269 643 q 372 632 340 643 q 431 599 404 622 l 538 705 l 574 668 l 469 564 q 503 501 492 535 q 514 431 514 467 q 503 362 514 395 q 471 301 492 329 l 574 197 l 538 161 m 457 431 q 445 491 457 463 q 412 540 433 519 q 364 574 391 562 q 304 586 336 586 q 243 574 271 586 q 193 541 214 562 q 159 492 172 520 q 147 431 147 463 q 159 370 147 398 q 193 320 172 341 q 243 287 214 299 q 304 275 271 275 q 364 288 336 275 q 413 321 392 300 q 445 371 433 342 q 457 431 457 399 z "},"":{"ha":524,"x_min":1,"x_max":524,"o":"m 306 180 l 306 125 q 308 76 306 96 q 317 43 309 56 q 343 26 326 31 q 393 21 361 21 l 393 0 l 129 0 l 129 21 q 181 26 163 21 q 207 42 199 31 q 217 74 216 54 q 218 125 218 94 l 218 180 l 9 180 l 9 218 l 218 218 l 218 292 l 211 310 l 9 310 l 9 346 l 193 346 l 85 600 q 71 630 77 616 q 55 652 64 643 q 34 667 46 661 q 1 675 21 673 l 1 693 l 228 693 l 228 675 q 210 672 221 674 q 189 667 199 671 q 172 658 179 664 q 164 643 164 652 q 172 619 164 640 q 193 566 180 597 q 221 499 206 535 q 249 430 235 463 q 272 375 262 398 q 283 346 281 351 l 393 604 q 400 623 397 614 q 403 643 403 633 q 397 659 403 653 q 383 669 391 665 q 364 673 374 672 q 346 675 354 674 l 346 693 l 524 693 l 524 675 q 491 668 505 675 q 467 651 477 662 q 450 625 457 640 q 435 595 442 611 l 323 346 l 514 346 l 514 310 l 310 310 l 306 300 l 306 218 l 514 218 l 514 180 l 306 180 z "},"":{"ha":317,"x_min":134,"x_max":184,"o":"m 134 339 l 134 742 l 184 742 l 184 339 l 134 339 m 134 -200 l 134 203 l 184 203 l 184 -200 l 134 -200 z "},"":{"ha":524,"x_min":79,"x_max":444,"o":"m 444 245 q 436 191 444 216 q 412 144 427 165 q 376 104 397 122 q 332 71 356 86 q 375 12 356 45 q 393 -58 393 -20 q 382 -116 393 -90 q 352 -162 372 -143 q 306 -193 332 -182 q 248 -204 279 -204 q 200 -196 223 -204 q 159 -173 177 -188 q 131 -137 142 -157 q 121 -90 121 -116 q 131 -59 121 -73 q 160 -45 141 -45 q 189 -58 178 -45 q 200 -89 200 -72 q 195 -117 200 -102 q 191 -144 191 -131 q 197 -163 191 -155 q 213 -176 203 -171 q 233 -182 222 -180 q 252 -184 243 -184 q 284 -178 268 -184 q 313 -159 300 -171 q 334 -133 326 -148 q 342 -102 342 -118 q 322 -41 342 -68 q 274 12 303 -14 q 211 64 245 38 q 147 118 176 90 q 99 181 118 147 q 79 258 79 216 q 88 313 79 288 q 112 359 96 338 q 147 398 127 380 q 192 431 168 416 q 170 460 181 444 q 150 492 159 475 q 135 527 140 509 q 129 564 129 545 q 140 620 129 593 q 172 665 152 646 q 218 696 191 685 q 273 708 244 708 q 322 701 298 708 q 364 679 346 693 q 393 643 382 664 q 404 595 404 622 q 395 562 404 575 q 364 549 386 549 q 336 560 349 549 q 323 587 323 572 q 327 612 323 600 q 330 637 330 625 q 315 675 330 665 q 273 686 299 686 q 238 680 254 686 q 210 661 222 673 q 191 633 198 649 q 184 597 184 616 q 204 537 184 564 q 252 486 223 511 q 314 437 281 461 q 377 384 348 412 q 425 322 406 356 q 444 245 444 289 m 210 415 q 179 394 193 406 q 154 368 165 382 q 137 337 144 354 q 131 301 131 321 q 140 253 131 275 q 165 214 150 232 q 201 179 181 195 q 241 148 221 163 q 281 118 262 133 q 314 86 300 103 q 343 107 329 96 q 368 133 357 119 q 386 164 379 147 q 392 200 392 181 q 372 264 392 233 q 323 322 352 294 q 264 373 295 349 q 210 415 233 396 z "},"":{"ha":313,"x_min":0,"x_max":313,"o":"m 313 628 q 309 607 313 617 q 297 590 304 597 q 281 579 290 583 q 261 575 271 575 q 224 591 240 575 q 208 628 208 607 q 213 647 208 638 q 224 664 217 656 q 241 675 232 671 q 261 679 251 679 q 297 664 282 679 q 313 628 313 649 m 104 628 q 100 607 104 617 q 89 590 96 597 q 72 579 81 583 q 52 575 62 575 q 15 591 31 575 q 0 628 0 607 q 4 647 0 638 q 16 664 9 656 q 32 675 23 671 q 52 679 41 679 q 89 664 73 679 q 104 628 104 649 z "},"":{"ha":796,"x_min":35,"x_max":761,"o":"m 761 346 q 733 204 761 270 q 656 89 705 138 q 541 11 607 39 q 397 -17 474 -17 q 255 11 321 -17 q 140 88 189 39 q 63 203 91 137 q 35 346 35 269 q 63 489 35 423 q 140 604 91 555 q 255 680 189 652 q 397 708 321 708 q 541 680 475 708 q 656 604 608 652 q 733 489 705 555 q 761 346 761 423 m 729 346 q 703 476 729 416 q 633 581 677 536 q 528 652 588 626 q 397 677 467 677 q 268 652 328 677 q 163 581 208 626 q 93 475 119 536 q 68 346 68 415 q 93 217 68 277 q 163 112 119 157 q 268 42 208 68 q 397 17 328 17 q 528 42 467 17 q 633 112 588 68 q 703 217 677 157 q 729 346 729 277 m 596 220 q 511 142 560 168 q 400 115 462 115 q 308 132 351 115 q 232 179 264 149 q 181 251 200 210 q 163 343 163 293 q 183 442 163 398 q 238 517 203 486 q 319 564 273 548 q 418 581 366 581 q 451 577 434 581 q 483 569 468 573 q 511 561 498 564 q 532 557 524 557 q 547 565 541 557 q 557 581 553 572 l 576 581 l 587 437 l 568 437 q 512 525 549 493 q 412 557 474 557 q 337 541 369 557 q 286 497 306 524 q 257 433 267 469 q 248 358 248 397 q 257 279 248 317 q 286 212 266 241 q 338 166 306 183 q 418 149 371 149 q 576 231 520 149 l 596 220 z "},"":{"ha":334,"x_min":26,"x_max":332,"o":"m 332 452 q 253 407 292 407 q 225 416 237 407 q 214 452 214 426 q 177 429 191 438 q 151 415 162 420 q 130 409 140 410 q 106 407 120 407 q 48 427 70 407 q 26 479 26 446 q 33 509 26 494 q 60 537 39 523 q 117 566 80 551 q 214 599 154 581 l 214 610 q 198 667 214 650 q 150 684 182 684 q 114 673 127 684 q 100 649 101 663 l 101 631 q 93 609 102 617 q 71 602 84 602 q 39 631 39 602 q 50 660 39 647 q 77 683 60 673 q 116 696 94 692 q 162 701 138 701 q 221 694 199 701 q 255 675 243 688 q 271 645 267 663 q 275 606 275 627 l 275 510 q 275 478 275 490 q 277 460 275 465 q 293 445 279 445 q 299 446 296 445 q 306 449 302 446 q 316 456 310 452 q 332 470 323 461 l 332 452 m 30 334 l 30 357 l 327 357 l 327 334 l 30 334 m 214 581 q 146 555 171 566 q 109 533 121 543 q 92 512 96 522 q 89 492 89 503 q 104 457 89 471 q 140 441 119 442 q 173 449 154 440 q 214 473 191 457 l 214 581 z "},"":{"ha":524,"x_min":32,"x_max":490,"o":"m 461 -4 l 260 237 l 461 478 l 490 478 l 366 237 l 490 -4 l 461 -4 m 231 -4 l 32 237 l 231 478 l 258 478 l 134 237 l 258 -4 l 231 -4 z "},"":{"ha":524,"x_min":33,"x_max":492,"o":"m 293 -4 l 265 -4 l 390 236 l 265 478 l 293 478 l 492 236 l 293 -4 m 62 -4 l 33 -4 l 158 236 l 33 478 l 62 478 l 264 236 l 62 -4 z "},"":{"ha":625,"x_min":40,"x_max":585,"o":"m 524 191 l 524 363 l 40 363 l 40 424 l 585 424 l 585 191 l 524 191 z "},"":{"ha":349,"x_min":41,"x_max":306,"o":"m 41 196 l 41 272 l 306 272 l 306 196 l 41 196 z "},"":{"ha":796,"x_min":35,"x_max":761,"o":"m 761 346 q 733 204 761 270 q 656 89 705 138 q 541 11 607 39 q 397 -17 474 -17 q 255 11 321 -17 q 140 88 189 39 q 63 203 91 137 q 35 346 35 269 q 63 489 35 423 q 140 604 91 555 q 255 680 189 652 q 397 708 321 708 q 541 680 475 708 q 656 604 608 652 q 733 489 705 555 q 761 346 761 423 m 729 346 q 703 476 729 416 q 633 581 677 536 q 528 652 588 626 q 397 677 467 677 q 268 652 328 677 q 163 581 208 626 q 93 475 119 536 q 68 346 68 415 q 93 217 68 277 q 163 112 119 157 q 268 42 208 68 q 397 17 328 17 q 528 42 467 17 q 633 112 588 68 q 703 217 677 157 q 729 346 729 277 m 507 127 l 357 335 l 318 335 l 318 176 q 325 158 318 165 q 340 149 331 152 q 360 145 350 146 q 379 144 371 144 l 379 127 l 192 127 l 192 144 q 222 149 212 144 q 237 162 233 153 q 242 184 242 171 q 243 214 243 197 l 243 482 q 243 510 243 497 q 240 532 243 523 q 227 546 237 541 q 197 551 217 551 l 197 570 l 395 570 q 448 564 421 570 q 497 544 475 557 q 533 508 519 530 q 547 456 547 486 q 538 411 547 430 q 513 378 528 392 q 476 356 497 364 q 433 342 456 347 l 541 189 q 566 160 551 174 q 603 144 582 146 l 603 127 l 507 127 m 465 449 q 457 490 465 472 q 435 521 449 509 q 401 541 420 534 q 361 547 382 547 q 339 546 351 547 q 318 541 328 544 l 318 357 q 368 360 342 357 q 416 373 394 363 q 451 401 437 383 q 465 449 465 419 z "},"":{"ha":328,"x_min":0,"x_max":328,"o":"m 0 575 l 0 632 l 328 632 l 328 575 l 0 575 z "},"":{"ha":328,"x_min":0,"x_max":328,"o":"m 0 575 l 0 632 l 328 632 l 328 575 l 0 575 z "},"":{"ha":322,"x_min":50,"x_max":272,"o":"m 272 614 q 263 571 272 591 q 240 536 255 551 q 205 512 225 521 q 161 504 185 504 q 117 512 138 504 q 82 536 97 521 q 59 571 67 551 q 50 614 50 591 q 59 657 50 637 q 82 693 67 677 q 117 716 97 708 q 161 725 138 725 q 205 716 185 725 q 240 693 225 708 q 263 657 255 677 q 272 614 272 637 m 232 614 q 227 642 232 629 q 211 664 221 654 q 189 680 201 674 q 161 685 176 685 q 134 680 146 685 q 111 664 121 674 q 96 642 102 654 q 90 614 90 629 q 96 587 90 600 q 111 565 102 574 q 134 550 121 555 q 161 545 146 545 q 189 550 176 545 q 211 565 201 555 q 227 587 221 574 q 232 614 232 600 z "},"":{"ha":1007,"x_min":201,"x_max":806,"o":"m 534 361 l 534 179 l 472 179 l 472 361 l 201 361 l 201 424 l 472 424 l 472 604 l 534 604 l 534 424 l 806 424 l 806 361 l 534 361 m 201 0 l 201 62 l 806 62 l 806 0 l 201 0 z "},"":{"ha":368,"x_min":12,"x_max":342,"o":"m 306 262 l 12 262 l 12 273 q 55 307 31 288 q 106 348 80 326 q 158 395 132 370 q 203 446 183 420 q 235 498 223 471 q 248 550 248 524 q 240 588 248 572 q 218 616 232 605 q 187 634 205 628 q 149 640 169 640 q 82 624 110 640 q 40 570 55 607 l 28 570 q 72 659 36 630 q 168 688 109 688 q 217 681 192 688 q 264 661 243 674 q 298 626 285 647 q 311 578 311 606 q 300 530 311 555 q 269 480 288 505 q 226 430 250 454 q 178 383 202 406 q 130 342 153 361 q 90 310 107 323 l 222 310 q 253 310 239 310 q 279 313 267 310 q 304 322 292 315 q 328 343 316 329 l 342 343 l 306 262 z "},"":{"ha":368,"x_min":28,"x_max":310,"o":"m 310 404 q 292 336 310 364 q 245 291 273 309 q 181 266 216 274 q 113 258 146 258 q 90 259 104 258 q 62 263 76 260 q 38 273 48 267 q 28 292 28 279 q 37 309 28 305 q 57 313 45 313 q 81 308 69 313 q 106 299 93 304 q 133 289 119 294 q 163 285 147 285 q 196 291 179 285 q 225 308 212 297 q 247 333 239 318 q 256 367 256 349 q 243 418 256 398 q 209 450 230 439 q 163 467 189 462 q 111 472 137 471 l 111 482 q 151 491 131 484 q 188 510 171 498 q 215 538 204 522 q 225 578 225 555 q 218 609 225 595 q 199 631 211 622 q 173 644 188 640 q 142 648 158 648 q 87 635 111 648 q 46 597 64 621 l 35 603 q 89 667 56 643 q 170 690 123 690 q 209 686 189 690 q 246 671 229 681 q 274 645 263 661 q 285 606 285 629 q 278 578 285 591 q 262 552 272 564 q 241 530 253 541 q 218 513 229 520 q 255 497 238 507 q 283 474 271 487 q 303 443 296 460 q 310 404 310 426 z "},"":{"ha":358,"x_min":60,"x_max":294,"o":"m 294 679 q 290 663 294 671 q 280 649 286 656 q 266 637 273 643 q 253 628 259 632 l 102 533 l 60 533 l 204 679 q 233 702 217 692 q 268 713 249 713 q 277 709 273 713 q 286 701 282 706 q 292 690 290 696 q 294 679 294 684 z "},"":{"ha":593,"x_min":64,"x_max":554,"o":"m 554 106 q 547 60 553 81 q 529 21 541 38 q 499 -6 517 4 q 453 -16 480 -16 q 417 -7 432 -16 q 393 16 403 2 q 379 47 384 30 q 372 82 374 65 q 339 48 357 65 q 301 16 321 31 q 258 -7 281 2 q 211 -16 235 -16 q 132 29 159 -16 l 132 5 q 136 -39 132 -17 q 144 -83 140 -61 q 152 -126 148 -104 q 155 -170 155 -148 q 152 -190 155 -180 q 143 -208 149 -200 q 128 -221 137 -216 q 109 -227 119 -227 q 89 -221 98 -227 q 75 -208 81 -216 q 67 -190 70 -200 q 64 -171 64 -180 q 70 -129 64 -151 q 79 -86 75 -106 q 93 5 90 -41 q 96 97 96 51 l 96 467 l 179 467 l 179 196 q 180 150 179 175 q 187 102 180 124 q 208 64 193 79 q 252 49 223 49 q 287 55 270 49 q 318 70 303 60 q 347 92 334 79 q 372 117 361 104 l 372 467 l 457 467 l 457 135 q 457 109 457 125 q 460 78 457 94 q 470 52 463 63 q 492 41 477 41 q 509 48 502 41 q 522 66 517 56 q 529 87 526 76 q 533 106 532 98 l 554 106 z "},"":{"ha":473,"x_min":-7,"x_max":476,"o":"m 408 665 l 408 -227 l 371 -227 l 371 665 l 277 665 l 277 -227 l 239 -227 l 239 309 q 146 319 191 310 q 68 350 102 328 q 14 409 34 372 q -7 501 -7 446 q 12 589 -7 553 q 62 649 31 626 q 135 683 94 672 q 224 693 177 693 l 476 693 l 476 665 l 408 665 z "},"":{"ha":189,"x_min":35,"x_max":154,"o":"m 154 343 q 137 300 154 317 q 94 283 119 283 q 52 300 69 283 q 35 343 35 317 q 52 385 35 368 q 94 401 69 401 q 137 385 119 401 q 154 343 154 368 z "},"":{"ha":189,"x_min":35,"x_max":154,"o":"m 154 343 q 137 300 154 317 q 94 283 119 283 q 52 300 69 283 q 35 343 35 317 q 52 385 35 368 q 94 401 69 401 q 137 385 119 401 q 154 343 154 368 z "},"":{"ha":245,"x_min":12,"x_max":232,"o":"m 232 -138 q 218 -179 232 -162 q 184 -206 205 -195 q 140 -221 164 -216 q 97 -225 117 -225 q 12 -210 55 -225 l 28 -176 q 93 -189 61 -189 q 115 -187 104 -189 q 135 -180 126 -185 q 149 -166 144 -175 q 154 -144 154 -158 q 140 -113 154 -121 q 106 -104 127 -104 q 87 -105 96 -104 q 68 -110 77 -106 l 61 -104 l 104 0 l 142 0 l 115 -68 q 130 -66 123 -66 q 144 -65 137 -65 q 178 -70 162 -65 q 205 -83 193 -74 q 225 -105 218 -92 q 232 -138 232 -119 z "},"":{"ha":368,"x_min":85,"x_max":281,"o":"m 93 262 l 93 273 q 126 275 114 273 q 146 283 139 277 q 155 303 153 290 q 157 336 157 315 l 157 571 q 157 591 157 580 q 155 613 157 603 q 147 630 153 623 q 127 637 141 637 q 109 635 118 637 q 90 628 99 632 l 85 639 l 205 688 l 218 688 l 218 336 q 220 303 218 315 q 229 283 222 290 q 248 275 235 277 q 281 273 260 273 l 281 262 l 93 262 z "},"":{"ha":384,"x_min":29,"x_max":355,"o":"m 355 558 q 344 503 355 531 q 313 453 334 475 q 261 417 292 431 q 189 403 231 403 q 124 415 154 403 q 74 447 95 427 q 41 494 53 467 q 29 550 29 521 q 40 606 29 578 q 73 654 52 633 q 124 688 94 675 q 193 701 154 701 q 259 690 229 701 q 310 660 289 679 q 343 614 332 640 q 355 558 355 588 m 35 334 l 35 357 l 350 357 l 350 334 l 35 334 m 286 534 q 279 592 286 565 q 258 639 272 619 q 225 670 245 659 q 182 682 206 682 q 153 676 168 682 q 125 659 138 671 q 105 626 113 646 q 98 575 98 606 q 105 518 98 545 q 127 470 113 491 q 161 437 141 450 q 205 425 180 425 q 238 431 223 425 q 263 450 253 437 q 280 483 274 463 q 286 534 286 504 z "},"":{"ha":806,"x_min":100,"x_max":705,"o":"m 650 109 l 650 -4 l 599 -4 l 599 109 l 421 109 l 421 146 l 616 425 l 650 425 l 650 151 l 705 151 l 705 109 l 650 109 m 195 -8 l 144 -8 l 621 705 l 668 705 l 195 -8 m 107 268 l 107 281 q 136 283 125 281 q 153 291 147 285 q 160 308 159 297 q 161 338 161 319 l 161 578 q 162 596 161 585 q 160 618 162 608 q 153 637 158 629 q 138 646 148 646 q 120 643 128 646 q 104 636 112 640 l 100 647 l 201 697 l 212 697 l 212 343 q 213 312 212 324 q 218 293 214 300 q 234 283 223 286 q 265 281 245 281 l 265 268 l 107 268 m 599 359 l 452 151 l 599 151 l 599 359 z "},"":{"ha":806,"x_min":85,"x_max":721,"o":"m 690 -4 l 443 -4 l 443 8 q 482 43 460 24 q 525 85 503 63 q 568 132 547 108 q 606 182 589 157 q 632 234 622 208 q 642 286 642 260 q 636 320 642 304 q 619 350 630 337 q 593 370 608 363 q 558 378 578 378 q 500 359 523 378 q 467 307 478 340 l 456 307 q 468 354 459 332 q 491 391 477 375 q 527 416 506 407 q 575 425 548 425 q 621 417 599 425 q 659 395 642 410 q 685 360 675 380 q 694 314 694 340 q 674 241 694 278 q 626 168 654 203 q 566 100 597 132 q 510 43 534 68 l 619 43 q 647 43 635 43 q 670 46 659 43 q 690 56 680 49 q 708 77 699 63 l 721 77 l 690 -4 m 184 -8 l 135 -8 l 576 705 l 625 705 l 184 -8 m 92 268 l 92 281 q 121 283 111 281 q 138 291 132 285 q 144 308 143 297 q 146 338 146 319 l 146 578 q 146 596 146 585 q 144 618 146 608 q 137 637 142 629 q 122 646 132 646 q 104 643 113 646 q 89 636 96 640 l 85 647 l 186 697 l 197 697 l 197 343 q 198 312 197 324 q 204 293 199 300 q 220 283 209 286 q 252 281 231 281 l 252 268 l 92 268 z "},"":{"ha":806,"x_min":86,"x_max":720,"o":"m 664 109 l 664 -4 l 612 -4 l 612 109 l 433 109 l 433 146 l 629 425 l 664 425 l 664 151 l 720 151 l 720 109 l 664 109 m 218 -8 l 167 -8 l 643 705 l 690 705 l 218 -8 m 325 407 q 312 343 325 370 q 276 297 298 315 q 224 269 254 279 q 160 260 194 260 q 139 260 151 260 q 114 264 126 261 q 94 275 102 268 q 86 294 86 282 q 93 311 86 306 q 111 315 100 315 q 131 311 121 315 q 152 301 141 307 q 175 292 163 296 q 201 288 187 288 q 232 294 218 288 q 258 312 247 301 q 275 338 269 323 q 281 368 281 353 q 271 417 281 397 q 245 450 262 437 q 206 468 229 463 q 157 475 183 474 l 157 485 q 194 495 176 487 q 225 515 212 503 q 245 545 238 528 q 253 583 253 562 q 235 634 253 614 q 184 654 216 654 q 138 640 157 654 q 104 603 118 625 l 93 607 q 112 643 102 627 q 135 671 122 659 q 166 690 149 684 q 207 697 183 697 q 243 691 226 697 q 275 675 261 686 q 296 648 288 664 q 304 611 304 632 q 299 584 304 597 q 286 559 294 571 q 267 536 277 547 q 248 517 257 526 q 305 475 285 502 q 325 407 325 448 m 612 359 l 464 151 l 612 151 l 612 359 z "},"":{"ha":465,"x_min":39,"x_max":415,"o":"m 295 440 q 277 399 295 415 q 237 382 260 382 q 216 387 227 382 q 198 398 206 391 q 185 417 190 406 q 180 440 180 427 q 185 465 180 454 q 199 483 191 475 q 217 494 207 490 q 237 498 227 498 q 258 494 248 498 q 277 483 269 490 q 290 465 285 475 q 295 440 295 454 m 415 -79 q 403 -134 415 -107 q 368 -181 391 -161 q 310 -214 345 -201 q 231 -226 275 -226 q 154 -215 189 -226 q 93 -183 119 -204 q 54 -132 68 -162 q 39 -64 39 -102 q 47 -10 39 -35 q 67 36 56 15 q 93 74 79 57 q 119 105 107 92 q 166 160 146 136 q 200 208 186 184 q 221 258 214 231 q 230 320 229 285 l 252 320 q 233 205 249 259 q 182 96 216 152 q 166 65 174 83 q 150 26 157 47 q 138 -15 143 6 q 134 -56 134 -36 q 145 -122 134 -95 q 173 -165 156 -149 q 212 -190 191 -182 q 253 -197 233 -197 q 296 -191 277 -197 q 326 -175 314 -184 q 344 -154 338 -165 q 350 -130 350 -142 q 345 -107 350 -119 q 334 -84 340 -96 q 322 -62 328 -73 q 317 -42 317 -51 q 321 -23 317 -31 q 331 -9 325 -15 q 345 -1 337 -4 q 359 2 352 2 q 374 -1 364 2 q 392 -14 383 -5 q 408 -38 401 -22 q 415 -79 415 -54 z "},"":{"ha":753,"x_min":8,"x_max":745,"o":"m 471 0 l 471 20 q 494 21 482 20 q 517 28 507 23 q 534 41 527 33 q 541 64 541 50 q 532 102 541 77 q 514 152 524 126 q 494 200 504 178 q 479 232 484 222 l 211 232 q 202 214 208 227 q 189 185 197 201 q 174 152 182 170 q 160 117 167 134 q 150 86 154 100 q 146 64 146 72 q 155 42 146 50 q 176 28 163 33 q 203 22 189 24 q 227 20 216 20 l 227 0 l 8 0 l 8 20 q 50 31 33 20 q 81 59 68 42 q 104 97 94 76 q 122 138 113 117 l 367 708 l 385 708 l 625 134 q 645 90 635 110 q 667 55 654 70 q 698 30 680 39 q 745 20 716 21 l 745 0 l 471 0 m 347 551 l 227 269 l 465 269 l 347 551 m 434 757 l 284 852 q 238 897 238 880 q 270 937 238 937 q 331 903 297 937 l 477 757 l 434 757 z "},"":{"ha":753,"x_min":8,"x_max":745,"o":"m 471 0 l 471 20 q 494 21 482 20 q 517 28 507 23 q 534 41 527 33 q 541 64 541 50 q 532 102 541 77 q 514 152 524 126 q 494 200 504 178 q 479 232 484 222 l 211 232 q 202 214 208 227 q 189 185 197 201 q 174 152 182 170 q 160 117 167 134 q 150 86 154 100 q 146 64 146 72 q 155 42 146 50 q 176 28 163 33 q 203 22 189 24 q 227 20 216 20 l 227 0 l 8 0 l 8 20 q 50 31 33 20 q 81 59 68 42 q 104 97 94 76 q 122 138 113 117 l 367 708 l 385 708 l 625 134 q 645 90 635 110 q 667 55 654 70 q 698 30 680 39 q 745 20 716 21 l 745 0 l 471 0 m 347 551 l 227 269 l 465 269 l 347 551 m 517 903 q 513 887 517 895 q 502 873 509 880 q 489 861 496 867 q 475 852 481 856 l 324 757 l 282 757 l 427 903 q 455 926 439 916 q 490 937 471 937 q 500 933 495 937 q 508 925 505 930 q 514 913 512 920 q 517 903 517 907 z "},"":{"ha":753,"x_min":8,"x_max":745,"o":"m 471 0 l 471 20 q 494 21 482 20 q 517 28 507 23 q 534 41 527 33 q 541 64 541 50 q 532 102 541 77 q 514 152 524 126 q 494 200 504 178 q 479 232 484 222 l 211 232 q 202 214 208 227 q 189 185 197 201 q 174 152 182 170 q 160 117 167 134 q 150 86 154 100 q 146 64 146 72 q 155 42 146 50 q 176 28 163 33 q 203 22 189 24 q 227 20 216 20 l 227 0 l 8 0 l 8 20 q 50 31 33 20 q 81 59 68 42 q 104 97 94 76 q 122 138 113 117 l 367 708 l 385 708 l 625 134 q 645 90 635 110 q 667 55 654 70 q 698 30 680 39 q 745 20 716 21 l 745 0 l 471 0 m 347 551 l 227 269 l 465 269 l 347 551 m 504 750 l 376 859 l 248 750 l 212 750 l 345 925 l 410 925 l 540 750 l 504 750 z "},"":{"ha":753,"x_min":8,"x_max":745,"o":"m 471 0 l 471 20 q 494 21 482 20 q 517 28 507 23 q 534 41 527 33 q 541 64 541 50 q 532 102 541 77 q 514 152 524 126 q 494 200 504 178 q 479 232 484 222 l 211 232 q 202 214 208 227 q 189 185 197 201 q 174 152 182 170 q 160 117 167 134 q 150 86 154 100 q 146 64 146 72 q 155 42 146 50 q 176 28 163 33 q 203 22 189 24 q 227 20 216 20 l 227 0 l 8 0 l 8 20 q 50 31 33 20 q 81 59 68 42 q 104 97 94 76 q 122 138 113 117 l 367 708 l 385 708 l 625 134 q 645 90 635 110 q 667 55 654 70 q 698 30 680 39 q 745 20 716 21 l 745 0 l 471 0 m 347 551 l 227 269 l 465 269 l 347 551 m 551 911 q 539 870 549 890 q 515 834 530 850 q 481 808 500 818 q 439 799 462 799 q 393 807 411 799 q 361 824 376 814 q 330 840 346 833 q 289 848 314 848 q 268 843 278 848 q 250 832 258 839 q 236 817 241 825 q 229 799 231 808 l 202 799 q 217 841 208 821 q 241 875 227 861 q 274 897 255 889 q 318 905 294 905 q 354 898 338 905 q 385 882 370 891 q 415 866 399 873 q 451 859 431 859 q 497 872 476 859 q 524 911 517 886 l 551 911 z "},"":{"ha":753,"x_min":8,"x_max":745,"o":"m 471 0 l 471 20 q 494 21 482 20 q 517 28 507 23 q 534 41 527 33 q 541 64 541 50 q 532 102 541 77 q 514 152 524 126 q 494 200 504 178 q 479 232 484 222 l 211 232 q 202 214 208 227 q 189 185 197 201 q 174 152 182 170 q 160 117 167 134 q 150 86 154 100 q 146 64 146 72 q 155 42 146 50 q 176 28 163 33 q 203 22 189 24 q 227 20 216 20 l 227 0 l 8 0 l 8 20 q 50 31 33 20 q 81 59 68 42 q 104 97 94 76 q 122 138 113 117 l 367 708 l 385 708 l 625 134 q 645 90 635 110 q 667 55 654 70 q 698 30 680 39 q 745 20 716 21 l 745 0 l 471 0 m 347 551 l 227 269 l 465 269 l 347 551 m 525 845 q 521 824 525 834 q 510 807 517 814 q 493 796 503 800 q 473 792 484 792 q 436 808 452 792 q 420 845 420 824 q 425 864 420 855 q 437 881 429 873 q 454 892 444 888 q 473 896 463 896 q 510 881 494 896 q 525 845 525 866 m 317 845 q 312 824 317 834 q 301 807 308 814 q 284 796 294 800 q 264 792 274 792 q 228 808 243 792 q 212 845 212 824 q 217 864 212 855 q 228 881 221 873 q 244 892 235 888 q 264 896 254 896 q 301 881 285 896 q 317 845 317 866 z "},"":{"ha":753,"x_min":8,"x_max":745,"o":"m 471 0 l 471 20 q 494 21 482 20 q 517 28 507 23 q 534 41 527 33 q 541 64 541 50 q 532 102 541 77 q 514 152 524 126 q 494 200 504 178 q 479 232 484 222 l 211 232 q 202 214 208 227 q 189 185 197 201 q 174 152 182 170 q 160 117 167 134 q 150 86 154 100 q 146 64 146 72 q 155 42 146 50 q 176 28 163 33 q 203 22 189 24 q 227 20 216 20 l 227 0 l 8 0 l 8 20 q 50 31 33 20 q 81 59 68 42 q 104 97 94 76 q 122 138 113 117 l 367 708 l 385 708 l 625 134 q 645 90 635 110 q 667 55 654 70 q 698 30 680 39 q 745 20 716 21 l 745 0 l 471 0 m 347 551 l 227 269 l 465 269 l 347 551 m 474 854 q 466 815 474 833 q 444 784 458 797 q 413 764 431 771 q 378 757 396 757 q 342 764 359 757 q 310 784 324 771 q 287 815 296 797 q 279 854 279 833 q 287 894 279 876 q 309 925 295 912 q 340 945 322 938 q 378 952 358 952 q 413 945 396 952 q 444 926 431 939 q 466 895 458 913 q 474 854 474 877 m 439 854 q 434 880 439 869 q 420 900 429 892 q 400 912 412 908 q 378 917 389 917 q 333 900 352 917 q 314 854 314 882 q 319 828 314 840 q 334 808 325 817 q 354 796 342 800 q 378 792 366 792 q 402 797 391 792 q 421 811 413 802 q 434 831 429 819 q 439 854 439 842 z "},"":{"ha":932,"x_min":-12,"x_max":902,"o":"m 847 0 l 327 0 l 327 19 l 352 19 q 415 44 394 19 q 427 123 427 60 l 427 268 l 225 268 l 161 149 q 138 104 147 123 q 126 72 129 85 q 126 50 123 58 q 140 35 130 41 q 205 19 156 24 l 205 0 l -12 0 l -12 19 q 26 28 10 19 q 42 40 33 33 q 60 61 50 48 q 82 94 70 75 q 109 140 94 113 l 320 534 q 350 595 340 570 q 359 633 359 621 q 356 649 359 642 q 342 661 352 656 q 315 670 332 666 q 271 675 298 673 l 271 693 l 840 693 l 847 542 l 830 542 q 815 600 823 578 q 794 634 808 622 q 757 651 781 647 q 695 656 734 656 l 525 656 l 525 382 l 656 382 q 707 387 686 382 q 740 404 727 392 q 759 435 753 416 q 768 481 766 454 l 785 481 l 785 242 l 768 242 q 758 292 764 273 q 741 323 753 312 q 710 339 730 334 q 656 343 690 343 l 525 343 l 525 114 q 525 79 525 94 q 529 58 526 64 q 534 51 531 55 q 544 44 538 47 q 560 39 550 41 q 585 37 570 37 l 677 37 q 751 45 720 37 q 806 70 783 53 q 848 113 829 87 q 884 175 866 138 l 902 175 l 847 0 m 427 656 l 244 307 l 427 307 l 427 656 z "},"":{"ha":699,"x_min":37,"x_max":661,"o":"m 661 163 q 544 31 614 79 q 375 -17 473 -17 q 235 10 298 -17 q 129 85 173 37 q 61 197 85 132 q 37 336 37 261 q 63 481 37 414 q 135 599 88 549 q 246 679 181 650 q 390 708 311 708 q 439 704 416 708 q 483 694 462 701 q 526 680 505 688 q 570 661 547 671 q 587 666 580 661 q 600 677 595 671 q 607 693 604 684 q 612 708 610 701 l 631 708 l 646 473 l 631 473 q 598 553 618 517 q 550 616 578 589 q 484 657 522 642 q 399 672 447 672 q 315 658 351 672 q 251 620 279 644 q 205 563 224 595 q 175 493 186 530 q 159 415 164 455 q 154 335 154 374 q 169 218 154 273 q 215 120 184 162 q 296 54 247 78 q 414 29 345 29 q 490 39 457 29 q 550 68 523 50 q 600 114 576 87 q 646 174 623 140 l 661 163 m 503 -152 q 489 -193 503 -176 q 455 -220 475 -210 q 411 -235 435 -231 q 368 -239 387 -239 q 283 -224 326 -239 l 298 -191 q 363 -203 332 -203 q 386 -201 375 -203 q 406 -194 397 -199 q 419 -181 414 -189 q 425 -159 425 -172 q 411 -127 425 -136 q 376 -119 397 -119 q 357 -120 367 -119 q 338 -124 348 -121 l 332 -119 l 375 -14 l 412 -14 l 386 -82 q 400 -80 393 -81 q 415 -79 408 -79 q 448 -84 433 -79 q 476 -97 464 -88 q 495 -119 488 -106 q 503 -152 503 -133 z "},"":{"ha":639,"x_min":22,"x_max":616,"o":"m 555 0 l 22 0 l 22 20 q 74 24 55 20 q 104 39 94 28 q 117 70 114 50 q 121 122 121 90 l 121 574 q 118 626 121 606 q 105 656 115 646 q 75 671 95 667 q 22 675 56 675 l 22 693 l 555 693 l 564 542 l 545 542 q 528 597 536 575 q 507 632 520 619 q 471 650 494 645 q 410 656 448 656 l 218 656 l 218 382 l 371 382 q 422 386 403 382 q 453 402 441 391 q 471 432 465 413 q 481 482 477 452 l 500 482 l 500 240 l 481 240 q 471 290 477 271 q 454 322 465 310 q 423 338 442 334 q 371 343 404 343 l 218 343 l 218 115 q 219 82 218 96 q 226 57 220 67 q 243 42 231 47 q 277 37 255 37 l 393 37 q 468 45 439 37 q 518 68 497 52 q 557 111 540 85 q 595 174 574 137 l 616 174 l 555 0 m 377 757 l 227 852 q 181 897 181 880 q 213 937 181 937 q 274 903 240 937 l 420 757 l 377 757 z "},"":{"ha":639,"x_min":22,"x_max":616,"o":"m 555 0 l 22 0 l 22 20 q 74 24 55 20 q 104 39 94 28 q 117 70 114 50 q 121 122 121 90 l 121 574 q 118 626 121 606 q 105 656 115 646 q 75 671 95 667 q 22 675 56 675 l 22 693 l 555 693 l 564 542 l 545 542 q 528 597 536 575 q 507 632 520 619 q 471 650 494 645 q 410 656 448 656 l 218 656 l 218 382 l 371 382 q 422 386 403 382 q 453 402 441 391 q 471 432 465 413 q 481 482 477 452 l 500 482 l 500 240 l 481 240 q 471 290 477 271 q 454 322 465 310 q 423 338 442 334 q 371 343 404 343 l 218 343 l 218 115 q 219 82 218 96 q 226 57 220 67 q 243 42 231 47 q 277 37 255 37 l 393 37 q 468 45 439 37 q 518 68 497 52 q 557 111 540 85 q 595 174 574 137 l 616 174 l 555 0 m 460 903 q 456 887 460 895 q 445 873 452 880 q 432 861 439 867 q 418 852 425 856 l 267 757 l 225 757 l 370 903 q 398 926 382 916 q 433 937 414 937 q 443 933 438 937 q 451 925 448 930 q 457 913 455 920 q 460 903 460 907 z "},"":{"ha":639,"x_min":22,"x_max":616,"o":"m 555 0 l 22 0 l 22 20 q 74 24 55 20 q 104 39 94 28 q 117 70 114 50 q 121 122 121 90 l 121 574 q 118 626 121 606 q 105 656 115 646 q 75 671 95 667 q 22 675 56 675 l 22 693 l 555 693 l 564 542 l 545 542 q 528 597 536 575 q 507 632 520 619 q 471 650 494 645 q 410 656 448 656 l 218 656 l 218 382 l 371 382 q 422 386 403 382 q 453 402 441 391 q 471 432 465 413 q 481 482 477 452 l 500 482 l 500 240 l 481 240 q 471 290 477 271 q 454 322 465 310 q 423 338 442 334 q 371 343 404 343 l 218 343 l 218 115 q 219 82 218 96 q 226 57 220 67 q 243 42 231 47 q 277 37 255 37 l 393 37 q 468 45 439 37 q 518 68 497 52 q 557 111 540 85 q 595 174 574 137 l 616 174 l 555 0 m 447 750 l 319 859 l 191 750 l 155 750 l 288 925 l 353 925 l 483 750 l 447 750 z "},"":{"ha":639,"x_min":22,"x_max":616,"o":"m 555 0 l 22 0 l 22 20 q 74 24 55 20 q 104 39 94 28 q 117 70 114 50 q 121 122 121 90 l 121 574 q 118 626 121 606 q 105 656 115 646 q 75 671 95 667 q 22 675 56 675 l 22 693 l 555 693 l 564 542 l 545 542 q 528 597 536 575 q 507 632 520 619 q 471 650 494 645 q 410 656 448 656 l 218 656 l 218 382 l 371 382 q 422 386 403 382 q 453 402 441 391 q 471 432 465 413 q 481 482 477 452 l 500 482 l 500 240 l 481 240 q 471 290 477 271 q 454 322 465 310 q 423 338 442 334 q 371 343 404 343 l 218 343 l 218 115 q 219 82 218 96 q 226 57 220 67 q 243 42 231 47 q 277 37 255 37 l 393 37 q 468 45 439 37 q 518 68 497 52 q 557 111 540 85 q 595 174 574 137 l 616 174 l 555 0 m 468 845 q 464 824 468 834 q 453 807 460 814 q 436 796 446 800 q 416 792 427 792 q 379 808 395 792 q 363 845 363 824 q 368 864 363 855 q 380 881 372 873 q 397 892 387 888 q 416 896 406 896 q 453 881 437 896 q 468 845 468 866 m 260 845 q 255 824 260 834 q 244 807 251 814 q 227 796 237 800 q 207 792 217 792 q 171 808 186 792 q 155 845 155 824 q 160 864 155 855 q 171 881 164 873 q 188 892 178 888 q 207 896 197 896 q 244 881 228 896 q 260 845 260 866 z "},"":{"ha":349,"x_min":26,"x_max":323,"o":"m 26 0 l 26 20 q 79 24 60 20 q 109 40 99 28 q 122 71 119 51 q 125 122 125 91 l 125 571 q 122 623 125 603 q 109 654 119 643 q 79 670 99 666 q 26 675 60 675 l 26 693 l 323 693 l 323 675 q 271 670 291 675 q 241 654 252 666 q 227 623 231 643 q 224 571 224 603 l 224 122 q 227 71 224 91 q 240 40 230 51 q 270 24 250 28 q 323 20 290 20 l 323 0 l 26 0 m 233 757 l 83 852 q 37 897 37 880 q 69 937 37 937 q 130 903 96 937 l 276 757 l 233 757 z "},"":{"ha":349,"x_min":26,"x_max":323,"o":"m 26 0 l 26 20 q 79 24 60 20 q 109 40 99 28 q 122 71 119 51 q 125 122 125 91 l 125 571 q 122 623 125 603 q 109 654 119 643 q 79 670 99 666 q 26 675 60 675 l 26 693 l 323 693 l 323 675 q 271 670 291 675 q 241 654 252 666 q 227 623 231 643 q 224 571 224 603 l 224 122 q 227 71 224 91 q 240 40 230 51 q 270 24 250 28 q 323 20 290 20 l 323 0 l 26 0 m 315 903 q 311 887 315 895 q 301 873 307 880 q 287 861 294 867 q 274 852 280 856 l 123 757 l 81 757 l 225 903 q 254 926 238 916 q 289 937 270 937 q 298 933 294 937 q 307 925 303 930 q 313 913 311 920 q 315 903 315 907 z "},"":{"ha":349,"x_min":11,"x_max":338,"o":"m 26 0 l 26 20 q 79 24 60 20 q 109 40 99 28 q 122 71 119 51 q 125 122 125 91 l 125 571 q 122 623 125 603 q 109 654 119 643 q 79 670 99 666 q 26 675 60 675 l 26 693 l 323 693 l 323 675 q 271 670 291 675 q 241 654 252 666 q 227 623 231 643 q 224 571 224 603 l 224 122 q 227 71 224 91 q 240 40 230 51 q 270 24 250 28 q 323 20 290 20 l 323 0 l 26 0 m 302 750 l 175 859 l 47 750 l 11 750 l 143 925 l 208 925 l 338 750 l 302 750 z "},"":{"ha":349,"x_min":11,"x_max":323,"o":"m 26 0 l 26 20 q 79 24 60 20 q 109 40 99 28 q 122 71 119 51 q 125 122 125 91 l 125 571 q 122 623 125 603 q 109 654 119 643 q 79 670 99 666 q 26 675 60 675 l 26 693 l 323 693 l 323 675 q 271 670 291 675 q 241 654 252 666 q 227 623 231 643 q 224 571 224 603 l 224 122 q 227 71 224 91 q 240 40 230 51 q 270 24 250 28 q 323 20 290 20 l 323 0 l 26 0 m 323 845 q 319 824 323 834 q 308 807 315 814 q 292 796 301 800 q 272 792 282 792 q 235 808 251 792 q 219 845 219 824 q 223 864 219 855 q 235 881 228 873 q 252 892 243 888 q 272 896 262 896 q 308 881 293 896 q 323 845 323 866 m 115 845 q 111 824 115 834 q 99 807 106 814 q 82 796 92 800 q 62 792 73 792 q 26 808 41 792 q 11 845 11 824 q 15 864 11 855 q 27 881 20 873 q 43 892 34 888 q 62 896 52 896 q 99 881 83 896 q 115 845 115 866 z "},"":{"ha":757,"x_min":18,"x_max":715,"o":"m 715 352 q 694 215 715 279 q 625 103 672 151 q 505 27 578 55 q 329 0 432 0 l 18 0 l 18 19 l 44 19 q 106 47 90 19 q 117 123 117 63 l 117 347 l 18 347 l 18 405 l 117 405 l 117 571 q 104 653 117 634 q 44 675 82 675 l 18 675 l 18 693 l 300 693 q 539 656 462 693 q 610 609 578 638 q 666 541 643 580 q 703 454 690 502 q 715 352 715 406 m 601 347 q 580 476 601 418 q 523 573 559 533 q 434 634 486 613 q 320 656 382 656 q 272 652 298 656 q 216 641 246 649 l 216 405 l 418 405 l 418 347 l 216 347 l 216 51 q 275 40 248 44 q 324 37 302 37 q 434 57 384 36 q 522 119 485 79 q 580 217 559 159 q 601 347 601 275 z "},"":{"ha":755,"x_min":5,"x_max":742,"o":"m 742 675 q 690 671 709 675 q 660 655 670 667 q 646 625 649 644 q 643 574 643 605 l 643 -11 l 625 -11 l 167 547 l 167 121 q 170 68 167 88 q 183 38 173 49 q 213 23 193 27 q 265 20 233 20 l 265 0 l 24 0 l 24 20 q 76 24 56 20 q 105 39 95 28 q 119 70 115 50 q 122 121 122 90 l 122 603 q 98 634 109 621 q 74 656 87 647 q 45 670 62 665 q 5 675 29 675 l 5 693 l 175 693 l 599 174 l 599 574 q 595 625 599 605 q 582 655 592 644 q 552 671 571 667 q 500 675 532 675 l 500 693 l 742 693 l 742 675 m 548 911 q 536 870 546 890 q 512 834 527 850 q 478 808 498 818 q 437 799 459 799 q 391 807 408 799 q 358 824 373 814 q 327 840 343 833 q 286 848 311 848 q 265 843 275 848 q 247 832 255 839 q 233 817 239 825 q 227 799 228 808 l 199 799 q 214 841 205 821 q 238 875 224 861 q 272 897 252 889 q 315 905 291 905 q 351 898 336 905 q 382 882 367 891 q 412 866 397 873 q 448 859 428 859 q 494 872 473 859 q 521 911 515 886 l 548 911 z "},"":{"ha":755,"x_min":36,"x_max":715,"o":"m 715 350 q 691 210 715 276 q 622 93 667 143 q 515 13 578 42 q 375 -17 452 -17 q 235 12 298 -17 q 128 91 172 41 q 60 208 83 141 q 36 349 36 274 q 61 489 36 424 q 133 603 87 555 q 243 680 179 652 q 383 708 307 708 q 519 679 458 708 q 624 601 581 650 q 692 487 668 552 q 715 350 715 422 m 599 343 q 595 420 599 381 q 582 496 591 460 q 556 565 572 533 q 515 621 540 597 q 455 658 490 644 q 372 672 420 672 q 296 658 329 672 q 239 621 263 644 q 198 565 214 597 q 172 497 182 533 q 158 424 162 462 q 154 351 154 387 q 158 279 154 317 q 172 204 162 241 q 199 134 182 168 q 239 76 215 101 q 297 36 264 51 q 374 21 330 21 q 453 35 419 21 q 513 72 488 48 q 554 126 538 95 q 581 194 571 158 q 595 268 591 229 q 599 343 599 306 m 433 757 l 283 852 q 237 897 237 880 q 269 937 237 937 q 330 903 296 937 l 476 757 l 433 757 z "},"":{"ha":755,"x_min":36,"x_max":715,"o":"m 715 350 q 691 210 715 276 q 622 93 667 143 q 515 13 578 42 q 375 -17 452 -17 q 235 12 298 -17 q 128 91 172 41 q 60 208 83 141 q 36 349 36 274 q 61 489 36 424 q 133 603 87 555 q 243 680 179 652 q 383 708 307 708 q 519 679 458 708 q 624 601 581 650 q 692 487 668 552 q 715 350 715 422 m 599 343 q 595 420 599 381 q 582 496 591 460 q 556 565 572 533 q 515 621 540 597 q 455 658 490 644 q 372 672 420 672 q 296 658 329 672 q 239 621 263 644 q 198 565 214 597 q 172 497 182 533 q 158 424 162 462 q 154 351 154 387 q 158 279 154 317 q 172 204 162 241 q 199 134 182 168 q 239 76 215 101 q 297 36 264 51 q 374 21 330 21 q 453 35 419 21 q 513 72 488 48 q 554 126 538 95 q 581 194 571 158 q 595 268 591 229 q 599 343 599 306 m 516 903 q 512 887 516 895 q 502 873 508 880 q 488 861 495 867 q 475 852 481 856 l 323 757 l 281 757 l 426 903 q 455 926 439 916 q 490 937 471 937 q 499 933 494 937 q 508 925 504 930 q 514 913 511 920 q 516 903 516 907 z "},"":{"ha":755,"x_min":36,"x_max":715,"o":"m 715 350 q 691 210 715 276 q 622 93 667 143 q 515 13 578 42 q 375 -17 452 -17 q 235 12 298 -17 q 128 91 172 41 q 60 208 83 141 q 36 349 36 274 q 61 489 36 424 q 133 603 87 555 q 243 680 179 652 q 383 708 307 708 q 519 679 458 708 q 624 601 581 650 q 692 487 668 552 q 715 350 715 422 m 599 343 q 595 420 599 381 q 582 496 591 460 q 556 565 572 533 q 515 621 540 597 q 455 658 490 644 q 372 672 420 672 q 296 658 329 672 q 239 621 263 644 q 198 565 214 597 q 172 497 182 533 q 158 424 162 462 q 154 351 154 387 q 158 279 154 317 q 172 204 162 241 q 199 134 182 168 q 239 76 215 101 q 297 36 264 51 q 374 21 330 21 q 453 35 419 21 q 513 72 488 48 q 554 126 538 95 q 581 194 571 158 q 595 268 591 229 q 599 343 599 306 m 503 750 l 376 859 l 248 750 l 212 750 l 344 925 l 409 925 l 539 750 l 503 750 z "},"":{"ha":755,"x_min":36,"x_max":715,"o":"m 715 350 q 691 210 715 276 q 622 93 667 143 q 515 13 578 42 q 375 -17 452 -17 q 235 12 298 -17 q 128 91 172 41 q 60 208 83 141 q 36 349 36 274 q 61 489 36 424 q 133 603 87 555 q 243 680 179 652 q 383 708 307 708 q 519 679 458 708 q 624 601 581 650 q 692 487 668 552 q 715 350 715 422 m 599 343 q 595 420 599 381 q 582 496 591 460 q 556 565 572 533 q 515 621 540 597 q 455 658 490 644 q 372 672 420 672 q 296 658 329 672 q 239 621 263 644 q 198 565 214 597 q 172 497 182 533 q 158 424 162 462 q 154 351 154 387 q 158 279 154 317 q 172 204 162 241 q 199 134 182 168 q 239 76 215 101 q 297 36 264 51 q 374 21 330 21 q 453 35 419 21 q 513 72 488 48 q 554 126 538 95 q 581 194 571 158 q 595 268 591 229 q 599 343 599 306 m 550 911 q 538 870 548 890 q 514 834 529 850 q 480 808 500 818 q 439 799 461 799 q 393 807 410 799 q 360 824 375 814 q 329 840 345 833 q 288 848 313 848 q 267 843 277 848 q 249 832 257 839 q 235 817 241 825 q 229 799 230 808 l 201 799 q 216 841 207 821 q 240 875 226 861 q 274 897 254 889 q 317 905 293 905 q 353 898 338 905 q 384 882 369 891 q 414 866 399 873 q 450 859 430 859 q 496 872 475 859 q 523 911 517 886 l 550 911 z "},"":{"ha":755,"x_min":36,"x_max":715,"o":"m 715 350 q 691 210 715 276 q 622 93 667 143 q 515 13 578 42 q 375 -17 452 -17 q 235 12 298 -17 q 128 91 172 41 q 60 208 83 141 q 36 349 36 274 q 61 489 36 424 q 133 603 87 555 q 243 680 179 652 q 383 708 307 708 q 519 679 458 708 q 624 601 581 650 q 692 487 668 552 q 715 350 715 422 m 599 343 q 595 420 599 381 q 582 496 591 460 q 556 565 572 533 q 515 621 540 597 q 455 658 490 644 q 372 672 420 672 q 296 658 329 672 q 239 621 263 644 q 198 565 214 597 q 172 497 182 533 q 158 424 162 462 q 154 351 154 387 q 158 279 154 317 q 172 204 162 241 q 199 134 182 168 q 239 76 215 101 q 297 36 264 51 q 374 21 330 21 q 453 35 419 21 q 513 72 488 48 q 554 126 538 95 q 581 194 571 158 q 595 268 591 229 q 599 343 599 306 m 524 845 q 520 824 524 834 q 509 807 516 814 q 492 796 502 800 q 473 792 483 792 q 436 808 452 792 q 420 845 420 824 q 424 864 420 855 q 436 881 429 873 q 453 892 444 888 q 473 896 463 896 q 509 881 494 896 q 524 845 524 866 m 316 845 q 312 824 316 834 q 300 807 307 814 q 283 796 293 800 q 263 792 273 792 q 227 808 242 792 q 212 845 212 824 q 216 864 212 855 q 228 881 220 873 q 244 892 235 888 q 263 896 253 896 q 300 881 284 896 q 316 845 316 866 z "},"":{"ha":667,"x_min":65,"x_max":606,"o":"m 65 553 l 103 590 l 335 358 l 568 590 l 606 553 l 374 319 l 606 87 l 568 50 l 335 282 l 103 50 l 65 87 l 297 319 l 65 553 z "},"":{"ha":757,"x_min":37,"x_max":716,"o":"m 716 352 q 689 204 716 272 q 615 88 661 137 q 508 11 568 39 q 380 -16 447 -16 q 328 -12 355 -16 q 272 2 300 -7 q 218 25 245 11 q 168 58 192 39 l 103 -24 l 73 0 l 140 83 q 37 355 37 189 q 64 494 37 429 q 136 607 90 559 q 245 682 182 654 q 379 709 307 709 q 587 633 495 709 l 654 715 l 684 693 l 614 608 q 662 550 642 579 q 693 490 681 522 q 711 425 705 459 q 716 352 716 391 m 544 581 q 376 673 485 673 q 269 644 312 673 q 201 569 227 615 q 164 468 175 524 q 154 357 154 412 q 191 148 154 239 l 544 581 m 599 336 q 598 386 599 362 q 593 433 597 409 q 582 485 589 458 q 562 544 575 511 l 212 111 q 287 41 248 60 q 373 21 326 21 q 461 38 420 21 q 533 93 503 56 q 581 191 564 131 q 599 336 599 250 z "},"":{"ha":755,"x_min":16,"x_max":746,"o":"m 746 675 q 695 669 715 675 q 665 651 675 664 q 650 617 654 638 q 646 567 646 597 l 646 285 q 632 158 646 214 q 588 63 619 102 q 506 4 557 24 q 378 -17 454 -17 q 240 4 293 -17 q 157 65 186 25 q 116 164 127 106 q 106 298 106 223 l 106 571 q 103 619 106 600 q 91 651 100 639 q 64 669 82 664 q 16 675 46 675 l 16 693 l 294 693 l 294 675 q 247 669 264 675 q 220 651 229 664 q 207 619 210 639 q 204 571 204 600 l 204 268 q 211 176 204 220 q 236 99 217 132 q 291 47 256 66 q 385 28 327 28 q 474 43 431 28 q 551 90 517 58 q 578 131 568 106 q 592 185 587 157 q 598 241 597 213 q 599 290 599 269 l 599 571 q 596 624 599 604 q 582 655 593 644 q 552 671 572 667 q 500 675 532 675 l 500 693 l 746 693 l 746 675 m 438 757 l 288 852 q 242 897 242 880 q 274 937 242 937 q 335 903 301 937 l 481 757 l 438 757 z "},"":{"ha":755,"x_min":16,"x_max":746,"o":"m 746 675 q 695 669 715 675 q 665 651 675 664 q 650 617 654 638 q 646 567 646 597 l 646 285 q 632 158 646 214 q 588 63 619 102 q 506 4 557 24 q 378 -17 454 -17 q 240 4 293 -17 q 157 65 186 25 q 116 164 127 106 q 106 298 106 223 l 106 571 q 103 619 106 600 q 91 651 100 639 q 64 669 82 664 q 16 675 46 675 l 16 693 l 294 693 l 294 675 q 247 669 264 675 q 220 651 229 664 q 207 619 210 639 q 204 571 204 600 l 204 268 q 211 176 204 220 q 236 99 217 132 q 291 47 256 66 q 385 28 327 28 q 474 43 431 28 q 551 90 517 58 q 578 131 568 106 q 592 185 587 157 q 598 241 597 213 q 599 290 599 269 l 599 571 q 596 624 599 604 q 582 655 593 644 q 552 671 572 667 q 500 675 532 675 l 500 693 l 746 693 l 746 675 m 521 903 q 517 887 521 895 q 506 873 513 880 q 493 861 500 867 q 479 852 486 856 l 328 757 l 286 757 l 431 903 q 459 926 444 916 q 494 937 475 937 q 504 933 499 937 q 512 925 509 930 q 518 913 516 920 q 521 903 521 907 z "},"":{"ha":755,"x_min":16,"x_max":746,"o":"m 746 675 q 695 669 715 675 q 665 651 675 664 q 650 617 654 638 q 646 567 646 597 l 646 285 q 632 158 646 214 q 588 63 619 102 q 506 4 557 24 q 378 -17 454 -17 q 240 4 293 -17 q 157 65 186 25 q 116 164 127 106 q 106 298 106 223 l 106 571 q 103 619 106 600 q 91 651 100 639 q 64 669 82 664 q 16 675 46 675 l 16 693 l 294 693 l 294 675 q 247 669 264 675 q 220 651 229 664 q 207 619 210 639 q 204 571 204 600 l 204 268 q 211 176 204 220 q 236 99 217 132 q 291 47 256 66 q 385 28 327 28 q 474 43 431 28 q 551 90 517 58 q 578 131 568 106 q 592 185 587 157 q 598 241 597 213 q 599 290 599 269 l 599 571 q 596 624 599 604 q 582 655 593 644 q 552 671 572 667 q 500 675 532 675 l 500 693 l 746 693 l 746 675 m 508 750 l 380 859 l 252 750 l 216 750 l 349 925 l 414 925 l 544 750 l 508 750 z "},"":{"ha":755,"x_min":16,"x_max":746,"o":"m 746 675 q 695 669 715 675 q 665 651 675 664 q 650 617 654 638 q 646 567 646 597 l 646 285 q 632 158 646 214 q 588 63 619 102 q 506 4 557 24 q 378 -17 454 -17 q 240 4 293 -17 q 157 65 186 25 q 116 164 127 106 q 106 298 106 223 l 106 571 q 103 619 106 600 q 91 651 100 639 q 64 669 82 664 q 16 675 46 675 l 16 693 l 294 693 l 294 675 q 247 669 264 675 q 220 651 229 664 q 207 619 210 639 q 204 571 204 600 l 204 268 q 211 176 204 220 q 236 99 217 132 q 291 47 256 66 q 385 28 327 28 q 474 43 431 28 q 551 90 517 58 q 578 131 568 106 q 592 185 587 157 q 598 241 597 213 q 599 290 599 269 l 599 571 q 596 624 599 604 q 582 655 593 644 q 552 671 572 667 q 500 675 532 675 l 500 693 l 746 693 l 746 675 m 529 845 q 525 824 529 834 q 514 807 521 814 q 497 796 507 800 q 477 792 488 792 q 440 808 456 792 q 425 845 425 824 q 429 864 425 855 q 441 881 433 873 q 458 892 448 888 q 477 896 467 896 q 514 881 498 896 q 529 845 529 866 m 321 845 q 316 824 321 834 q 305 807 312 814 q 288 796 298 800 q 268 792 278 792 q 232 808 247 792 q 216 845 216 824 q 221 864 216 855 q 232 881 225 873 q 249 892 239 888 q 268 896 258 896 q 305 881 289 896 q 321 845 321 866 z "},"":{"ha":755,"x_min":9,"x_max":742,"o":"m 742 675 q 690 665 711 675 q 651 638 668 654 q 620 601 633 622 q 591 557 606 579 l 424 294 l 424 121 q 427 69 424 89 q 441 38 431 50 q 470 23 451 27 q 522 20 490 20 l 522 0 l 228 0 l 228 20 q 279 24 260 20 q 308 39 298 28 q 321 70 318 50 q 323 121 323 90 l 323 285 l 135 575 q 112 610 124 592 q 84 642 99 627 q 51 666 69 656 q 9 675 33 675 l 9 693 l 306 693 l 306 675 q 281 673 295 675 q 255 668 267 672 q 235 654 243 663 q 227 629 227 645 q 239 595 227 620 q 271 538 252 570 q 313 472 290 507 q 354 409 335 438 q 387 361 374 380 q 401 339 401 341 l 539 553 q 549 569 543 559 q 558 588 554 578 q 566 607 563 597 q 570 625 570 617 q 563 649 570 640 q 546 664 556 659 q 524 672 536 670 q 500 675 511 675 l 500 693 l 742 693 l 742 675 m 516 903 q 512 887 516 895 q 502 873 508 880 q 488 861 495 867 q 475 852 481 856 l 323 757 l 281 757 l 426 903 q 455 926 439 916 q 490 937 471 937 q 499 933 494 937 q 508 925 504 930 q 514 913 511 920 q 516 903 516 907 z "},"":{"ha":583,"x_min":19,"x_max":543,"o":"m 543 348 q 528 276 543 309 q 488 218 513 243 q 458 193 474 204 q 417 174 443 182 q 352 161 391 165 q 251 156 312 156 l 214 156 l 214 125 q 233 39 214 60 q 293 19 250 19 l 315 19 l 315 0 l 19 0 l 19 19 l 37 19 q 106 47 86 19 q 116 123 116 61 l 116 567 q 110 637 116 627 q 86 664 105 653 q 39 675 67 675 l 19 675 l 19 693 l 315 693 l 315 675 l 293 675 q 274 673 285 675 q 254 666 264 671 q 235 655 243 662 q 224 637 227 648 q 219 622 221 629 q 216 608 217 615 q 215 592 215 601 q 214 570 214 583 l 214 536 l 253 536 q 331 534 299 536 q 386 528 363 532 q 427 515 410 523 q 460 497 444 508 q 519 436 495 473 q 543 348 543 399 m 424 347 q 409 415 424 384 q 366 467 395 447 q 348 480 356 475 q 328 489 340 486 q 294 495 315 493 q 239 497 273 497 l 214 497 l 214 191 l 237 191 q 324 203 288 191 q 382 236 359 215 q 414 286 404 257 q 424 347 424 314 z "},"":{"ha":524,"x_min":18,"x_max":490,"o":"m 490 216 q 478 132 490 172 q 444 61 467 92 q 390 12 422 31 q 318 -6 358 -6 q 248 17 275 -6 q 220 77 221 40 q 230 109 218 96 q 260 121 241 121 q 291 110 281 121 q 303 81 302 99 q 300 62 304 73 q 297 46 297 51 q 305 29 297 34 q 327 22 313 24 q 382 57 361 22 q 403 160 403 91 q 394 255 403 212 q 367 328 385 297 q 320 376 349 358 q 253 396 292 393 l 253 425 q 299 432 279 425 q 334 456 319 439 q 355 498 348 472 q 363 564 363 525 q 356 623 363 599 q 335 663 349 648 q 304 686 322 679 q 264 693 286 693 q 227 687 244 693 q 197 663 210 680 q 178 613 185 645 q 171 530 171 581 l 171 0 l 18 0 l 18 19 q 51 24 38 20 q 72 38 64 28 q 82 67 79 49 q 85 115 85 85 l 85 495 q 97 602 85 557 q 132 673 109 646 q 189 714 155 701 q 268 728 223 728 q 342 715 309 728 q 399 682 376 703 q 435 629 422 660 q 448 562 448 598 q 445 522 448 542 q 430 484 441 502 q 401 449 420 465 q 351 420 382 433 q 454 351 418 401 q 490 216 490 301 z "},"":{"ha":465,"x_min":37,"x_max":464,"o":"m 464 68 q 443 41 454 55 q 417 16 431 27 q 387 -2 403 5 q 353 -9 370 -9 q 326 -3 336 -9 q 309 15 315 4 q 301 40 303 26 q 298 68 298 54 q 264 41 281 54 q 229 16 248 27 q 191 -2 211 5 q 149 -9 172 -9 q 101 0 122 -9 q 66 25 81 9 q 45 63 52 41 q 37 111 37 85 q 51 163 37 140 q 85 207 64 187 q 135 242 107 227 q 192 271 163 258 q 249 293 221 283 q 298 310 277 302 l 298 329 q 295 375 298 353 q 283 414 292 397 q 256 441 273 431 q 211 452 239 452 q 174 445 188 452 q 153 427 160 439 q 144 399 146 415 q 142 364 142 383 q 133 328 142 341 q 98 315 124 315 q 65 329 75 315 q 56 364 56 342 q 73 418 56 396 q 115 455 90 441 q 170 476 140 469 q 227 482 200 482 q 301 474 271 482 q 349 446 331 465 q 375 396 368 427 q 383 322 383 366 l 383 163 q 383 121 383 143 q 386 81 382 100 q 392 63 388 71 q 408 56 397 56 q 422 61 414 56 q 438 73 430 66 q 453 86 446 79 q 464 97 460 94 l 464 68 m 298 281 q 245 259 275 271 q 188 229 214 246 q 142 189 161 212 q 123 135 123 165 q 128 105 123 120 q 142 77 133 90 q 165 58 152 65 q 196 50 179 50 q 223 55 210 50 q 251 67 237 60 q 276 84 264 75 q 298 102 288 94 l 298 281 m 286 533 l 136 628 q 90 673 90 656 q 121 713 90 713 q 182 679 149 713 l 328 533 l 286 533 z "},"":{"ha":465,"x_min":37,"x_max":464,"o":"m 464 68 q 443 41 454 55 q 417 16 431 27 q 387 -2 403 5 q 353 -9 370 -9 q 326 -3 336 -9 q 309 15 315 4 q 301 40 303 26 q 298 68 298 54 q 264 41 281 54 q 229 16 248 27 q 191 -2 211 5 q 149 -9 172 -9 q 101 0 122 -9 q 66 25 81 9 q 45 63 52 41 q 37 111 37 85 q 51 163 37 140 q 85 207 64 187 q 135 242 107 227 q 192 271 163 258 q 249 293 221 283 q 298 310 277 302 l 298 329 q 295 375 298 353 q 283 414 292 397 q 256 441 273 431 q 211 452 239 452 q 174 445 188 452 q 153 427 160 439 q 144 399 146 415 q 142 364 142 383 q 133 328 142 341 q 98 315 124 315 q 65 329 75 315 q 56 364 56 342 q 73 418 56 396 q 115 455 90 441 q 170 476 140 469 q 227 482 200 482 q 301 474 271 482 q 349 446 331 465 q 375 396 368 427 q 383 322 383 366 l 383 163 q 383 121 383 143 q 386 81 382 100 q 392 63 388 71 q 408 56 397 56 q 422 61 414 56 q 438 73 430 66 q 453 86 446 79 q 464 97 460 94 l 464 68 m 298 281 q 245 259 275 271 q 188 229 214 246 q 142 189 161 212 q 123 135 123 165 q 128 105 123 120 q 142 77 133 90 q 165 58 152 65 q 196 50 179 50 q 223 55 210 50 q 251 67 237 60 q 276 84 264 75 q 298 102 288 94 l 298 281 m 368 679 q 364 663 368 671 q 354 649 360 656 q 340 637 347 643 q 327 628 333 632 l 176 533 l 134 533 l 278 679 q 307 702 291 692 q 342 713 323 713 q 351 709 347 713 q 360 701 356 706 q 366 690 363 696 q 368 679 368 684 z "},"":{"ha":465,"x_min":37,"x_max":464,"o":"m 464 68 q 443 41 454 55 q 417 16 431 27 q 387 -2 403 5 q 353 -9 370 -9 q 326 -3 336 -9 q 309 15 315 4 q 301 40 303 26 q 298 68 298 54 q 264 41 281 54 q 229 16 248 27 q 191 -2 211 5 q 149 -9 172 -9 q 101 0 122 -9 q 66 25 81 9 q 45 63 52 41 q 37 111 37 85 q 51 163 37 140 q 85 207 64 187 q 135 242 107 227 q 192 271 163 258 q 249 293 221 283 q 298 310 277 302 l 298 329 q 295 375 298 353 q 283 414 292 397 q 256 441 273 431 q 211 452 239 452 q 174 445 188 452 q 153 427 160 439 q 144 399 146 415 q 142 364 142 383 q 133 328 142 341 q 98 315 124 315 q 65 329 75 315 q 56 364 56 342 q 73 418 56 396 q 115 455 90 441 q 170 476 140 469 q 227 482 200 482 q 301 474 271 482 q 349 446 331 465 q 375 396 368 427 q 383 322 383 366 l 383 163 q 383 121 383 143 q 386 81 382 100 q 392 63 388 71 q 408 56 397 56 q 422 61 414 56 q 438 73 430 66 q 453 86 446 79 q 464 97 460 94 l 464 68 m 298 281 q 245 259 275 271 q 188 229 214 246 q 142 189 161 212 q 123 135 123 165 q 128 105 123 120 q 142 77 133 90 q 165 58 152 65 q 196 50 179 50 q 223 55 210 50 q 251 67 237 60 q 276 84 264 75 q 298 102 288 94 l 298 281 m 355 527 l 228 635 l 100 527 l 64 527 l 196 702 l 261 702 l 391 527 l 355 527 z "},"":{"ha":465,"x_min":37,"x_max":464,"o":"m 464 68 q 443 41 454 55 q 417 16 431 27 q 387 -2 403 5 q 353 -9 370 -9 q 326 -3 336 -9 q 309 15 315 4 q 301 40 303 26 q 298 68 298 54 q 264 41 281 54 q 229 16 248 27 q 191 -2 211 5 q 149 -9 172 -9 q 101 0 122 -9 q 66 25 81 9 q 45 63 52 41 q 37 111 37 85 q 51 163 37 140 q 85 207 64 187 q 135 242 107 227 q 192 271 163 258 q 249 293 221 283 q 298 310 277 302 l 298 329 q 295 375 298 353 q 283 414 292 397 q 256 441 273 431 q 211 452 239 452 q 174 445 188 452 q 153 427 160 439 q 144 399 146 415 q 142 364 142 383 q 133 328 142 341 q 98 315 124 315 q 65 329 75 315 q 56 364 56 342 q 73 418 56 396 q 115 455 90 441 q 170 476 140 469 q 227 482 200 482 q 301 474 271 482 q 349 446 331 465 q 375 396 368 427 q 383 322 383 366 l 383 163 q 383 121 383 143 q 386 81 382 100 q 392 63 388 71 q 408 56 397 56 q 422 61 414 56 q 438 73 430 66 q 453 86 446 79 q 464 97 460 94 l 464 68 m 298 281 q 245 259 275 271 q 188 229 214 246 q 142 189 161 212 q 123 135 123 165 q 128 105 123 120 q 142 77 133 90 q 165 58 152 65 q 196 50 179 50 q 223 55 210 50 q 251 67 237 60 q 276 84 264 75 q 298 102 288 94 l 298 281 m 402 687 q 391 646 400 666 q 367 610 381 626 q 333 585 352 594 q 291 575 313 575 q 245 583 262 575 q 212 600 227 591 q 181 616 197 609 q 140 624 165 624 q 119 620 130 624 q 101 608 109 615 q 87 593 93 602 q 81 575 82 584 l 54 575 q 68 617 59 597 q 92 651 78 637 q 126 673 106 665 q 170 682 145 682 q 205 674 190 682 q 236 659 221 667 q 267 643 251 650 q 302 635 282 635 q 348 649 328 635 q 375 687 369 662 l 402 687 z "},"":{"ha":465,"x_min":37,"x_max":464,"o":"m 464 68 q 443 41 454 55 q 417 16 431 27 q 387 -2 403 5 q 353 -9 370 -9 q 326 -3 336 -9 q 309 15 315 4 q 301 40 303 26 q 298 68 298 54 q 264 41 281 54 q 229 16 248 27 q 191 -2 211 5 q 149 -9 172 -9 q 101 0 122 -9 q 66 25 81 9 q 45 63 52 41 q 37 111 37 85 q 51 163 37 140 q 85 207 64 187 q 135 242 107 227 q 192 271 163 258 q 249 293 221 283 q 298 310 277 302 l 298 329 q 295 375 298 353 q 283 414 292 397 q 256 441 273 431 q 211 452 239 452 q 174 445 188 452 q 153 427 160 439 q 144 399 146 415 q 142 364 142 383 q 133 328 142 341 q 98 315 124 315 q 65 329 75 315 q 56 364 56 342 q 73 418 56 396 q 115 455 90 441 q 170 476 140 469 q 227 482 200 482 q 301 474 271 482 q 349 446 331 465 q 375 396 368 427 q 383 322 383 366 l 383 163 q 383 121 383 143 q 386 81 382 100 q 392 63 388 71 q 408 56 397 56 q 422 61 414 56 q 438 73 430 66 q 453 86 446 79 q 464 97 460 94 l 464 68 m 298 281 q 245 259 275 271 q 188 229 214 246 q 142 189 161 212 q 123 135 123 165 q 128 105 123 120 q 142 77 133 90 q 165 58 152 65 q 196 50 179 50 q 223 55 210 50 q 251 67 237 60 q 276 84 264 75 q 298 102 288 94 l 298 281 m 376 622 q 372 601 376 611 q 361 584 368 591 q 345 573 354 577 q 325 569 335 569 q 288 585 304 569 q 272 622 272 601 q 276 641 272 632 q 288 657 281 650 q 305 669 296 665 q 325 673 315 673 q 361 658 346 673 q 376 622 376 643 m 168 622 q 164 601 168 611 q 152 584 159 591 q 135 573 145 577 q 115 569 125 569 q 79 585 94 569 q 64 622 64 601 q 68 641 64 632 q 80 657 73 650 q 96 669 87 665 q 115 673 105 673 q 152 658 136 673 q 168 622 168 643 z "},"":{"ha":465,"x_min":37,"x_max":464,"o":"m 464 68 q 443 41 454 55 q 417 16 431 27 q 387 -2 403 5 q 353 -9 370 -9 q 326 -3 336 -9 q 309 15 315 4 q 301 40 303 26 q 298 68 298 54 q 264 41 281 54 q 229 16 248 27 q 191 -2 211 5 q 149 -9 172 -9 q 101 0 122 -9 q 66 25 81 9 q 45 63 52 41 q 37 111 37 85 q 51 163 37 140 q 85 207 64 187 q 135 242 107 227 q 192 271 163 258 q 249 293 221 283 q 298 310 277 302 l 298 329 q 295 375 298 353 q 283 414 292 397 q 256 441 273 431 q 211 452 239 452 q 174 445 188 452 q 153 427 160 439 q 144 399 146 415 q 142 364 142 383 q 133 328 142 341 q 98 315 124 315 q 65 329 75 315 q 56 364 56 342 q 73 418 56 396 q 115 455 90 441 q 170 476 140 469 q 227 482 200 482 q 301 474 271 482 q 349 446 331 465 q 375 396 368 427 q 383 322 383 366 l 383 163 q 383 121 383 143 q 386 81 382 100 q 392 63 388 71 q 408 56 397 56 q 422 61 414 56 q 438 73 430 66 q 453 86 446 79 q 464 97 460 94 l 464 68 m 298 281 q 245 259 275 271 q 188 229 214 246 q 142 189 161 212 q 123 135 123 165 q 128 105 123 120 q 142 77 133 90 q 165 58 152 65 q 196 50 179 50 q 223 55 210 50 q 251 67 237 60 q 276 84 264 75 q 298 102 288 94 l 298 281 m 326 631 q 317 591 326 609 q 296 560 309 573 q 265 540 282 547 q 229 533 248 533 q 193 540 211 533 q 161 560 176 547 q 139 591 147 573 q 130 631 130 609 q 138 670 130 652 q 160 701 146 688 q 192 721 174 714 q 229 728 210 728 q 265 722 248 728 q 296 702 282 715 q 317 671 309 690 q 326 631 326 653 m 290 631 q 285 656 290 645 q 272 676 280 668 q 252 689 263 684 q 229 693 241 693 q 184 676 203 693 q 165 631 165 659 q 171 604 165 616 q 185 585 176 593 q 205 572 194 576 q 229 568 217 568 q 253 573 242 568 q 273 587 264 578 q 286 607 281 595 q 290 631 290 618 z "},"":{"ha":699,"x_min":37,"x_max":667,"o":"m 667 163 q 643 97 658 129 q 604 40 627 64 q 550 0 581 15 q 477 -15 519 -15 q 442 -13 460 -15 q 406 -3 425 -11 q 369 22 388 5 q 327 67 349 38 q 299 44 316 58 q 259 17 281 30 q 210 -6 237 3 q 152 -15 182 -15 q 107 -6 128 -15 q 71 19 87 3 q 46 57 56 35 q 37 103 37 79 q 51 164 37 138 q 94 212 64 190 q 172 256 124 234 q 288 305 220 278 l 288 352 q 268 431 288 408 q 212 454 248 454 q 160 438 179 454 q 140 399 141 422 q 137 356 140 372 q 130 332 134 340 q 117 321 125 324 q 100 317 110 319 q 64 332 75 317 q 54 366 54 347 q 64 406 54 385 q 95 443 74 426 q 149 471 116 460 q 226 481 181 481 q 321 464 290 481 q 363 420 353 447 q 422 468 389 454 q 500 481 455 481 q 621 432 576 481 q 667 290 666 382 l 375 290 q 380 187 375 227 q 401 122 385 147 q 424 93 411 104 q 452 75 437 81 q 480 65 466 68 q 506 62 494 62 q 530 64 513 62 q 568 76 547 66 q 612 110 589 87 q 651 175 634 133 l 667 163 m 569 323 q 561 379 568 356 q 541 418 553 403 q 511 439 528 433 q 475 446 494 446 q 437 439 455 446 q 406 416 419 431 q 384 378 392 401 q 375 323 376 355 l 569 323 m 313 95 q 303 120 307 105 q 295 152 298 135 q 290 189 292 170 q 288 227 288 208 l 288 272 q 230 249 260 261 q 177 220 201 237 q 139 182 154 204 q 124 132 124 161 q 131 96 124 113 q 148 67 137 80 q 174 48 159 55 q 205 40 189 41 q 225 42 216 40 q 248 50 235 44 q 276 67 260 56 q 313 95 292 78 z "},"":{"ha":465,"x_min":35,"x_max":431,"o":"m 431 178 q 408 106 425 141 q 367 45 392 72 q 308 1 341 18 q 235 -16 275 -16 q 146 6 184 -16 q 84 64 109 28 q 47 144 59 100 q 35 233 35 189 q 50 327 35 282 q 95 407 66 372 q 165 462 124 441 q 258 482 207 482 q 310 475 282 482 q 361 454 338 468 q 401 418 385 439 q 418 370 418 397 q 405 336 418 347 q 370 326 391 326 q 336 335 347 326 q 320 358 325 345 q 313 388 315 372 q 305 417 311 404 q 284 440 298 431 q 241 449 270 449 q 184 433 208 449 q 146 392 161 417 q 126 337 132 367 q 119 278 119 307 q 127 206 119 243 q 154 138 136 169 q 201 86 172 106 q 271 66 230 66 q 321 76 299 66 q 361 102 344 86 q 392 140 378 119 q 415 184 405 161 l 431 178 m 366 -147 q 352 -188 366 -172 q 318 -215 338 -205 q 274 -230 298 -226 q 231 -235 250 -235 q 146 -219 189 -235 l 161 -186 q 227 -199 195 -199 q 249 -197 238 -199 q 269 -190 260 -195 q 282 -176 277 -184 q 288 -154 288 -168 q 274 -122 288 -131 q 239 -114 260 -114 q 220 -115 230 -114 q 201 -119 211 -116 l 195 -114 l 238 -9 l 275 -9 l 249 -77 q 263 -75 256 -76 q 278 -75 271 -75 q 311 -79 296 -75 q 339 -92 327 -83 q 358 -115 351 -101 q 366 -147 366 -128 z "},"":{"ha":465,"x_min":39,"x_max":435,"o":"m 435 171 q 414 101 430 134 q 372 41 397 67 q 314 0 347 16 q 243 -16 281 -16 q 154 5 193 -16 q 90 61 116 26 q 52 140 64 96 q 39 229 39 184 q 52 326 39 280 q 92 406 65 372 q 160 461 119 441 q 256 482 201 482 q 331 468 298 482 q 387 428 364 454 q 422 368 410 403 q 435 292 435 333 l 111 292 q 121 214 111 254 q 153 143 132 175 q 206 90 174 111 q 282 69 238 69 q 331 78 309 69 q 369 101 352 86 q 398 137 385 117 q 419 182 410 158 l 435 171 m 328 321 q 322 367 328 345 q 303 407 316 389 q 272 435 291 424 q 227 446 253 446 q 180 435 200 446 q 145 407 159 425 q 122 367 130 390 q 111 321 113 345 l 328 321 m 312 533 l 162 628 q 116 673 116 656 q 148 713 116 713 q 209 679 175 713 l 355 533 l 312 533 z "},"":{"ha":465,"x_min":39,"x_max":435,"o":"m 435 171 q 414 101 430 134 q 372 41 397 67 q 314 0 347 16 q 243 -16 281 -16 q 154 5 193 -16 q 90 61 116 26 q 52 140 64 96 q 39 229 39 184 q 52 326 39 280 q 92 406 65 372 q 160 461 119 441 q 256 482 201 482 q 331 468 298 482 q 387 428 364 454 q 422 368 410 403 q 435 292 435 333 l 111 292 q 121 214 111 254 q 153 143 132 175 q 206 90 174 111 q 282 69 238 69 q 331 78 309 69 q 369 101 352 86 q 398 137 385 117 q 419 182 410 158 l 435 171 m 328 321 q 322 367 328 345 q 303 407 316 389 q 272 435 291 424 q 227 446 253 446 q 180 435 200 446 q 145 407 159 425 q 122 367 130 390 q 111 321 113 345 l 328 321 m 395 679 q 391 663 395 671 q 380 649 387 656 q 367 637 374 643 q 353 628 359 632 l 202 533 l 160 533 l 304 679 q 333 702 317 692 q 368 713 349 713 q 378 709 373 713 q 386 701 382 706 q 392 690 390 696 q 395 679 395 684 z "},"":{"ha":465,"x_min":39,"x_max":435,"o":"m 435 171 q 414 101 430 134 q 372 41 397 67 q 314 0 347 16 q 243 -16 281 -16 q 154 5 193 -16 q 90 61 116 26 q 52 140 64 96 q 39 229 39 184 q 52 326 39 280 q 92 406 65 372 q 160 461 119 441 q 256 482 201 482 q 331 468 298 482 q 387 428 364 454 q 422 368 410 403 q 435 292 435 333 l 111 292 q 121 214 111 254 q 153 143 132 175 q 206 90 174 111 q 282 69 238 69 q 331 78 309 69 q 369 101 352 86 q 398 137 385 117 q 419 182 410 158 l 435 171 m 328 321 q 322 367 328 345 q 303 407 316 389 q 272 435 291 424 q 227 446 253 446 q 180 435 200 446 q 145 407 159 425 q 122 367 130 390 q 111 321 113 345 l 328 321 m 382 527 l 254 635 l 126 527 l 90 527 l 222 702 l 288 702 l 418 527 l 382 527 z "},"":{"ha":465,"x_min":39,"x_max":435,"o":"m 435 171 q 414 101 430 134 q 372 41 397 67 q 314 0 347 16 q 243 -16 281 -16 q 154 5 193 -16 q 90 61 116 26 q 52 140 64 96 q 39 229 39 184 q 52 326 39 280 q 92 406 65 372 q 160 461 119 441 q 256 482 201 482 q 331 468 298 482 q 387 428 364 454 q 422 368 410 403 q 435 292 435 333 l 111 292 q 121 214 111 254 q 153 143 132 175 q 206 90 174 111 q 282 69 238 69 q 331 78 309 69 q 369 101 352 86 q 398 137 385 117 q 419 182 410 158 l 435 171 m 328 321 q 322 367 328 345 q 303 407 316 389 q 272 435 291 424 q 227 446 253 446 q 180 435 200 446 q 145 407 159 425 q 122 367 130 390 q 111 321 113 345 l 328 321 m 403 622 q 399 601 403 611 q 388 584 395 591 q 371 573 380 577 q 351 569 361 569 q 314 585 330 569 q 298 622 298 601 q 303 641 298 632 q 315 657 307 650 q 332 669 322 665 q 351 673 341 673 q 388 658 372 673 q 403 622 403 643 m 195 622 q 190 601 195 611 q 179 584 186 591 q 162 573 172 577 q 142 569 152 569 q 105 585 121 569 q 90 622 90 601 q 95 641 90 632 q 106 657 99 650 q 122 669 113 665 q 142 673 132 673 q 179 658 163 673 q 195 622 195 643 z "},"":{"ha":292,"x_min":12,"x_max":268,"o":"m 39 0 l 39 20 q 76 23 62 20 q 98 35 90 26 q 109 59 106 44 q 111 96 111 73 l 111 346 q 110 367 111 355 q 106 389 109 378 q 95 408 102 400 q 75 415 87 415 q 57 413 66 415 q 39 407 48 410 l 32 425 l 174 482 l 196 482 l 196 96 q 199 59 196 73 q 209 35 201 44 q 231 23 217 26 q 268 20 245 20 l 268 0 l 39 0 m 208 533 l 58 628 q 12 673 12 656 q 44 713 12 713 q 105 679 71 713 l 251 533 l 208 533 z "},"":{"ha":292,"x_min":32,"x_max":291,"o":"m 39 0 l 39 20 q 76 23 62 20 q 98 35 90 26 q 109 59 106 44 q 111 96 111 73 l 111 346 q 110 367 111 355 q 106 389 109 378 q 95 408 102 400 q 75 415 87 415 q 57 413 66 415 q 39 407 48 410 l 32 425 l 174 482 l 196 482 l 196 96 q 199 59 196 73 q 209 35 201 44 q 231 23 217 26 q 268 20 245 20 l 268 0 l 39 0 m 291 679 q 287 663 291 671 q 276 649 283 656 q 263 637 270 643 q 250 628 256 632 l 98 533 l 56 533 l 201 679 q 230 702 214 692 q 264 713 245 713 q 274 709 269 713 q 282 701 279 706 q 289 690 286 696 q 291 679 291 684 z "},"":{"ha":292,"x_min":-14,"x_max":314,"o":"m 39 0 l 39 20 q 76 23 62 20 q 98 35 90 26 q 109 59 106 44 q 111 96 111 73 l 111 346 q 110 367 111 355 q 106 389 109 378 q 95 408 102 400 q 75 415 87 415 q 57 413 66 415 q 39 407 48 410 l 32 425 l 174 482 l 196 482 l 196 96 q 199 59 196 73 q 209 35 201 44 q 231 23 217 26 q 268 20 245 20 l 268 0 l 39 0 m 278 527 l 151 635 l 22 527 l -14 527 l 119 702 l 184 702 l 314 527 l 278 527 z "},"":{"ha":292,"x_min":-14,"x_max":299,"o":"m 39 0 l 39 20 q 76 23 62 20 q 98 35 90 26 q 109 59 106 44 q 111 96 111 73 l 111 346 q 110 367 111 355 q 106 389 109 378 q 95 408 102 400 q 75 415 87 415 q 57 413 66 415 q 39 407 48 410 l 32 425 l 174 482 l 196 482 l 196 96 q 199 59 196 73 q 209 35 201 44 q 231 23 217 26 q 268 20 245 20 l 268 0 l 39 0 m 299 622 q 295 601 299 611 q 284 584 291 591 q 267 573 277 577 q 248 569 258 569 q 211 585 227 569 q 195 622 195 601 q 199 641 195 632 q 211 657 203 650 q 228 669 218 665 q 248 673 237 673 q 284 658 269 673 q 299 622 299 643 m 91 622 q 86 601 91 611 q 75 584 82 591 q 58 573 68 577 q 38 569 48 569 q 2 585 17 569 q -14 622 -14 601 q -9 641 -14 632 q 2 657 -5 650 q 19 669 9 665 q 38 673 28 673 q 75 658 59 673 q 91 622 91 643 z "},"":{"ha":524,"x_min":35,"x_max":486,"o":"m 486 242 q 470 147 486 193 q 425 65 454 101 q 353 7 395 29 q 256 -15 310 -15 q 169 3 209 -15 q 98 54 128 22 q 52 130 68 86 q 35 226 35 174 q 51 320 35 275 q 95 400 66 366 q 164 456 124 435 q 250 477 203 477 q 270 477 261 477 q 289 474 279 477 q 310 465 298 471 q 336 448 321 459 q 292 528 316 490 q 239 599 269 565 l 113 529 l 99 557 l 218 625 q 189 652 201 642 q 168 672 178 663 q 147 688 157 680 q 122 705 136 695 l 135 728 q 197 692 166 712 q 262 649 229 673 l 389 720 l 407 691 l 290 625 q 373 536 336 583 q 435 440 410 489 q 473 341 460 391 q 486 242 486 291 m 391 193 q 381 298 391 251 q 351 378 370 345 q 304 429 332 411 q 245 447 277 447 q 202 438 222 447 q 165 408 181 429 q 139 352 149 387 q 129 265 130 317 q 139 170 129 214 q 170 93 150 126 q 218 41 190 60 q 280 22 245 22 q 324 32 304 22 q 359 62 345 41 q 383 115 374 83 q 391 193 391 147 z "},"":{"ha":524,"x_min":5,"x_max":522,"o":"m 288 0 l 288 20 q 329 24 314 20 q 352 38 345 28 q 362 64 360 47 q 364 106 364 81 l 364 297 q 362 338 364 317 q 353 378 361 360 q 331 408 346 396 q 290 419 316 419 q 255 413 272 419 q 223 398 238 408 q 194 377 208 389 q 170 353 181 365 l 170 106 q 172 65 170 81 q 181 38 174 48 q 204 24 189 28 q 245 20 219 20 l 245 0 l 12 0 l 12 20 q 52 25 38 20 q 74 40 66 30 q 82 67 81 51 q 83 106 83 83 l 83 281 q 84 314 83 292 q 82 359 85 336 q 72 398 80 381 q 47 415 64 415 q 30 413 39 415 q 12 407 21 410 l 5 425 l 149 482 l 170 482 l 170 383 q 201 418 184 401 q 238 450 218 436 q 280 473 258 465 q 326 482 302 482 q 388 467 364 482 q 426 426 412 451 q 444 369 439 400 q 449 306 449 338 l 449 106 q 451 67 449 83 q 460 40 453 51 q 482 25 467 30 q 522 20 497 20 l 522 0 l 288 0 m 438 687 q 427 646 436 666 q 402 610 417 626 q 369 585 388 594 q 327 575 349 575 q 281 583 298 575 q 248 600 263 591 q 217 616 233 609 q 176 624 201 624 q 155 620 165 624 q 137 608 145 615 q 123 593 129 602 q 117 575 118 584 l 90 575 q 104 617 95 597 q 128 651 114 637 q 162 673 142 665 q 205 682 181 682 q 241 674 226 682 q 272 659 257 667 q 302 643 287 650 q 338 635 318 635 q 384 649 363 635 q 411 687 405 662 l 438 687 z "},"":{"ha":524,"x_min":35,"x_max":488,"o":"m 488 243 q 472 145 488 192 q 426 63 456 98 q 353 6 396 27 q 257 -16 311 -16 q 165 5 206 -16 q 95 60 124 26 q 51 138 66 94 q 35 229 35 182 q 51 325 35 279 q 96 405 66 370 q 168 461 126 440 q 262 482 210 482 q 355 464 313 482 q 426 412 397 445 q 472 336 456 380 q 488 243 488 292 m 392 203 q 389 252 392 225 q 380 307 387 279 q 362 360 373 334 q 335 405 351 385 q 297 437 319 425 q 245 449 275 449 q 189 432 211 449 q 153 388 166 414 q 136 331 140 362 q 131 272 131 300 q 134 222 131 250 q 144 168 137 195 q 162 114 151 140 q 189 67 173 87 q 228 35 205 47 q 278 22 250 22 q 337 40 315 22 q 372 84 359 57 q 388 142 384 111 q 392 203 392 174 m 319 533 l 169 628 q 123 673 123 656 q 155 713 123 713 q 216 679 182 713 l 361 533 l 319 533 z "},"":{"ha":524,"x_min":35,"x_max":488,"o":"m 488 243 q 472 145 488 192 q 426 63 456 98 q 353 6 396 27 q 257 -16 311 -16 q 165 5 206 -16 q 95 60 124 26 q 51 138 66 94 q 35 229 35 182 q 51 325 35 279 q 96 405 66 370 q 168 461 126 440 q 262 482 210 482 q 355 464 313 482 q 426 412 397 445 q 472 336 456 380 q 488 243 488 292 m 392 203 q 389 252 392 225 q 380 307 387 279 q 362 360 373 334 q 335 405 351 385 q 297 437 319 425 q 245 449 275 449 q 189 432 211 449 q 153 388 166 414 q 136 331 140 362 q 131 272 131 300 q 134 222 131 250 q 144 168 137 195 q 162 114 151 140 q 189 67 173 87 q 228 35 205 47 q 278 22 250 22 q 337 40 315 22 q 372 84 359 57 q 388 142 384 111 q 392 203 392 174 m 401 679 q 397 663 401 671 q 387 649 393 656 q 373 637 380 643 q 360 628 366 632 l 209 533 l 167 533 l 311 679 q 340 702 324 692 q 375 713 356 713 q 385 709 380 713 q 393 701 389 706 q 399 690 397 696 q 401 679 401 684 z "},"":{"ha":524,"x_min":35,"x_max":488,"o":"m 488 243 q 472 145 488 192 q 426 63 456 98 q 353 6 396 27 q 257 -16 311 -16 q 165 5 206 -16 q 95 60 124 26 q 51 138 66 94 q 35 229 35 182 q 51 325 35 279 q 96 405 66 370 q 168 461 126 440 q 262 482 210 482 q 355 464 313 482 q 426 412 397 445 q 472 336 456 380 q 488 243 488 292 m 392 203 q 389 252 392 225 q 380 307 387 279 q 362 360 373 334 q 335 405 351 385 q 297 437 319 425 q 245 449 275 449 q 189 432 211 449 q 153 388 166 414 q 136 331 140 362 q 131 272 131 300 q 134 222 131 250 q 144 168 137 195 q 162 114 151 140 q 189 67 173 87 q 228 35 205 47 q 278 22 250 22 q 337 40 315 22 q 372 84 359 57 q 388 142 384 111 q 392 203 392 174 m 389 527 l 261 635 l 133 527 l 97 527 l 229 702 l 294 702 l 425 527 l 389 527 z "},"":{"ha":524,"x_min":35,"x_max":488,"o":"m 488 243 q 472 145 488 192 q 426 63 456 98 q 353 6 396 27 q 257 -16 311 -16 q 165 5 206 -16 q 95 60 124 26 q 51 138 66 94 q 35 229 35 182 q 51 325 35 279 q 96 405 66 370 q 168 461 126 440 q 262 482 210 482 q 355 464 313 482 q 426 412 397 445 q 472 336 456 380 q 488 243 488 292 m 392 203 q 389 252 392 225 q 380 307 387 279 q 362 360 373 334 q 335 405 351 385 q 297 437 319 425 q 245 449 275 449 q 189 432 211 449 q 153 388 166 414 q 136 331 140 362 q 131 272 131 300 q 134 222 131 250 q 144 168 137 195 q 162 114 151 140 q 189 67 173 87 q 228 35 205 47 q 278 22 250 22 q 337 40 315 22 q 372 84 359 57 q 388 142 384 111 q 392 203 392 174 m 435 687 q 424 646 433 666 q 400 610 414 626 q 366 585 385 594 q 324 575 347 575 q 278 583 296 575 q 245 600 260 591 q 215 616 231 609 q 174 624 199 624 q 153 620 163 624 q 134 608 142 615 q 121 593 126 602 q 114 575 115 584 l 87 575 q 102 617 92 597 q 125 651 111 637 q 159 673 140 665 q 203 682 178 682 q 239 674 223 682 q 269 659 254 667 q 300 643 284 650 q 336 635 315 635 q 381 649 361 635 q 408 687 402 662 l 435 687 z "},"":{"ha":524,"x_min":35,"x_max":488,"o":"m 488 243 q 472 145 488 192 q 426 63 456 98 q 353 6 396 27 q 257 -16 311 -16 q 165 5 206 -16 q 95 60 124 26 q 51 138 66 94 q 35 229 35 182 q 51 325 35 279 q 96 405 66 370 q 168 461 126 440 q 262 482 210 482 q 355 464 313 482 q 426 412 397 445 q 472 336 456 380 q 488 243 488 292 m 392 203 q 389 252 392 225 q 380 307 387 279 q 362 360 373 334 q 335 405 351 385 q 297 437 319 425 q 245 449 275 449 q 189 432 211 449 q 153 388 166 414 q 136 331 140 362 q 131 272 131 300 q 134 222 131 250 q 144 168 137 195 q 162 114 151 140 q 189 67 173 87 q 228 35 205 47 q 278 22 250 22 q 337 40 315 22 q 372 84 359 57 q 388 142 384 111 q 392 203 392 174 m 410 622 q 406 601 410 611 q 394 584 401 591 q 378 573 387 577 q 358 569 368 569 q 321 585 337 569 q 305 622 305 601 q 310 641 305 632 q 321 657 314 650 q 338 669 329 665 q 358 673 348 673 q 394 658 379 673 q 410 622 410 643 m 201 622 q 197 601 201 611 q 185 584 193 591 q 169 573 178 577 q 149 569 159 569 q 112 585 127 569 q 97 622 97 601 q 101 641 97 632 q 113 657 106 650 q 129 669 120 665 q 149 673 138 673 q 185 658 170 673 q 201 622 201 643 z "},"":{"ha":606,"x_min":79,"x_max":536,"o":"m 536 260 l 79 260 l 79 322 l 536 322 l 536 260 m 244 472 q 249 497 244 486 q 262 517 254 509 q 283 531 271 526 q 307 536 294 536 q 332 531 320 536 q 352 517 343 526 q 366 497 361 509 q 371 472 371 486 q 366 448 371 459 q 352 428 361 436 q 332 414 343 419 q 307 410 320 410 q 283 414 294 410 q 262 428 271 419 q 249 448 254 436 q 244 472 244 459 m 244 110 q 249 134 244 123 q 262 154 254 146 q 283 168 271 163 q 307 172 294 172 q 332 168 320 172 q 352 154 343 163 q 366 134 361 146 q 371 110 371 123 q 366 85 371 96 q 352 64 361 73 q 332 51 343 56 q 307 46 320 46 q 262 64 281 46 q 244 110 244 83 z "},"":{"ha":524,"x_min":20,"x_max":504,"o":"m 435 401 q 475 327 461 366 q 490 242 490 287 q 476 153 490 199 q 433 71 462 108 q 361 9 404 33 q 259 -15 317 -15 q 221 -12 239 -15 q 185 -2 203 -9 q 150 16 168 5 q 113 44 132 28 l 44 -35 l 20 -12 l 92 69 q 70 104 80 84 q 53 145 60 123 q 42 190 46 168 q 37 233 38 212 q 52 319 37 275 q 97 400 67 363 q 169 459 126 436 q 266 481 211 481 q 305 479 287 481 q 341 470 323 476 q 376 452 359 463 q 413 425 394 441 l 481 500 l 504 479 l 435 401 m 361 368 q 334 407 347 391 q 308 432 321 422 q 280 445 294 441 q 250 448 267 448 q 203 439 225 448 q 166 408 182 429 q 142 354 151 387 q 133 272 133 320 q 138 207 133 241 q 153 138 142 174 l 361 368 m 395 205 q 375 334 395 266 l 168 105 q 193 65 181 81 q 219 40 205 50 q 247 26 232 31 q 280 22 262 22 q 326 32 304 22 q 362 62 347 41 q 386 119 377 83 q 395 205 395 154 z "},"":{"ha":524,"x_min":0,"x_max":525,"o":"m 383 -16 l 359 -16 l 359 85 q 326 50 344 68 q 289 18 309 33 q 247 -6 269 3 q 200 -16 224 -16 q 138 1 162 -16 q 101 45 115 18 q 84 104 88 71 q 79 167 79 136 l 79 376 q 75 414 79 399 q 62 436 71 428 q 37 446 52 444 q 0 449 22 449 l 0 468 l 165 468 l 165 155 q 169 116 165 135 q 180 82 172 97 q 204 58 189 67 q 243 49 219 49 q 276 55 260 49 q 307 71 292 61 q 335 92 322 80 q 359 115 349 104 l 359 380 q 355 415 359 402 q 341 436 351 429 q 318 446 332 444 q 283 449 303 449 l 283 468 l 444 468 l 444 123 q 445 104 444 116 q 449 80 446 92 q 458 61 452 69 q 476 53 465 53 q 518 61 497 53 l 525 43 l 383 -16 m 320 533 l 170 628 q 124 673 124 656 q 156 713 124 713 q 217 679 183 713 l 363 533 l 320 533 z "},"":{"ha":524,"x_min":0,"x_max":525,"o":"m 383 -16 l 359 -16 l 359 85 q 326 50 344 68 q 289 18 309 33 q 247 -6 269 3 q 200 -16 224 -16 q 138 1 162 -16 q 101 45 115 18 q 84 104 88 71 q 79 167 79 136 l 79 376 q 75 414 79 399 q 62 436 71 428 q 37 446 52 444 q 0 449 22 449 l 0 468 l 165 468 l 165 155 q 169 116 165 135 q 180 82 172 97 q 204 58 189 67 q 243 49 219 49 q 276 55 260 49 q 307 71 292 61 q 335 92 322 80 q 359 115 349 104 l 359 380 q 355 415 359 402 q 341 436 351 429 q 318 446 332 444 q 283 449 303 449 l 283 468 l 444 468 l 444 123 q 445 104 444 116 q 449 80 446 92 q 458 61 452 69 q 476 53 465 53 q 518 61 497 53 l 525 43 l 383 -16 m 403 679 q 399 663 403 671 q 388 649 395 656 q 375 637 382 643 q 361 628 368 632 l 210 533 l 168 533 l 313 679 q 341 702 326 692 q 376 713 357 713 q 386 709 381 713 q 394 701 391 706 q 400 690 398 696 q 403 679 403 684 z "},"":{"ha":524,"x_min":0,"x_max":525,"o":"m 383 -16 l 359 -16 l 359 85 q 326 50 344 68 q 289 18 309 33 q 247 -6 269 3 q 200 -16 224 -16 q 138 1 162 -16 q 101 45 115 18 q 84 104 88 71 q 79 167 79 136 l 79 376 q 75 414 79 399 q 62 436 71 428 q 37 446 52 444 q 0 449 22 449 l 0 468 l 165 468 l 165 155 q 169 116 165 135 q 180 82 172 97 q 204 58 189 67 q 243 49 219 49 q 276 55 260 49 q 307 71 292 61 q 335 92 322 80 q 359 115 349 104 l 359 380 q 355 415 359 402 q 341 436 351 429 q 318 446 332 444 q 283 449 303 449 l 283 468 l 444 468 l 444 123 q 445 104 444 116 q 449 80 446 92 q 458 61 452 69 q 476 53 465 53 q 518 61 497 53 l 525 43 l 383 -16 m 390 527 l 262 635 l 134 527 l 98 527 l 231 702 l 296 702 l 426 527 l 390 527 z "},"":{"ha":524,"x_min":0,"x_max":525,"o":"m 383 -16 l 359 -16 l 359 85 q 326 50 344 68 q 289 18 309 33 q 247 -6 269 3 q 200 -16 224 -16 q 138 1 162 -16 q 101 45 115 18 q 84 104 88 71 q 79 167 79 136 l 79 376 q 75 414 79 399 q 62 436 71 428 q 37 446 52 444 q 0 449 22 449 l 0 468 l 165 468 l 165 155 q 169 116 165 135 q 180 82 172 97 q 204 58 189 67 q 243 49 219 49 q 276 55 260 49 q 307 71 292 61 q 335 92 322 80 q 359 115 349 104 l 359 380 q 355 415 359 402 q 341 436 351 429 q 318 446 332 444 q 283 449 303 449 l 283 468 l 444 468 l 444 123 q 445 104 444 116 q 449 80 446 92 q 458 61 452 69 q 476 53 465 53 q 518 61 497 53 l 525 43 l 383 -16 m 411 622 q 407 601 411 611 q 396 584 403 591 q 379 573 389 577 q 359 569 370 569 q 322 585 338 569 q 307 622 307 601 q 311 641 307 632 q 323 657 315 650 q 340 669 330 665 q 359 673 349 673 q 396 658 380 673 q 411 622 411 643 m 203 622 q 198 601 203 611 q 187 584 194 591 q 170 573 180 577 q 150 569 160 569 q 114 585 129 569 q 98 622 98 601 q 103 641 98 632 q 114 657 107 650 q 131 669 121 665 q 150 673 140 673 q 187 658 171 673 q 203 622 203 643 z "},"":{"ha":524,"x_min":5,"x_max":518,"o":"m 518 449 q 491 441 502 448 q 472 426 480 435 q 459 404 465 416 q 449 379 454 392 l 258 -89 q 233 -137 248 -113 q 197 -182 218 -162 q 153 -214 177 -201 q 100 -227 128 -227 q 74 -223 87 -227 q 52 -212 62 -219 q 37 -193 43 -204 q 31 -168 31 -182 q 45 -133 31 -143 q 82 -122 59 -122 q 101 -125 92 -122 q 119 -131 110 -127 q 137 -138 128 -135 q 154 -140 146 -140 q 180 -131 168 -140 q 202 -105 192 -121 q 222 -72 213 -90 q 238 -35 231 -53 q 250 -3 245 -18 q 258 20 255 12 l 90 372 q 76 399 83 386 q 58 422 68 412 q 36 440 48 433 q 5 449 23 447 l 5 468 l 225 468 l 225 449 q 205 448 215 449 q 186 445 195 448 q 172 435 178 441 q 167 415 167 428 q 173 387 167 401 q 184 359 178 372 l 298 123 l 403 383 q 410 401 407 393 q 414 421 414 410 q 409 437 414 431 q 398 446 405 443 q 382 449 391 448 q 366 449 374 449 l 366 468 l 518 468 l 518 449 m 425 679 q 421 663 425 671 q 411 649 417 656 q 397 637 404 643 q 384 628 390 632 l 233 533 l 191 533 l 335 679 q 364 702 348 692 q 399 713 380 713 q 408 709 404 713 q 417 701 413 706 q 423 690 420 696 q 425 679 425 684 z "},"":{"ha":524,"x_min":-4,"x_max":488,"o":"m 488 252 q 473 149 488 197 q 430 64 458 100 q 362 7 402 28 q 274 -15 323 -14 q 245 -14 258 -15 q 219 -9 232 -13 q 193 4 206 -5 q 162 27 179 12 l 162 -115 q 164 -159 162 -142 q 174 -186 166 -176 q 198 -199 182 -195 q 242 -205 214 -203 l 242 -224 l -4 -224 l -4 -205 q 39 -200 23 -203 q 64 -188 56 -197 q 75 -161 73 -179 q 78 -113 78 -144 l 78 578 q 77 614 78 601 q 75 636 77 628 q 69 647 73 644 q 60 654 66 651 q 41 661 53 659 q 5 653 28 663 l -1 670 l 143 728 l 162 728 l 162 371 q 198 423 180 402 q 235 457 216 444 q 273 476 253 470 q 313 481 292 481 q 384 464 352 481 q 439 415 416 446 q 475 342 463 385 q 488 252 488 300 m 397 203 q 388 286 397 248 q 363 351 379 323 q 323 394 347 378 q 272 409 300 409 q 252 408 261 409 q 231 400 243 406 q 203 379 219 393 q 162 340 186 366 l 162 165 q 163 119 162 137 q 168 90 165 100 q 179 64 171 77 q 200 40 187 51 q 232 23 214 30 q 272 16 250 16 q 323 28 300 16 q 363 66 347 41 q 388 125 379 90 q 397 203 397 160 z "},"":{"ha":524,"x_min":5,"x_max":518,"o":"m 518 449 q 491 441 502 448 q 472 426 480 435 q 459 404 465 416 q 449 379 454 392 l 258 -89 q 233 -137 248 -113 q 197 -182 218 -162 q 153 -214 177 -201 q 100 -227 128 -227 q 74 -223 87 -227 q 52 -212 62 -219 q 37 -193 43 -204 q 31 -168 31 -182 q 45 -133 31 -143 q 82 -122 59 -122 q 101 -125 92 -122 q 119 -131 110 -127 q 137 -138 128 -135 q 154 -140 146 -140 q 180 -131 168 -140 q 202 -105 192 -121 q 222 -72 213 -90 q 238 -35 231 -53 q 250 -3 245 -18 q 258 20 255 12 l 90 372 q 76 399 83 386 q 58 422 68 412 q 36 440 48 433 q 5 449 23 447 l 5 468 l 225 468 l 225 449 q 205 448 215 449 q 186 445 195 448 q 172 435 178 441 q 167 415 167 428 q 173 387 167 401 q 184 359 178 372 l 298 123 l 403 383 q 410 401 407 393 q 414 421 414 410 q 409 437 414 431 q 398 446 405 443 q 382 449 391 448 q 366 449 374 449 l 366 468 l 518 468 l 518 449 m 433 622 q 429 601 433 611 q 418 584 425 591 q 401 573 411 577 q 382 569 392 569 q 345 585 361 569 q 329 622 329 601 q 333 641 329 632 q 345 657 338 650 q 362 669 353 665 q 382 673 372 673 q 418 658 403 673 q 433 622 433 643 m 225 622 q 221 601 225 611 q 209 584 216 591 q 192 573 202 577 q 172 569 182 569 q 136 585 151 569 q 121 622 121 601 q 125 641 121 632 q 137 657 130 650 q 153 669 144 665 q 172 673 162 673 q 209 658 193 673 q 225 622 225 643 z "},"":{"ha":292,"x_min":32,"x_max":268,"o":"m 39 0 l 39 20 q 76 23 62 20 q 98 35 90 26 q 109 59 106 44 q 111 96 111 73 l 111 346 q 110 367 111 355 q 106 389 109 378 q 95 408 102 400 q 75 415 87 415 q 57 413 66 415 q 39 407 48 410 l 32 425 l 174 482 l 196 482 l 196 96 q 199 59 196 73 q 209 35 201 44 q 231 23 217 26 q 268 20 245 20 l 268 0 l 39 0 z "},"":{"ha":694,"x_min":0,"x_max":0,"o":""},"":{"ha":1389,"x_min":0,"x_max":0,"o":""},"":{"ha":694,"x_min":0,"x_max":0,"o":""},"":{"ha":1389,"x_min":0,"x_max":0,"o":""},"":{"ha":463,"x_min":0,"x_max":0,"o":""},"":{"ha":347,"x_min":0,"x_max":0,"o":""},"":{"ha":232,"x_min":0,"x_max":0,"o":""},"":{"ha":543,"x_min":0,"x_max":0,"o":""},"":{"ha":435,"x_min":0,"x_max":0,"o":""},"":{"ha":87,"x_min":0,"x_max":0,"o":""},"":{"ha":43,"x_min":0,"x_max":0,"o":""},"":{"ha":0,"x_min":0,"x_max":0,"o":""},"":{"ha":0,"x_min":-200,"x_max":200,"o":"m 189 675 q 122 709 155 698 q 53 724 90 720 l 153 624 l 132 602 l 7 725 l -8 725 l -131 603 l -153 625 l -54 724 q -123 710 -90 720 q -189 676 -155 699 l -200 692 q -125 746 -163 725 q -40 774 -87 767 l -151 885 l -129 905 l 0 777 l 131 908 l 151 886 l 39 774 q 124 746 86 767 q 200 692 162 725 l 189 675 m 22 632 q 16 616 22 623 q 0 610 9 610 q -16 616 -9 610 q -22 632 -22 623 q -16 648 -22 642 q 0 654 -9 654 q 16 648 9 654 q 22 632 22 642 m 22 530 q 16 515 22 521 q 0 509 9 509 q -16 515 -9 509 q -22 530 -22 521 q -16 545 -22 539 q 0 551 -9 551 q 16 545 9 551 q 22 530 22 539 m 22 429 q 16 413 22 420 q 0 407 9 407 q -16 413 -9 407 q -22 429 -22 420 q -16 444 -22 437 q 0 450 -9 450 q 16 444 9 450 q 22 429 22 437 m 22 326 q 16 312 22 318 q 0 306 9 306 q -16 312 -9 306 q -22 326 -22 318 q -16 342 -22 336 q 0 349 -9 349 q 16 342 9 349 q 22 326 22 336 m 22 225 q 16 210 22 216 q 0 203 9 203 q -16 210 -9 203 q -22 225 -22 216 q -16 241 -22 235 q 0 248 -9 248 q 16 241 9 248 q 22 225 22 235 m 22 123 q 16 108 22 114 q 0 102 9 102 q -16 108 -9 102 q -22 123 -22 114 q -16 138 -22 132 q 0 144 -9 144 q 16 138 9 144 q 22 123 22 132 m 22 22 q 16 6 22 13 q 0 0 9 0 q -16 6 -9 0 q -22 22 -22 13 q -16 37 -22 31 q 0 43 -9 43 q 16 37 9 43 q 22 22 22 31 z "},"":{"ha":0,"x_min":-200,"x_max":200,"o":"m 0 777 q 65 769 36 777 q 119 749 94 762 q 163 722 143 737 q 200 692 183 707 q 198 688 200 690 q 195 682 197 685 q 189 675 192 678 q 149 699 169 689 q 106 714 129 708 q 58 723 84 720 q 0 725 33 725 q -58 723 -33 725 q -106 715 -84 720 q -149 700 -129 709 q -189 676 -169 690 q -195 682 -192 680 q -198 688 -197 685 q -200 692 -200 690 q -163 722 -183 707 q -119 749 -143 737 q -65 769 -94 762 q 0 777 -36 777 m 22 632 q 16 616 22 623 q 0 610 9 610 q -16 616 -9 610 q -22 632 -22 623 q -16 648 -22 642 q 0 654 -9 654 q 16 648 9 654 q 22 632 22 642 m 22 530 q 16 515 22 521 q 0 509 9 509 q -16 515 -9 509 q -22 530 -22 521 q -16 545 -22 539 q 0 551 -9 551 q 16 545 9 551 q 22 530 22 539 m 22 429 q 16 413 22 420 q 0 407 9 407 q -16 413 -9 407 q -22 429 -22 420 q -16 444 -22 437 q 0 450 -9 450 q 16 444 9 450 q 22 429 22 437 m 22 326 q 16 312 22 318 q 0 306 9 306 q -16 312 -9 306 q -22 326 -22 318 q -16 342 -22 336 q 0 349 -9 349 q 16 342 9 349 q 22 326 22 336 m 22 225 q 16 210 22 216 q 0 203 9 203 q -16 210 -9 203 q -22 225 -22 216 q -16 241 -22 235 q 0 248 -9 248 q 16 241 9 248 q 22 225 22 235 m 22 123 q 16 108 22 114 q 0 102 9 102 q -16 108 -9 102 q -22 123 -22 114 q -16 138 -22 132 q 0 144 -9 144 q 16 138 9 144 q 22 123 22 132 m 22 22 q 16 6 22 13 q 0 0 9 0 q -16 6 -9 0 q -22 22 -22 13 q -16 37 -22 31 q 0 43 -9 43 q 16 37 9 43 q 22 22 22 31 z "},"":{"ha":0,"x_min":-34,"x_max":75,"o":"m -34 652 l -34 774 l 75 713 l -34 652 z "},"":{"ha":0,"x_min":-75,"x_max":34,"o":"m -75 713 l 34 774 l 34 652 l -75 713 z "},"":{"ha":349,"x_min":41,"x_max":306,"o":"m 41 196 l 41 272 l 306 272 l 306 196 l 41 196 z "},"":{"ha":349,"x_min":41,"x_max":306,"o":"m 41 196 l 41 272 l 306 272 l 306 196 l 41 196 z "},"":{"ha":0,"x_min":-28,"x_max":113,"o":"m 45 -109 l 45 -61 l -28 -61 l -28 484 l 0 484 l 0 -33 l 45 -33 l 45 14 l 113 -47 l 45 -109 z "},"":{"ha":0,"x_min":-113,"x_max":28,"o":"m -45 -61 l -45 -109 l -113 -47 l -45 14 l -45 -33 l 0 -33 l 0 484 l 28 484 l 28 -61 l -45 -61 z "},"":{"ha":0,"x_min":-61,"x_max":61,"o":"m 14 484 l 14 -33 l 56 -33 l 56 -61 l -56 -61 l -56 -33 l -14 -33 l -14 484 l -61 484 l 0 551 l 61 484 l 14 484 z "},"":{"ha":0,"x_min":-98,"x_max":113,"o":"m 45 689 l 45 736 l -98 736 l -98 762 l 45 762 l 45 810 l 113 750 l 45 689 m 22 632 q 16 616 22 623 q 0 610 9 610 q -16 616 -9 610 q -22 632 -22 623 q -16 648 -22 642 q 0 654 -9 654 q 16 648 9 654 q 22 632 22 642 m 22 530 q 16 515 22 521 q 0 509 9 509 q -16 515 -9 509 q -22 530 -22 521 q -16 545 -22 539 q 0 551 -9 551 q 16 545 9 551 q 22 530 22 539 m 22 429 q 16 413 22 420 q 0 407 9 407 q -16 413 -9 407 q -22 429 -22 420 q -16 444 -22 437 q 0 450 -9 450 q 16 444 9 450 q 22 429 22 437 m 22 326 q 16 312 22 318 q 0 306 9 306 q -16 312 -9 306 q -22 326 -22 318 q -16 342 -22 336 q 0 349 -9 349 q 16 342 9 349 q 22 326 22 336 m 22 225 q 16 210 22 216 q 0 203 9 203 q -16 210 -9 203 q -22 225 -22 216 q -16 241 -22 235 q 0 248 -9 248 q 16 241 9 248 q 22 225 22 235 m 22 123 q 16 108 22 114 q 0 102 9 102 q -16 108 -9 102 q -22 123 -22 114 q -16 138 -22 132 q 0 144 -9 144 q 16 138 9 144 q 22 123 22 132 m 22 22 q 16 6 22 13 q 0 0 9 0 q -16 6 -9 0 q -22 22 -22 13 q -16 37 -22 31 q 0 43 -9 43 q 16 37 9 43 q 22 22 22 31 z "},"":{"ha":0,"x_min":-113,"x_max":98,"o":"m -45 736 l -45 689 l -113 750 l -45 810 l -45 762 l 98 762 l 98 736 l -45 736 m 22 632 q 16 616 22 623 q 0 610 9 610 q -16 616 -9 610 q -22 632 -22 623 q -16 648 -22 642 q 0 654 -9 654 q 16 648 9 654 q 22 632 22 642 m 22 530 q 16 515 22 521 q 0 509 9 509 q -16 515 -9 509 q -22 530 -22 521 q -16 545 -22 539 q 0 551 -9 551 q 16 545 9 551 q 22 530 22 539 m 22 429 q 16 413 22 420 q 0 407 9 407 q -16 413 -9 407 q -22 429 -22 420 q -16 444 -22 437 q 0 450 -9 450 q 16 444 9 450 q 22 429 22 437 m 22 326 q 16 312 22 318 q 0 306 9 306 q -16 312 -9 306 q -22 326 -22 318 q -16 342 -22 336 q 0 349 -9 349 q 16 342 9 349 q 22 326 22 336 m 22 225 q 16 210 22 216 q 0 203 9 203 q -16 210 -9 203 q -22 225 -22 216 q -16 241 -22 235 q 0 248 -9 248 q 16 241 9 248 q 22 225 22 235 m 22 123 q 16 108 22 114 q 0 102 9 102 q -16 108 -9 102 q -22 123 -22 114 q -16 138 -22 132 q 0 144 -9 144 q 16 138 9 144 q 22 123 22 132 m 22 22 q 16 6 22 13 q 0 0 9 0 q -16 6 -9 0 q -22 22 -22 13 q -16 37 -22 31 q 0 43 -9 43 q 16 37 9 43 q 22 22 22 31 z "},"":{"ha":0,"x_min":0,"x_max":0,"o":""},"":{"ha":694,"x_min":21,"x_max":673,"o":"m 673 632 q 667 616 673 623 q 653 610 661 610 q 637 616 644 610 q 631 632 631 623 q 637 648 631 642 q 653 654 644 654 q 667 648 661 654 q 673 632 673 642 m 572 632 q 566 616 572 623 q 550 610 559 610 q 535 616 542 610 q 529 632 529 623 q 535 648 529 642 q 550 654 542 654 q 566 648 559 654 q 572 632 572 642 m 673 530 q 667 515 673 521 q 653 509 661 509 q 637 515 644 509 q 631 530 631 521 q 637 545 631 539 q 653 551 644 551 q 667 545 661 551 q 673 530 673 539 m 471 632 q 465 616 471 623 q 449 610 458 610 q 434 616 440 610 q 428 632 428 623 q 434 648 428 642 q 449 654 440 654 q 465 648 458 654 q 471 632 471 642 m 673 429 q 667 413 673 420 q 653 407 661 407 q 637 413 644 407 q 631 429 631 420 q 637 444 631 437 q 653 450 644 450 q 667 444 661 450 q 673 429 673 437 m 370 632 q 363 616 370 623 q 347 610 357 610 q 331 616 338 610 q 325 632 325 623 q 331 648 325 642 q 347 654 338 654 q 363 648 357 654 q 370 632 370 642 m 673 326 q 667 312 673 318 q 653 306 661 306 q 637 312 644 306 q 631 326 631 318 q 637 342 631 336 q 653 349 644 349 q 667 342 661 349 q 673 326 673 336 m 267 632 q 260 616 267 623 q 245 610 254 610 q 230 616 236 610 q 224 632 224 623 q 230 648 224 642 q 245 654 236 654 q 260 648 254 654 q 267 632 267 642 m 673 225 q 667 210 673 216 q 653 203 661 203 q 637 210 644 203 q 631 225 631 216 q 637 241 631 235 q 653 248 644 248 q 667 241 661 248 q 673 225 673 235 m 313 349 q 305 356 305 349 q 313 363 305 363 l 340 363 l 340 554 l 313 554 q 305 562 305 554 q 313 568 305 568 l 382 568 q 389 562 389 568 q 382 554 389 554 l 354 554 l 354 363 l 382 363 q 389 356 389 363 q 382 349 389 349 l 313 349 m 673 123 q 667 108 673 114 q 653 102 661 102 q 637 108 644 102 q 631 123 631 114 q 637 138 631 132 q 653 144 644 144 q 667 138 661 144 q 673 123 673 132 m 165 632 q 159 616 165 623 q 144 610 153 610 q 129 616 135 610 q 122 632 122 623 q 129 648 122 642 q 144 654 135 654 q 159 648 153 654 q 165 632 165 642 m 578 94 q 575 90 578 92 q 571 87 573 87 l 461 87 q 455 95 455 87 q 461 102 455 102 l 564 102 l 564 191 l 461 191 q 454 197 454 191 l 454 300 q 456 304 454 302 q 461 307 458 307 l 571 307 q 577 300 577 307 q 571 293 577 293 l 468 293 l 468 203 l 571 203 q 575 201 573 203 q 578 197 578 199 l 578 94 m 64 632 q 57 616 64 623 q 41 610 51 610 q 27 616 33 610 q 21 632 21 623 q 27 648 21 642 q 41 654 33 654 q 57 648 51 654 q 64 632 64 642 m 673 22 q 667 6 673 13 q 653 0 661 0 q 637 6 644 0 q 631 22 631 13 q 637 37 631 31 q 653 43 644 43 q 667 37 661 43 q 673 22 673 31 m 64 530 q 57 515 64 521 q 41 509 51 509 q 27 515 33 509 q 21 530 21 521 q 27 545 21 539 q 41 551 33 551 q 57 545 51 551 q 64 530 64 539 m 572 22 q 566 6 572 13 q 550 0 559 0 q 535 6 542 0 q 529 22 529 13 q 535 37 529 31 q 550 43 542 43 q 566 37 559 43 q 572 22 572 31 m 319 293 l 319 203 l 403 203 q 409 197 409 203 q 408 193 409 195 q 403 191 406 191 l 319 191 l 319 94 q 313 88 319 88 q 306 94 306 88 l 306 300 q 308 304 306 302 q 313 307 309 307 l 427 307 q 434 300 434 307 q 427 293 434 293 l 319 293 m 64 429 q 57 413 64 420 q 41 407 51 407 q 27 413 33 407 q 21 429 21 420 q 27 444 21 437 q 41 450 33 450 q 57 444 51 450 q 64 429 64 437 m 471 22 q 465 6 471 13 q 449 0 458 0 q 434 6 440 0 q 428 22 428 13 q 434 37 428 31 q 449 43 440 43 q 465 37 458 43 q 471 22 471 31 m 280 94 q 273 89 280 89 q 267 93 269 89 l 237 174 l 155 174 l 125 93 q 118 89 123 89 q 111 95 111 89 l 111 97 l 193 302 q 199 308 195 308 q 205 301 203 308 l 279 97 l 280 94 m 64 326 q 57 312 64 318 q 41 306 51 306 q 27 312 33 306 q 21 326 21 318 q 27 342 21 336 q 41 349 33 349 q 57 342 51 349 q 64 326 64 336 m 370 22 q 363 6 370 13 q 347 0 357 0 q 331 6 338 0 q 325 22 325 13 q 331 37 325 31 q 347 43 338 43 q 363 37 357 43 q 370 22 370 31 m 64 225 q 57 210 64 216 q 41 203 51 203 q 27 210 33 203 q 21 225 21 216 q 27 241 21 235 q 41 248 33 248 q 57 241 51 248 q 64 225 64 235 m 267 22 q 260 6 267 13 q 245 0 254 0 q 230 6 236 0 q 224 22 224 13 q 230 37 224 31 q 245 43 236 43 q 260 37 254 43 q 267 22 267 31 m 64 123 q 57 108 64 114 q 41 102 51 102 q 27 108 33 102 q 21 123 21 114 q 27 138 21 132 q 41 144 33 144 q 57 138 51 144 q 64 123 64 132 m 165 22 q 159 6 165 13 q 144 0 153 0 q 129 6 135 0 q 122 22 122 13 q 129 37 122 31 q 144 43 135 43 q 159 37 153 43 q 165 22 165 31 m 64 22 q 57 6 64 13 q 41 0 51 0 q 27 6 33 0 q 21 22 21 13 q 27 37 21 31 q 41 43 33 43 q 57 37 51 43 q 64 22 64 31 m 199 281 l 161 186 l 233 186 l 199 281 z "},"":{"ha":694,"x_min":21,"x_max":673,"o":"m 673 632 q 667 616 673 623 q 653 610 661 610 q 637 616 644 610 q 631 632 631 623 q 637 648 631 642 q 653 654 644 654 q 667 648 661 654 q 673 632 673 642 m 572 632 q 566 616 572 623 q 550 610 559 610 q 535 616 542 610 q 529 632 529 623 q 535 648 529 642 q 550 654 542 654 q 566 648 559 654 q 572 632 572 642 m 673 530 q 667 515 673 521 q 653 509 661 509 q 637 515 644 509 q 631 530 631 521 q 637 545 631 539 q 653 551 644 551 q 667 545 661 551 q 673 530 673 539 m 471 632 q 465 616 471 623 q 449 610 458 610 q 434 616 440 610 q 428 632 428 623 q 434 648 428 642 q 449 654 440 654 q 465 648 458 654 q 471 632 471 642 m 673 429 q 667 413 673 420 q 653 407 661 407 q 637 413 644 407 q 631 429 631 420 q 637 444 631 437 q 653 450 644 450 q 667 444 661 450 q 673 429 673 437 m 370 632 q 363 616 370 623 q 347 610 357 610 q 331 616 338 610 q 325 632 325 623 q 331 648 325 642 q 347 654 338 654 q 363 648 357 654 q 370 632 370 642 m 673 326 q 667 312 673 318 q 653 306 661 306 q 637 312 644 306 q 631 326 631 318 q 637 342 631 336 q 653 349 644 349 q 667 342 661 349 q 673 326 673 336 m 267 632 q 260 616 267 623 q 245 610 254 610 q 230 616 236 610 q 224 632 224 623 q 230 648 224 642 q 245 654 236 654 q 260 648 254 654 q 267 632 267 642 m 673 225 q 667 210 673 216 q 653 203 661 203 q 637 210 644 203 q 631 225 631 216 q 637 241 631 235 q 653 248 644 248 q 667 241 661 248 q 673 225 673 235 m 429 355 q 422 350 429 350 q 415 354 417 350 l 386 435 l 304 435 l 272 354 q 266 350 271 350 q 260 356 260 350 l 260 358 l 340 564 q 347 569 344 569 q 354 562 352 569 l 428 358 l 429 355 m 165 632 q 159 616 165 623 q 144 610 153 610 q 129 616 135 610 q 122 632 122 623 q 129 648 122 642 q 144 654 135 654 q 159 648 153 654 q 165 632 165 642 m 673 123 q 667 108 673 114 q 653 102 661 102 q 637 108 644 102 q 631 123 631 114 q 637 138 631 132 q 653 144 644 144 q 667 138 661 144 q 673 123 673 132 m 64 632 q 57 616 64 623 q 41 610 51 610 q 27 616 33 610 q 21 632 21 623 q 27 648 21 642 q 41 654 33 654 q 57 648 51 654 q 64 632 64 642 m 673 22 q 667 6 673 13 q 653 0 661 0 q 637 6 644 0 q 631 22 631 13 q 637 37 631 31 q 653 43 644 43 q 667 37 661 43 q 673 22 673 31 m 64 530 q 57 515 64 521 q 41 509 51 509 q 27 515 33 509 q 21 530 21 521 q 27 545 21 539 q 41 551 33 551 q 57 545 51 551 q 64 530 64 539 m 572 22 q 566 6 572 13 q 550 0 559 0 q 535 6 542 0 q 529 22 529 13 q 535 37 529 31 q 550 43 542 43 q 566 37 559 43 q 572 22 572 31 m 319 293 l 319 203 l 403 203 q 409 197 409 203 q 408 193 409 195 q 403 191 406 191 l 319 191 l 319 94 q 313 88 319 88 q 306 94 306 88 l 306 300 q 308 304 306 302 q 313 307 309 307 l 427 307 q 434 300 434 307 q 427 293 434 293 l 319 293 m 64 429 q 57 413 64 420 q 41 407 51 407 q 27 413 33 407 q 21 429 21 420 q 27 444 21 437 q 41 450 33 450 q 57 444 51 450 q 64 429 64 437 m 471 22 q 465 6 471 13 q 449 0 458 0 q 434 6 440 0 q 428 22 428 13 q 434 37 428 31 q 449 43 440 43 q 465 37 458 43 q 471 22 471 31 m 64 326 q 57 312 64 318 q 41 306 51 306 q 27 312 33 306 q 21 326 21 318 q 27 342 21 336 q 41 349 33 349 q 57 342 51 349 q 64 326 64 336 m 370 22 q 363 6 370 13 q 347 0 357 0 q 331 6 338 0 q 325 22 325 13 q 331 37 325 31 q 347 43 338 43 q 363 37 357 43 q 370 22 370 31 m 64 225 q 57 210 64 216 q 41 203 51 203 q 27 210 33 203 q 21 225 21 216 q 27 241 21 235 q 41 248 33 248 q 57 241 51 248 q 64 225 64 235 m 267 22 q 260 6 267 13 q 245 0 254 0 q 230 6 236 0 q 224 22 224 13 q 230 37 224 31 q 245 43 236 43 q 260 37 254 43 q 267 22 267 31 m 64 123 q 57 108 64 114 q 41 102 51 102 q 27 108 33 102 q 21 123 21 114 q 27 138 21 132 q 41 144 33 144 q 57 138 51 144 q 64 123 64 132 m 165 22 q 159 6 165 13 q 144 0 153 0 q 129 6 135 0 q 122 22 122 13 q 129 37 122 31 q 144 43 135 43 q 159 37 153 43 q 165 22 165 31 m 64 22 q 57 6 64 13 q 41 0 51 0 q 27 6 33 0 q 21 22 21 13 q 27 37 21 31 q 41 43 33 43 q 57 37 51 43 q 64 22 64 31 m 347 542 l 310 447 l 382 447 l 347 542 m 578 94 q 575 90 578 92 q 571 87 573 87 l 461 87 q 455 95 455 87 q 461 102 455 102 l 564 102 l 564 191 l 461 191 q 454 197 454 191 l 454 300 q 456 304 454 302 q 461 307 458 307 l 571 307 q 577 300 577 307 q 571 293 577 293 l 468 293 l 468 203 l 571 203 q 575 201 573 203 q 578 197 578 199 l 578 94 m 280 94 q 273 89 280 89 q 267 93 269 89 l 237 174 l 155 174 l 125 93 q 118 89 123 89 q 111 95 111 89 l 111 97 l 193 302 q 199 308 195 308 q 205 301 203 308 l 279 97 l 280 94 m 199 281 l 161 186 l 233 186 l 199 281 z "},"":{"ha":621,"x_min":25,"x_max":591,"o":"m 25 265 l 25 309 l 591 309 l 591 265 l 25 265 z "},"":{"ha":694,"x_min":46,"x_max":648,"o":"m 567 545 q 561 530 567 536 q 545 524 554 524 q 530 530 536 524 q 524 545 524 536 q 530 561 524 554 q 545 567 536 567 q 561 561 554 567 q 567 545 567 554 m 476 606 q 469 590 476 596 q 454 583 463 583 q 438 590 445 583 q 432 606 432 596 q 438 620 432 614 q 454 627 445 627 q 470 620 464 627 q 476 606 476 614 m 627 454 q 620 438 627 445 q 606 432 614 432 q 590 438 596 432 q 583 454 583 445 q 590 469 583 463 q 606 476 596 476 q 620 470 614 476 q 627 454 627 464 m 370 627 q 363 612 370 618 q 347 606 357 606 q 331 612 338 606 q 325 627 325 618 q 331 642 325 636 q 347 648 338 648 q 363 642 357 648 q 370 627 370 636 m 648 347 q 642 331 648 338 q 627 325 636 325 q 612 331 618 325 q 606 347 606 338 q 612 363 606 357 q 627 370 618 370 q 642 363 636 370 q 648 347 648 357 m 262 606 q 256 590 262 596 q 240 583 250 583 q 225 590 232 583 q 218 606 218 596 q 224 620 218 614 q 240 627 231 627 q 256 620 250 627 q 262 606 262 614 m 627 240 q 620 224 627 231 q 606 218 614 218 q 590 225 596 218 q 583 240 583 232 q 590 256 583 250 q 606 262 596 262 q 620 256 614 262 q 627 240 627 250 m 171 545 q 165 530 171 536 q 150 524 159 524 q 134 530 140 524 q 127 545 127 536 q 134 561 127 554 q 150 567 140 567 q 165 561 159 567 q 171 545 171 554 m 567 150 q 561 134 567 140 q 545 127 554 127 q 530 134 536 127 q 524 150 524 140 q 530 165 524 159 q 545 171 536 171 q 561 165 554 171 q 567 150 567 159 m 111 454 q 105 438 111 445 q 89 432 98 432 q 74 438 81 432 q 68 454 68 445 q 74 470 68 464 q 89 476 81 476 q 105 469 98 476 q 111 454 111 463 m 476 89 q 470 74 476 81 q 454 68 464 68 q 438 74 445 68 q 432 89 432 81 q 438 105 432 98 q 454 111 445 111 q 469 105 463 111 q 476 89 476 98 m 89 347 q 83 331 89 338 q 68 325 77 325 q 52 331 58 325 q 46 347 46 338 q 52 363 46 357 q 68 370 58 370 q 83 363 77 370 q 89 347 89 357 m 370 68 q 363 52 370 58 q 347 46 357 46 q 331 52 338 46 q 325 68 325 58 q 331 83 325 77 q 347 89 338 89 q 363 83 357 89 q 370 68 370 77 m 111 240 q 105 225 111 232 q 89 218 98 218 q 74 224 81 218 q 68 240 68 231 q 74 256 68 250 q 89 262 81 262 q 105 256 98 262 q 111 240 111 250 m 262 89 q 256 74 262 81 q 240 68 250 68 q 224 74 231 68 q 218 89 218 81 q 225 105 218 98 q 240 111 232 111 q 256 105 250 111 q 262 89 262 98 m 171 150 q 165 134 171 140 q 150 127 159 127 q 134 134 140 127 q 127 150 127 140 q 134 165 127 159 q 150 171 140 171 q 165 165 159 171 q 171 150 171 159 z "},"":{"ha":0,"x_min":0,"x_max":0,"o":""},"":{"ha":245,"x_min":-62,"x_max":294,"o":"m 164 764 q 169 516 165 640 q 172 268 172 393 q 166 146 172 201 q 153 40 160 91 q 136 19 144 30 q 110 0 128 9 l 110 103 q 107 251 110 182 q 101 386 104 319 q 96 521 98 452 q 93 669 93 590 l 164 764 m 294 962 q 276 924 294 945 q 232 885 258 903 q 179 854 207 867 q 132 842 152 842 q 60 849 92 842 q 9 871 28 857 q -1 856 7 866 q -19 834 -9 845 q -38 816 -28 824 q -52 808 -47 808 q -58 810 -54 808 q -62 815 -62 812 q -58 829 -62 818 q -45 855 -53 840 q -29 887 -38 870 q -12 920 -20 905 q 2 948 -4 936 q 12 964 9 960 q 72 933 37 947 q 139 919 106 919 q 183 926 160 919 q 227 943 205 934 q 264 959 248 951 q 290 966 281 966 q 293 965 292 966 q 294 962 294 964 z "},"":{"ha":245,"x_min":3,"x_max":254,"o":"m 164 764 q 169 516 165 640 q 172 268 172 393 q 166 146 172 201 q 153 40 160 91 q 136 19 144 30 q 110 0 128 9 l 110 103 q 107 251 110 182 q 101 386 104 319 q 96 521 98 452 q 93 669 93 590 l 164 764 m 174 1004 q 154 1009 163 1004 q 132 1015 144 1015 q 116 1011 125 1015 q 99 1001 107 1007 q 85 987 91 995 q 79 972 79 979 q 87 958 79 964 q 105 948 94 951 q 126 943 115 945 q 143 941 137 941 l 254 941 l 221 886 l 196 886 q 148 881 172 886 q 99 866 123 876 q 55 843 76 857 q 16 812 33 829 l 3 830 q 13 844 5 835 q 29 862 21 852 q 44 880 37 871 q 50 892 50 888 q 45 906 50 899 q 35 923 41 914 q 24 941 29 932 q 20 961 20 951 q 28 980 20 968 q 50 1005 37 991 q 79 1031 62 1018 q 110 1055 95 1044 q 139 1072 125 1065 q 159 1079 152 1079 q 174 1075 166 1079 q 189 1066 182 1072 q 200 1053 195 1060 q 204 1038 204 1046 q 201 1027 204 1033 q 195 1016 199 1021 q 185 1007 191 1010 q 174 1004 180 1004 z "},"":{"ha":245,"x_min":10,"x_max":262,"o":"m 164 764 q 169 516 165 640 q 172 268 172 393 q 166 146 172 201 q 153 40 160 91 q 136 19 144 30 q 110 0 128 9 l 110 103 q 107 251 110 182 q 101 386 104 319 q 96 521 98 452 q 93 669 93 590 l 164 764 m 181 -134 q 161 -128 171 -134 q 140 -122 152 -122 q 124 -126 133 -122 q 106 -136 115 -130 q 93 -150 98 -142 q 87 -165 87 -158 q 94 -180 87 -174 q 112 -189 102 -186 q 134 -194 123 -193 q 151 -196 144 -196 l 262 -196 l 229 -252 l 203 -252 q 155 -256 180 -251 q 107 -271 130 -261 q 62 -295 83 -281 q 23 -325 41 -309 l 10 -307 q 21 -294 13 -302 q 37 -275 28 -285 q 51 -257 45 -266 q 58 -245 58 -249 q 53 -231 58 -239 q 42 -214 48 -223 q 32 -196 37 -205 q 27 -176 27 -186 q 36 -157 27 -169 q 57 -133 44 -146 q 86 -106 70 -119 q 118 -82 102 -93 q 146 -65 133 -72 q 166 -58 159 -58 q 181 -62 174 -58 q 196 -72 189 -66 q 207 -84 203 -77 q 212 -99 212 -92 q 209 -111 212 -104 q 202 -122 206 -117 q 193 -130 198 -127 q 181 -134 187 -134 z "},"":{"ha":245,"x_min":93,"x_max":172,"o":"m 164 764 q 169 516 165 640 q 172 268 172 393 q 166 146 172 201 q 153 40 160 91 q 136 19 144 30 q 110 0 128 9 l 110 103 q 107 251 110 182 q 101 386 104 319 q 96 521 98 452 q 93 669 93 590 l 164 764 z "},"":{"ha":245,"x_min":-117,"x_max":233,"o":"m 164 764 q 169 516 165 640 q 172 268 172 393 q 166 146 172 201 q 153 40 160 91 q 136 19 144 30 q 110 0 128 9 l 110 103 q 107 251 110 182 q 101 386 104 319 q 96 521 98 452 q 93 669 93 590 l 164 764 m 205 871 l 185 871 q 109 848 147 873 q 84 833 95 840 q 64 822 74 826 q 44 815 54 817 q 22 812 34 812 q 4 816 12 812 q -10 823 -3 819 q -24 830 -17 827 q -39 833 -31 833 q -55 833 -47 833 q -71 831 -62 833 q -89 825 -79 829 q -111 811 -98 820 q -115 816 -113 811 q -117 821 -116 819 q -77 852 -99 838 q -30 865 -54 865 q -10 863 -18 865 q 4 857 -2 860 q 17 851 11 854 q 31 849 23 849 q 56 858 43 849 q 80 879 68 867 q 67 887 75 882 q 53 901 60 893 q 42 917 47 908 q 38 934 38 926 q 53 960 38 943 q 87 992 68 976 q 126 1019 107 1008 q 155 1031 146 1031 q 167 1028 160 1031 q 179 1021 174 1025 q 188 1011 184 1017 q 192 999 192 1005 q 184 980 192 989 q 167 970 176 970 q 150 975 159 970 q 132 980 142 980 q 119 977 126 980 q 104 968 111 973 q 92 956 97 963 q 87 943 87 949 q 94 932 87 937 q 109 925 100 928 q 126 920 117 922 q 140 919 135 919 l 233 919 l 205 871 z "},"":{"ha":245,"x_min":-106,"x_max":244,"o":"m 164 764 q 169 516 165 640 q 172 268 172 393 q 166 146 172 201 q 153 40 160 91 q 136 19 144 30 q 110 0 128 9 l 110 103 q 107 251 110 182 q 101 386 104 319 q 96 521 98 452 q 93 669 93 590 l 164 764 m 216 -230 l 196 -230 q 120 -253 158 -229 q 95 -269 106 -262 q 75 -280 85 -275 q 55 -287 65 -284 q 33 -289 45 -289 q 15 -286 23 -289 q 1 -278 7 -282 q -13 -271 -6 -275 q -28 -268 -20 -268 q -44 -268 -37 -268 q -60 -270 -52 -268 q -78 -277 -68 -272 q -100 -290 -87 -281 q -104 -286 -102 -290 q -106 -281 -105 -283 q -66 -250 -88 -263 q -19 -236 -43 -236 q 1 -239 -7 -236 q 15 -244 9 -241 q 28 -250 22 -248 q 42 -252 34 -252 q 67 -243 54 -252 q 91 -222 79 -235 q 78 -214 85 -220 q 64 -201 71 -208 q 53 -184 58 -193 q 49 -168 49 -176 q 64 -142 49 -158 q 98 -110 79 -125 q 137 -82 118 -94 q 165 -71 157 -71 q 178 -73 171 -71 q 190 -80 184 -76 q 199 -91 195 -85 q 203 -102 203 -96 q 195 -122 203 -112 q 178 -132 187 -132 q 161 -126 170 -132 q 143 -121 153 -121 q 130 -125 137 -121 q 115 -133 122 -128 q 103 -145 108 -138 q 98 -158 98 -152 q 105 -169 98 -165 q 120 -177 111 -174 q 137 -181 128 -180 q 151 -182 146 -182 l 244 -182 l 216 -230 z "},"":{"ha":245,"x_min":93,"x_max":383,"o":"m 164 764 q 169 516 165 640 q 172 268 172 393 q 166 146 172 201 q 153 40 160 91 q 136 19 144 30 q 110 0 128 9 l 110 103 q 107 251 110 182 q 101 386 104 319 q 96 521 98 452 q 93 669 93 590 l 164 764 m 302 1057 q 283 1062 292 1057 q 261 1068 273 1068 q 245 1064 254 1068 q 228 1054 236 1060 q 214 1040 220 1048 q 208 1025 208 1032 q 216 1010 208 1017 q 234 1001 223 1004 q 255 996 244 998 q 272 994 266 994 l 383 994 l 350 939 l 325 939 q 276 934 301 939 q 228 919 252 929 q 183 896 205 909 q 144 865 162 882 l 132 883 q 142 897 134 888 q 158 915 150 905 q 173 933 166 924 q 179 945 179 941 q 174 959 179 951 q 164 976 170 967 q 153 994 158 985 q 149 1014 149 1004 q 157 1033 149 1021 q 178 1058 165 1044 q 208 1084 191 1071 q 239 1108 224 1097 q 268 1125 254 1118 q 288 1132 281 1132 q 303 1128 295 1132 q 317 1119 311 1124 q 329 1106 324 1113 q 333 1091 333 1099 q 330 1080 333 1086 q 323 1068 328 1074 q 314 1060 319 1063 q 302 1057 309 1057 z "},"":{"ha":245,"x_min":-39,"x_max":229,"o":"m 164 764 q 169 516 165 640 q 172 268 172 393 q 166 146 172 201 q 153 40 160 91 q 136 19 144 30 q 110 0 128 9 l 110 103 q 107 251 110 182 q 101 386 104 319 q 96 521 98 452 q 93 669 93 590 l 164 764 m 229 937 q 222 914 229 928 q 201 886 215 900 q 165 862 187 872 q 113 851 144 851 q 94 852 109 851 q 61 853 79 852 q 27 854 43 853 q 3 854 10 854 q -18 851 -12 854 q -28 843 -25 847 q -33 835 -31 839 q -37 831 -34 831 q -39 839 -39 831 q -38 854 -39 846 q -32 871 -36 863 q -20 886 -27 879 q -1 897 -12 893 q 33 902 12 901 q 71 903 54 903 q 93 947 82 927 q 116 982 103 968 q 143 1005 128 997 q 179 1014 159 1014 q 215 997 201 1014 q 229 937 229 979 m 188 935 q 180 953 188 947 q 158 959 172 959 q 143 953 151 959 q 126 939 134 947 q 111 921 118 930 q 98 903 103 911 q 127 904 111 903 q 156 908 142 905 q 179 918 170 911 q 188 935 188 924 z "},"":{"ha":415,"x_min":-73,"x_max":391,"o":"m -73 -146 q -50 -147 -61 -147 q -28 -147 -39 -147 q 83 -136 31 -147 q 182 -100 136 -125 q 264 -38 227 -76 q 330 54 302 1 q 330 67 330 60 q 329 84 330 75 q 325 102 328 93 q 319 117 323 111 q 303 96 313 106 q 283 78 294 86 q 259 65 272 70 q 235 60 247 60 q 209 66 220 60 q 190 83 197 73 q 179 107 182 94 q 176 134 176 120 q 179 160 176 144 q 189 196 182 177 q 204 234 195 215 q 223 269 212 254 q 245 295 233 285 q 269 304 257 304 q 301 295 287 304 q 325 270 315 286 q 341 236 334 255 q 352 197 348 217 q 358 160 356 178 q 359 129 359 142 q 352 50 359 90 q 329 -29 345 9 q 291 -101 314 -67 q 237 -160 268 -134 q 178 -188 211 -180 q 113 -196 146 -196 q 67 -193 92 -196 q 17 -183 42 -189 q -32 -167 -8 -176 q -73 -146 -55 -158 m 247 214 q 237 207 242 214 q 228 190 232 199 q 220 171 223 180 q 217 157 217 161 q 227 141 217 149 q 252 132 237 132 q 276 140 262 132 q 298 159 291 147 q 290 179 296 169 q 278 196 285 189 q 263 209 271 204 q 247 214 255 214 m 310 541 q 290 547 300 541 q 269 553 281 553 q 253 549 262 553 q 235 538 243 545 q 221 525 227 532 q 216 509 216 517 q 223 495 216 501 q 241 486 231 489 q 262 480 252 482 q 279 479 273 479 l 391 479 l 357 423 l 332 423 q 284 419 309 424 q 236 404 259 414 q 191 380 212 394 q 152 350 170 366 l 139 368 q 150 381 142 372 q 165 399 157 390 q 180 417 174 409 q 186 430 186 426 q 182 444 186 436 q 171 460 177 452 q 161 479 165 469 q 156 498 156 488 q 164 517 156 506 q 186 542 173 529 q 215 569 199 555 q 247 592 231 582 q 275 610 262 603 q 295 616 288 616 q 310 613 302 616 q 325 603 318 609 q 336 590 332 597 q 340 576 340 583 q 338 564 340 570 q 331 553 335 558 q 321 545 327 548 q 310 541 316 541 z "},"":{"ha":415,"x_min":-73,"x_max":359,"o":"m -73 -146 q -50 -147 -61 -147 q -28 -147 -39 -147 q 83 -136 31 -147 q 182 -100 136 -125 q 264 -38 227 -76 q 330 54 302 1 q 330 67 330 60 q 329 84 330 75 q 325 102 328 93 q 319 117 323 111 q 303 96 313 106 q 283 78 294 86 q 259 65 272 70 q 235 60 247 60 q 209 66 220 60 q 190 83 197 73 q 179 107 182 94 q 176 134 176 120 q 179 160 176 144 q 189 196 182 177 q 204 234 195 215 q 223 269 212 254 q 245 295 233 285 q 269 304 257 304 q 301 295 287 304 q 325 270 315 286 q 341 236 334 255 q 352 197 348 217 q 358 160 356 178 q 359 129 359 142 q 352 50 359 90 q 329 -29 345 9 q 291 -101 314 -67 q 237 -160 268 -134 q 178 -188 211 -180 q 113 -196 146 -196 q 67 -193 92 -196 q 17 -183 42 -189 q -32 -167 -8 -176 q -73 -146 -55 -158 m 247 214 q 237 207 242 214 q 228 190 232 199 q 220 171 223 180 q 217 157 217 161 q 227 141 217 149 q 252 132 237 132 q 276 140 262 132 q 298 159 291 147 q 290 179 296 169 q 278 196 285 189 q 263 209 271 204 q 247 214 255 214 z "},"":{"ha":415,"x_min":-73,"x_max":519,"o":"m -73 -146 q -50 -147 -61 -147 q -28 -147 -39 -147 q 83 -136 31 -147 q 182 -100 136 -125 q 264 -38 227 -76 q 330 54 302 1 q 330 67 330 60 q 329 84 330 75 q 325 102 328 93 q 319 117 323 111 q 303 96 313 106 q 283 78 294 86 q 259 65 272 70 q 235 60 247 60 q 209 66 220 60 q 190 83 197 73 q 179 107 182 94 q 176 134 176 120 q 179 160 176 144 q 189 196 182 177 q 204 234 195 215 q 223 269 212 254 q 245 295 233 285 q 269 304 257 304 q 301 295 287 304 q 325 270 315 286 q 341 236 334 255 q 352 197 348 217 q 358 160 356 178 q 359 129 359 142 q 352 50 359 90 q 329 -29 345 9 q 291 -101 314 -67 q 237 -160 268 -134 q 178 -188 211 -180 q 113 -196 146 -196 q 67 -193 92 -196 q 17 -183 42 -189 q -32 -167 -8 -176 q -73 -146 -55 -158 m 247 214 q 237 207 242 214 q 228 190 232 199 q 220 171 223 180 q 217 157 217 161 q 227 141 217 149 q 252 132 237 132 q 276 140 262 132 q 298 159 291 147 q 290 179 296 169 q 278 196 285 189 q 263 209 271 204 q 247 214 255 214 m 439 594 q 419 600 429 594 q 397 606 410 606 q 381 602 391 606 q 364 591 372 597 q 350 577 356 585 q 345 562 345 570 q 352 548 345 554 q 370 538 359 542 q 391 533 380 535 q 408 532 402 532 l 519 532 l 486 476 l 461 476 q 413 472 437 477 q 365 457 388 467 q 320 433 341 447 q 281 403 298 419 l 268 420 q 278 434 271 425 q 294 452 286 443 q 309 470 302 462 q 315 483 315 479 q 311 497 315 489 q 300 513 306 505 q 290 532 294 522 q 285 551 285 541 q 293 570 285 559 q 315 595 302 582 q 344 622 328 608 q 375 645 360 635 q 404 663 391 656 q 424 669 417 669 q 439 666 431 669 q 454 656 447 662 q 465 643 460 650 q 469 629 469 636 q 467 617 469 623 q 460 606 464 611 q 450 597 456 601 q 439 594 445 594 z "},"":{"ha":415,"x_min":-73,"x_max":512,"o":"m -73 -146 q -50 -147 -61 -147 q -28 -147 -39 -147 q 83 -136 31 -147 q 182 -100 136 -125 q 264 -38 227 -76 q 330 54 302 1 q 330 67 330 60 q 329 84 330 75 q 325 102 328 93 q 319 117 323 111 q 303 96 313 106 q 283 78 294 86 q 259 65 272 70 q 235 60 247 60 q 209 66 220 60 q 190 83 197 73 q 179 107 182 94 q 176 134 176 120 q 179 160 176 144 q 189 196 182 177 q 204 234 195 215 q 223 269 212 254 q 245 295 233 285 q 269 304 257 304 q 301 295 287 304 q 325 270 315 286 q 341 236 334 255 q 352 197 348 217 q 358 160 356 178 q 359 129 359 142 q 352 50 359 90 q 329 -29 345 9 q 291 -101 314 -67 q 237 -160 268 -134 q 178 -188 211 -180 q 113 -196 146 -196 q 67 -193 92 -196 q 17 -183 42 -189 q -32 -167 -8 -176 q -73 -146 -55 -158 m 247 214 q 237 207 242 214 q 228 190 232 199 q 220 171 223 180 q 217 157 217 161 q 227 141 217 149 q 252 132 237 132 q 276 140 262 132 q 298 159 291 147 q 290 179 296 169 q 278 196 285 189 q 263 209 271 204 q 247 214 255 214 m 431 529 q 412 535 421 529 q 390 541 402 541 q 374 536 383 541 q 357 526 365 532 q 343 512 349 520 q 337 497 337 505 q 345 483 337 489 q 362 473 352 477 q 384 468 373 470 q 401 467 395 467 l 512 467 l 479 411 l 454 411 l 446 411 q 399 405 423 411 q 353 390 376 399 q 311 366 331 380 q 273 338 290 353 l 260 355 q 271 369 263 360 q 287 387 279 378 q 302 405 296 397 q 308 418 308 414 q 303 432 308 424 q 293 448 298 439 q 282 467 287 457 q 277 486 277 476 q 286 505 277 494 q 307 530 294 517 q 336 556 320 543 q 368 580 353 570 q 396 597 383 591 q 416 604 410 604 q 432 601 424 604 q 446 591 439 597 q 457 578 453 585 q 462 564 462 571 q 459 552 462 558 q 452 541 456 546 q 443 532 448 536 q 431 529 437 529 m 229 411 l 187 436 q 175 424 181 429 q 163 412 170 418 q 149 400 157 406 q 132 386 142 393 q 105 368 120 377 q 77 352 91 359 q 45 335 62 343 l 27 367 q 54 382 41 374 q 77 396 65 389 q 96 408 88 403 q 115 423 105 414 q 135 440 125 432 q 156 460 146 450 q 135 479 144 469 q 119 496 127 487 q 111 511 112 505 q 109 530 109 522 q 119 572 109 555 q 145 600 130 589 q 175 615 159 610 q 200 621 191 621 q 239 607 224 621 q 254 571 254 593 q 249 537 254 553 q 237 508 243 521 q 223 485 231 494 q 212 471 216 475 l 252 446 l 229 411 m 151 534 q 161 510 151 522 q 181 493 172 499 q 201 519 194 504 q 209 553 209 535 q 202 573 209 566 q 186 581 195 581 q 176 578 182 581 q 164 570 170 575 q 155 555 159 564 q 151 534 151 547 z "},"":{"ha":415,"x_min":-73,"x_max":359,"o":"m -73 -146 q -50 -147 -61 -147 q -28 -147 -39 -147 q 83 -136 31 -147 q 182 -100 136 -125 q 264 -38 227 -76 q 330 54 302 1 q 330 67 330 60 q 329 84 330 75 q 325 102 328 93 q 319 117 323 111 q 303 96 313 106 q 283 78 294 86 q 259 65 272 70 q 235 60 247 60 q 209 66 220 60 q 190 83 197 73 q 179 107 182 94 q 176 134 176 120 q 179 160 176 144 q 189 196 182 177 q 204 234 195 215 q 223 269 212 254 q 245 295 233 285 q 269 304 257 304 q 301 295 287 304 q 325 270 315 286 q 341 236 334 255 q 352 197 348 217 q 358 160 356 178 q 359 129 359 142 q 352 50 359 90 q 329 -29 345 9 q 291 -101 314 -67 q 237 -160 268 -134 q 178 -188 211 -180 q 113 -196 146 -196 q 67 -193 92 -196 q 17 -183 42 -189 q -32 -167 -8 -176 q -73 -146 -55 -158 m 247 214 q 237 207 242 214 q 228 190 232 199 q 220 171 223 180 q 217 157 217 161 q 227 141 217 149 q 252 132 237 132 q 276 140 262 132 q 298 159 291 147 q 290 179 296 169 q 278 196 285 189 q 263 209 271 204 q 247 214 255 214 m 243 -68 q 218 -140 243 -113 q 147 -168 193 -168 q 111 -161 125 -168 q 88 -144 96 -155 q 77 -117 80 -133 q 74 -80 74 -100 q 79 -41 74 -62 q 95 -4 85 -21 q 122 23 106 12 q 160 34 138 34 q 197 25 181 34 q 222 1 212 16 q 238 -33 233 -14 q 243 -68 243 -51 m 153 -104 q 187 -97 176 -104 q 198 -66 198 -91 q 186 -32 198 -47 q 153 -17 175 -17 q 136 -22 144 -17 q 123 -36 128 -28 q 114 -54 117 -44 q 111 -72 111 -64 q 114 -89 111 -83 q 123 -99 117 -96 q 137 -103 129 -102 q 153 -104 144 -104 z "},"":{"ha":415,"x_min":-73,"x_max":398,"o":"m -73 -146 q -50 -147 -61 -147 q -28 -147 -39 -147 q 83 -136 31 -147 q 182 -100 136 -125 q 264 -38 227 -76 q 330 54 302 1 q 330 67 330 60 q 329 84 330 75 q 325 102 328 93 q 319 117 323 111 q 303 96 313 106 q 283 78 294 86 q 259 65 272 70 q 235 60 247 60 q 209 66 220 60 q 190 83 197 73 q 179 107 182 94 q 176 134 176 120 q 179 160 176 144 q 189 196 182 177 q 204 234 195 215 q 223 269 212 254 q 245 295 233 285 q 269 304 257 304 q 301 295 287 304 q 325 270 315 286 q 341 236 334 255 q 352 197 348 217 q 358 160 356 178 q 359 129 359 142 q 352 50 359 90 q 329 -29 345 9 q 291 -101 314 -67 q 237 -160 268 -134 q 178 -188 211 -180 q 113 -196 146 -196 q 67 -193 92 -196 q 17 -183 42 -189 q -32 -167 -8 -176 q -73 -146 -55 -158 m 247 214 q 237 207 242 214 q 228 190 232 199 q 220 171 223 180 q 217 157 217 161 q 227 141 217 149 q 252 132 237 132 q 276 140 262 132 q 298 159 291 147 q 290 179 296 169 q 278 196 285 189 q 263 209 271 204 q 247 214 255 214 m 398 -22 l 373 -68 l 143 -41 l 163 5 l 398 -22 z "},"":{"ha":415,"x_min":-73,"x_max":375,"o":"m -73 -146 q -50 -147 -61 -147 q -28 -147 -39 -147 q 83 -136 31 -147 q 182 -100 136 -125 q 264 -38 227 -76 q 330 54 302 1 q 330 67 330 60 q 329 84 330 75 q 325 102 328 93 q 319 117 323 111 q 303 96 313 106 q 283 78 294 86 q 259 65 272 70 q 235 60 247 60 q 209 66 220 60 q 190 83 197 73 q 179 107 182 94 q 176 134 176 120 q 179 160 176 144 q 189 196 182 177 q 204 234 195 215 q 223 269 212 254 q 245 295 233 285 q 269 304 257 304 q 301 295 287 304 q 325 270 315 286 q 341 236 334 255 q 352 197 348 217 q 358 160 356 178 q 359 129 359 142 q 352 50 359 90 q 329 -29 345 9 q 291 -101 314 -67 q 237 -160 268 -134 q 178 -188 211 -180 q 113 -196 146 -196 q 67 -193 92 -196 q 17 -183 42 -189 q -32 -167 -8 -176 q -73 -146 -55 -158 m 247 214 q 237 207 242 214 q 228 190 232 199 q 220 171 223 180 q 217 157 217 161 q 227 141 217 149 q 252 132 237 132 q 276 140 262 132 q 298 159 291 147 q 290 179 296 169 q 278 196 285 189 q 263 209 271 204 q 247 214 255 214 m 173 552 q 204 534 186 548 q 236 501 222 520 q 257 470 248 486 q 271 437 266 454 q 280 458 276 449 q 289 476 284 468 q 300 492 294 484 q 315 509 306 500 q 331 525 322 517 q 348 539 340 533 q 364 549 357 545 q 375 552 371 552 q 374 543 375 547 q 373 534 374 538 q 370 526 372 530 q 340 506 356 521 q 314 473 325 490 q 304 456 310 466 q 294 434 299 446 q 283 410 288 422 q 276 388 279 398 q 268 381 274 380 q 260 387 262 382 q 237 434 249 413 q 214 471 225 454 q 186 499 200 490 q 159 513 172 509 q 164 533 161 525 q 169 546 166 541 q 173 552 171 552 z "},"":{"ha":415,"x_min":-73,"x_max":359,"o":"m -73 -146 q -50 -147 -61 -147 q -28 -147 -39 -147 q 83 -136 31 -147 q 182 -100 136 -125 q 264 -38 227 -76 q 330 54 302 1 q 330 67 330 60 q 329 84 330 75 q 325 102 328 93 q 319 117 323 111 q 303 96 313 106 q 283 78 294 86 q 259 65 272 70 q 235 60 247 60 q 209 66 220 60 q 190 83 197 73 q 179 107 182 94 q 176 134 176 120 q 179 160 176 144 q 189 196 182 177 q 204 234 195 215 q 223 269 212 254 q 245 295 233 285 q 269 304 257 304 q 301 295 287 304 q 325 270 315 286 q 341 236 334 255 q 352 197 348 217 q 358 160 356 178 q 359 129 359 142 q 352 50 359 90 q 329 -29 345 9 q 291 -101 314 -67 q 237 -160 268 -134 q 178 -188 211 -180 q 113 -196 146 -196 q 67 -193 92 -196 q 17 -183 42 -189 q -32 -167 -8 -176 q -73 -146 -55 -158 m 247 214 q 237 207 242 214 q 228 190 232 199 q 220 171 223 180 q 217 157 217 161 q 227 141 217 149 q 252 132 237 132 q 276 140 262 132 q 298 159 291 147 q 290 179 296 169 q 278 196 285 189 q 263 209 271 204 q 247 214 255 214 m 320 406 l 279 431 q 267 419 273 425 q 255 407 261 413 q 241 395 248 401 q 223 381 233 389 q 197 363 212 372 q 169 347 182 355 q 137 330 153 338 l 119 362 q 145 377 132 370 q 168 391 157 384 q 188 404 180 398 q 207 418 197 410 q 227 435 217 427 q 248 455 237 445 q 227 474 236 465 q 211 491 218 482 q 202 507 203 500 q 200 526 200 517 q 211 567 200 550 q 236 595 222 585 q 267 611 251 606 q 292 616 282 616 q 330 602 315 616 q 345 566 345 589 q 340 532 345 549 q 329 503 335 516 q 315 480 322 490 q 304 467 308 471 l 344 441 l 320 406 m 242 530 q 253 506 242 517 q 273 488 263 494 q 293 515 286 499 q 300 548 300 530 q 294 569 300 562 q 277 576 287 576 q 268 573 273 576 q 256 565 262 570 q 246 551 250 559 q 242 530 242 542 z "}}}
